G04 #@! TF.GenerationSoftware,KiCad,Pcbnew,5.1.6-c6e7f7d~86~ubuntu16.04.1*
G04 #@! TF.CreationDate,2020-07-30T20:45:57-03:00*
G04 #@! TF.ProjectId,principal_sm13,7072696e-6369-4706-916c-5f736d31332e,rev?*
G04 #@! TF.SameCoordinates,Original*
G04 #@! TF.FileFunction,Copper,L2,Bot*
G04 #@! TF.FilePolarity,Positive*
%FSLAX46Y46*%
G04 Gerber Fmt 4.6, Leading zero omitted, Abs format (unit mm)*
G04 Created by KiCad (PCBNEW 5.1.6-c6e7f7d~86~ubuntu16.04.1) date 2020-07-30 20:45:57*
%MOMM*%
%LPD*%
G01*
G04 APERTURE LIST*
G04 #@! TA.AperFunction,ComponentPad*
%ADD10R,1.700000X1.700000*%
G04 #@! TD*
G04 #@! TA.AperFunction,ComponentPad*
%ADD11O,1.740000X2.190000*%
G04 #@! TD*
G04 #@! TA.AperFunction,ComponentPad*
%ADD12O,1.700000X1.700000*%
G04 #@! TD*
G04 #@! TA.AperFunction,ComponentPad*
%ADD13C,4.500000*%
G04 #@! TD*
G04 #@! TA.AperFunction,ViaPad*
%ADD14C,0.800000*%
G04 #@! TD*
G04 #@! TA.AperFunction,Conductor*
%ADD15C,0.254000*%
G04 #@! TD*
G04 #@! TA.AperFunction,Conductor*
%ADD16C,0.508000*%
G04 #@! TD*
G04 APERTURE END LIST*
D10*
X208696000Y-108953000D03*
X206156000Y-108953000D03*
X262036000Y-108953000D03*
X259496000Y-108953000D03*
X219376000Y-108965000D03*
X179116000Y-108953000D03*
X176576000Y-108953000D03*
X184196000Y-108953000D03*
X186736000Y-108953000D03*
X194356000Y-108953000D03*
X191816000Y-108953000D03*
X232056000Y-108953000D03*
X229516000Y-108953000D03*
X237136000Y-108953000D03*
X239676000Y-108953000D03*
X247296000Y-108953000D03*
X244756000Y-108953000D03*
X228940000Y-134295000D03*
X224455000Y-134295000D03*
X219970000Y-134295000D03*
D11*
X211236000Y-103865000D03*
X208696000Y-103865000D03*
X206156000Y-103865000D03*
G04 #@! TA.AperFunction,ComponentPad*
G36*
G01*
X202746000Y-104710001D02*
X202746000Y-103019999D01*
G75*
G02*
X202995999Y-102770000I249999J0D01*
G01*
X204236001Y-102770000D01*
G75*
G02*
X204486000Y-103019999I0J-249999D01*
G01*
X204486000Y-104710001D01*
G75*
G02*
X204236001Y-104960000I-249999J0D01*
G01*
X202995999Y-104960000D01*
G75*
G02*
X202746000Y-104710001I0J249999D01*
G01*
G37*
G04 #@! TD.AperFunction*
X264576000Y-103865000D03*
X262036000Y-103865000D03*
X259496000Y-103865000D03*
G04 #@! TA.AperFunction,ComponentPad*
G36*
G01*
X256086000Y-104710001D02*
X256086000Y-103019999D01*
G75*
G02*
X256335999Y-102770000I249999J0D01*
G01*
X257576001Y-102770000D01*
G75*
G02*
X257826000Y-103019999I0J-249999D01*
G01*
X257826000Y-104710001D01*
G75*
G02*
X257576001Y-104960000I-249999J0D01*
G01*
X256335999Y-104960000D01*
G75*
G02*
X256086000Y-104710001I0J249999D01*
G01*
G37*
G04 #@! TD.AperFunction*
X196896000Y-103865000D03*
X194356000Y-103865000D03*
X191816000Y-103865000D03*
X189276000Y-103865000D03*
X186736000Y-103865000D03*
X184196000Y-103865000D03*
X181656000Y-103865000D03*
X179116000Y-103865000D03*
X176576000Y-103865000D03*
G04 #@! TA.AperFunction,ComponentPad*
G36*
G01*
X173166000Y-104710001D02*
X173166000Y-103019999D01*
G75*
G02*
X173415999Y-102770000I249999J0D01*
G01*
X174656001Y-102770000D01*
G75*
G02*
X174906000Y-103019999I0J-249999D01*
G01*
X174906000Y-104710001D01*
G75*
G02*
X174656001Y-104960000I-249999J0D01*
G01*
X173415999Y-104960000D01*
G75*
G02*
X173166000Y-104710001I0J249999D01*
G01*
G37*
G04 #@! TD.AperFunction*
X249836000Y-103865000D03*
X247296000Y-103865000D03*
X244756000Y-103865000D03*
X242216000Y-103865000D03*
X239676000Y-103865000D03*
X237136000Y-103865000D03*
X234596000Y-103865000D03*
X232056000Y-103865000D03*
X229516000Y-103865000D03*
G04 #@! TA.AperFunction,ComponentPad*
G36*
G01*
X226106000Y-104710001D02*
X226106000Y-103019999D01*
G75*
G02*
X226355999Y-102770000I249999J0D01*
G01*
X227596001Y-102770000D01*
G75*
G02*
X227846000Y-103019999I0J-249999D01*
G01*
X227846000Y-104710001D01*
G75*
G02*
X227596001Y-104960000I-249999J0D01*
G01*
X226355999Y-104960000D01*
G75*
G02*
X226106000Y-104710001I0J249999D01*
G01*
G37*
G04 #@! TD.AperFunction*
D12*
X191052000Y-137558000D03*
X191052000Y-135018000D03*
X193592000Y-137558000D03*
X193592000Y-135018000D03*
X196132000Y-137558000D03*
D10*
X196132000Y-135018000D03*
X241040000Y-138360000D03*
D12*
X241040000Y-135820000D03*
X243580000Y-138360000D03*
X243580000Y-135820000D03*
X246120000Y-138360000D03*
X246120000Y-135820000D03*
X248660000Y-138360000D03*
X248660000Y-135820000D03*
X251200000Y-138360000D03*
X251200000Y-135820000D03*
X253740000Y-138360000D03*
X253740000Y-135820000D03*
X256280000Y-138360000D03*
X256280000Y-135820000D03*
X258820000Y-138360000D03*
X258820000Y-135820000D03*
X261360000Y-138360000D03*
X261360000Y-135820000D03*
X263900000Y-138360000D03*
X263900000Y-135820000D03*
D13*
X162366000Y-125640000D03*
X271840000Y-103796000D03*
D14*
X242641600Y-121518500D03*
X189542100Y-121788600D03*
X259380000Y-114670000D03*
X203610000Y-114510000D03*
X237875000Y-125695000D03*
X189630300Y-123900600D03*
X242570200Y-124924200D03*
X191622500Y-126097000D03*
X190602300Y-125936200D03*
X200883800Y-121804500D03*
X219650000Y-124025000D03*
X225975000Y-119825000D03*
X251706900Y-117762000D03*
X242070000Y-112330000D03*
X250041100Y-119723700D03*
X248369500Y-119695800D03*
X248780200Y-116994500D03*
X193871100Y-114597300D03*
X194482800Y-115453500D03*
X195627000Y-116730000D03*
X193267700Y-119424700D03*
X188671600Y-112813900D03*
X196458100Y-119419200D03*
X172528400Y-121406800D03*
X197385500Y-116713700D03*
X188690400Y-120990000D03*
X234477200Y-116674600D03*
X277500000Y-122275000D03*
X279270000Y-125480500D03*
D15*
X243580000Y-135820000D02*
X243580000Y-138360000D01*
X189276000Y-103865000D02*
X189276000Y-103494000D01*
X189276000Y-103494000D02*
X190775000Y-101995000D01*
X195026000Y-101995000D02*
X196896000Y-103865000D01*
X190775000Y-101995000D02*
X195026000Y-101995000D01*
X174036000Y-103865000D02*
X174036000Y-103134000D01*
X174036000Y-103134000D02*
X175195000Y-101975000D01*
X179766000Y-101975000D02*
X181656000Y-103865000D01*
X175195000Y-101975000D02*
X179766000Y-101975000D01*
X226976000Y-103865000D02*
X226976000Y-103334000D01*
X226976000Y-103334000D02*
X228225000Y-102085000D01*
X232816000Y-102085000D02*
X234596000Y-103865000D01*
X228225000Y-102085000D02*
X232816000Y-102085000D01*
X234596000Y-103865000D02*
X234675000Y-103865000D01*
X234675000Y-103865000D02*
X236425000Y-105615000D01*
X240466000Y-105615000D02*
X242216000Y-103865000D01*
X236425000Y-105615000D02*
X240466000Y-105615000D01*
X251200000Y-138360000D02*
X250012900Y-137172900D01*
X250012900Y-137172900D02*
X250012900Y-128889800D01*
X250012900Y-128889800D02*
X242641600Y-121518500D01*
X196958600Y-121788600D02*
X189542100Y-121788600D01*
X241040000Y-135820000D02*
X241040000Y-134639500D01*
X264576000Y-103865000D02*
X264576000Y-104424000D01*
X237875000Y-131474500D02*
X238400250Y-131999750D01*
X237875000Y-125695000D02*
X237875000Y-131474500D01*
X238400250Y-131999750D02*
X238143700Y-131743200D01*
X241040000Y-134639500D02*
X238400250Y-131999750D01*
X258292600Y-113782600D02*
X259180000Y-114670000D01*
X259180000Y-114670000D02*
X259380000Y-114670000D01*
X256956000Y-103865000D02*
X258145500Y-105054500D01*
X258292600Y-111142600D02*
X258292600Y-113782600D01*
X258145500Y-110995500D02*
X258292600Y-111142600D01*
X258145500Y-105054500D02*
X258145500Y-105504500D01*
X258145500Y-105844500D02*
X263155500Y-105844500D01*
X258145500Y-105844500D02*
X258145500Y-110995500D01*
X258145500Y-105504500D02*
X258145500Y-105844500D01*
X263155500Y-105844500D02*
X263880000Y-105120000D01*
X264576000Y-104424000D02*
X263880000Y-105120000D01*
X263880000Y-105120000D02*
X263392600Y-105607400D01*
X203616000Y-103865000D02*
X203616000Y-104436000D01*
X210188200Y-105611800D02*
X203718200Y-105611800D01*
X210473700Y-105326300D02*
X210188200Y-105611800D01*
X210487400Y-105326300D02*
X210473700Y-105326300D01*
X203616000Y-103865000D02*
X203616000Y-105714000D01*
X203718200Y-105611800D02*
X203616000Y-105714000D01*
X211236000Y-103865000D02*
X211236000Y-104577700D01*
X203616000Y-105714000D02*
X203616000Y-114496000D01*
X211236000Y-104577700D02*
X210487400Y-105326300D01*
X203610000Y-115137200D02*
X201668600Y-117078600D01*
X203610000Y-114510000D02*
X203610000Y-115137200D01*
X201668600Y-117078600D02*
X196958600Y-121788600D01*
X248660000Y-135820000D02*
X248660000Y-134639500D01*
X248660000Y-134639500D02*
X242570200Y-128549700D01*
X242570200Y-128549700D02*
X242570200Y-124924200D01*
X189630300Y-123900600D02*
X189630300Y-123900500D01*
X235109700Y-115909700D02*
X241810000Y-122610000D01*
X241810000Y-124164000D02*
X242570200Y-124924200D01*
X189630300Y-123900500D02*
X196832000Y-123900500D01*
X241810000Y-122610000D02*
X241810000Y-124164000D01*
X233806500Y-115909700D02*
X235109700Y-115909700D01*
X229443100Y-120273100D02*
X229443100Y-120786900D01*
X229443100Y-120273100D02*
X233806500Y-115909700D01*
X199872500Y-120860000D02*
X199831250Y-120901250D01*
X229443100Y-120786900D02*
X229370000Y-120860000D01*
X229370000Y-120860000D02*
X199872500Y-120860000D01*
X196832000Y-123900500D02*
X199831250Y-120901250D01*
X196855100Y-133114400D02*
X196132000Y-133837500D01*
X196855100Y-131329600D02*
X191622500Y-126097000D01*
X196132000Y-135018000D02*
X196132000Y-133837500D01*
X227520100Y-132875100D02*
X228940000Y-134295000D01*
X196855100Y-132875100D02*
X227520100Y-132875100D01*
X196855100Y-133114400D02*
X196855100Y-132875100D01*
X196855100Y-132875100D02*
X196855100Y-131329600D01*
X223274500Y-134295000D02*
X220011500Y-137558000D01*
X220011500Y-137558000D02*
X196132000Y-137558000D01*
X224455000Y-134295000D02*
X223274500Y-134295000D01*
X189400000Y-138110000D02*
X190250000Y-138960000D01*
X194730000Y-138960000D02*
X196132000Y-137558000D01*
X189400000Y-127138500D02*
X189400000Y-138110000D01*
X190250000Y-138960000D02*
X194730000Y-138960000D01*
X190602300Y-125936200D02*
X189400000Y-127138500D01*
X191472000Y-137558000D02*
X192652500Y-136377500D01*
X191052000Y-137558000D02*
X191472000Y-137558000D01*
X192652500Y-136377500D02*
X192652500Y-136367500D01*
X192652500Y-136367500D02*
X192720000Y-136300000D01*
X217965000Y-136300000D02*
X219970000Y-134295000D01*
X192720000Y-136300000D02*
X217965000Y-136300000D01*
X200883800Y-121804500D02*
X217865000Y-121804500D01*
X219650000Y-123589500D02*
X219617750Y-123557250D01*
X219650000Y-124025000D02*
X219650000Y-123589500D01*
X217865000Y-121804500D02*
X219617750Y-123557250D01*
X219667900Y-124007100D02*
X219650000Y-124025000D01*
X224509400Y-124007100D02*
X219667900Y-124007100D01*
X239616150Y-139113850D02*
X224509400Y-124007100D01*
X239616150Y-139486150D02*
X239616150Y-139113850D01*
X248660000Y-138360000D02*
X247255000Y-139765000D01*
X247255000Y-139765000D02*
X239895000Y-139765000D01*
X239895000Y-139765000D02*
X239616150Y-139486150D01*
X251706900Y-117762000D02*
X251706900Y-119170200D01*
X251706900Y-119170200D02*
X250373600Y-120503500D01*
X250373600Y-120503500D02*
X248110500Y-120503500D01*
X248110500Y-120503500D02*
X243059100Y-115452100D01*
X243059100Y-115452100D02*
X233214700Y-115452100D01*
X233214700Y-115452100D02*
X229384400Y-119282400D01*
X229384400Y-119282400D02*
X229384400Y-119290600D01*
X229384400Y-119290600D02*
X228925000Y-119750000D01*
X226050000Y-119750000D02*
X225975000Y-119825000D01*
X228925000Y-119750000D02*
X226050000Y-119750000D01*
X242639600Y-112322200D02*
X250041100Y-119723700D01*
X242631800Y-112330000D02*
X242639600Y-112322200D01*
X242070000Y-112330000D02*
X242631800Y-112330000D01*
X241190950Y-112639050D02*
X248247700Y-119695800D01*
X241190950Y-111780950D02*
X241190950Y-112639050D01*
X237136000Y-108953000D02*
X237136000Y-109006000D01*
X237136000Y-109006000D02*
X238889050Y-110759050D01*
X238889050Y-110759050D02*
X240169050Y-110759050D01*
X248247700Y-119695800D02*
X248369500Y-119695800D01*
X240169050Y-110759050D02*
X241190950Y-111780950D01*
X240738700Y-108953000D02*
X242202850Y-110417150D01*
X239676000Y-108953000D02*
X240738700Y-108953000D01*
X242202850Y-110417150D02*
X248780200Y-116994500D01*
X191816000Y-110133500D02*
X193871100Y-112188600D01*
X193871100Y-112188600D02*
X193871100Y-114597300D01*
X191816000Y-108953000D02*
X191816000Y-110133500D01*
X194356000Y-108953000D02*
X194356000Y-110133500D01*
X194356000Y-110133500D02*
X194608400Y-110385900D01*
X194608400Y-110385900D02*
X194608400Y-115327900D01*
X194608400Y-115327900D02*
X194482800Y-115453500D01*
X186875200Y-108953000D02*
X194652200Y-116730000D01*
X194652200Y-116730000D02*
X195627000Y-116730000D01*
X186736000Y-108953000D02*
X186875200Y-108953000D01*
X184196000Y-108953000D02*
X184196000Y-110133500D01*
X184196000Y-110133500D02*
X193267700Y-119205200D01*
X193267700Y-119205200D02*
X193267700Y-119424700D01*
X188671600Y-112813900D02*
X195276900Y-119419200D01*
X195276900Y-119419200D02*
X196458100Y-119419200D01*
X197385500Y-116713700D02*
X197385500Y-119525900D01*
X197385500Y-119525900D02*
X196720100Y-120191300D01*
X196720100Y-120191300D02*
X173743900Y-120191300D01*
X173743900Y-120191300D02*
X172528400Y-121406800D01*
X188690400Y-124017800D02*
X188690400Y-120990000D01*
X224805500Y-124950300D02*
X189622900Y-124950300D01*
X189622900Y-124950300D02*
X188690400Y-124017800D01*
X239072600Y-139217400D02*
X224805500Y-124950300D01*
X239072600Y-139812600D02*
X239072600Y-139217400D01*
X239575000Y-140315000D02*
X239072600Y-139812600D01*
X251200000Y-135820000D02*
X252475000Y-137095000D01*
X252475000Y-137095000D02*
X252475000Y-139275000D01*
X252475000Y-139275000D02*
X251435000Y-140315000D01*
X251435000Y-140315000D02*
X239575000Y-140315000D01*
D16*
X246120000Y-134512500D02*
X239121300Y-127513800D01*
X239121300Y-127513800D02*
X239121300Y-121318700D01*
X239121300Y-121318700D02*
X234477200Y-116674600D01*
X246120000Y-135820000D02*
X246120000Y-134512500D01*
X246120000Y-138360000D02*
X246120000Y-135820000D01*
D15*
X257550000Y-136450000D02*
X257550000Y-135345400D01*
X255048450Y-137051550D02*
X256948450Y-137051550D01*
X253740000Y-138360000D02*
X255048450Y-137051550D01*
X256948450Y-137051550D02*
X257550000Y-136450000D01*
X270620400Y-122275000D02*
X270035200Y-122860200D01*
X277500000Y-122275000D02*
X270620400Y-122275000D01*
X257550000Y-135345400D02*
X270035200Y-122860200D01*
X208696000Y-108953000D02*
X209357000Y-108953000D01*
X279270000Y-121963200D02*
X279270000Y-125480500D01*
X277634300Y-120327500D02*
X279270000Y-121963200D01*
X263424600Y-120327500D02*
X277634300Y-120327500D01*
X208696000Y-108953000D02*
X209307000Y-108953000D01*
X210730000Y-107530000D02*
X250627100Y-107530000D01*
X209307000Y-108953000D02*
X210730000Y-107530000D01*
X250627100Y-107530000D02*
X263424600Y-120327500D01*
G36*
X284291000Y-140180001D02*
G01*
X252647630Y-140180001D01*
X252987351Y-139840279D01*
X253016422Y-139816422D01*
X253107549Y-139705383D01*
X253306842Y-139787932D01*
X253593740Y-139845000D01*
X253886260Y-139845000D01*
X254173158Y-139787932D01*
X254443411Y-139675990D01*
X254686632Y-139513475D01*
X254893475Y-139306632D01*
X255010000Y-139132240D01*
X255126525Y-139306632D01*
X255333368Y-139513475D01*
X255576589Y-139675990D01*
X255846842Y-139787932D01*
X256133740Y-139845000D01*
X256426260Y-139845000D01*
X256713158Y-139787932D01*
X256983411Y-139675990D01*
X257226632Y-139513475D01*
X257433475Y-139306632D01*
X257550000Y-139132240D01*
X257666525Y-139306632D01*
X257873368Y-139513475D01*
X258116589Y-139675990D01*
X258386842Y-139787932D01*
X258673740Y-139845000D01*
X258966260Y-139845000D01*
X259253158Y-139787932D01*
X259523411Y-139675990D01*
X259766632Y-139513475D01*
X259973475Y-139306632D01*
X260090000Y-139132240D01*
X260206525Y-139306632D01*
X260413368Y-139513475D01*
X260656589Y-139675990D01*
X260926842Y-139787932D01*
X261213740Y-139845000D01*
X261506260Y-139845000D01*
X261793158Y-139787932D01*
X262063411Y-139675990D01*
X262306632Y-139513475D01*
X262513475Y-139306632D01*
X262630000Y-139132240D01*
X262746525Y-139306632D01*
X262953368Y-139513475D01*
X263196589Y-139675990D01*
X263466842Y-139787932D01*
X263753740Y-139845000D01*
X264046260Y-139845000D01*
X264333158Y-139787932D01*
X264603411Y-139675990D01*
X264846632Y-139513475D01*
X265053475Y-139306632D01*
X265215990Y-139063411D01*
X265327932Y-138793158D01*
X265385000Y-138506260D01*
X265385000Y-138213740D01*
X265327932Y-137926842D01*
X265215990Y-137656589D01*
X265053475Y-137413368D01*
X264846632Y-137206525D01*
X264672240Y-137090000D01*
X264846632Y-136973475D01*
X265053475Y-136766632D01*
X265215990Y-136523411D01*
X265327932Y-136253158D01*
X265385000Y-135966260D01*
X265385000Y-135673740D01*
X265327932Y-135386842D01*
X265215990Y-135116589D01*
X265053475Y-134873368D01*
X264846632Y-134666525D01*
X264603411Y-134504010D01*
X264333158Y-134392068D01*
X264046260Y-134335000D01*
X263753740Y-134335000D01*
X263466842Y-134392068D01*
X263196589Y-134504010D01*
X262953368Y-134666525D01*
X262746525Y-134873368D01*
X262630000Y-135047760D01*
X262513475Y-134873368D01*
X262306632Y-134666525D01*
X262063411Y-134504010D01*
X261793158Y-134392068D01*
X261506260Y-134335000D01*
X261213740Y-134335000D01*
X260926842Y-134392068D01*
X260656589Y-134504010D01*
X260413368Y-134666525D01*
X260206525Y-134873368D01*
X260090000Y-135047760D01*
X259973475Y-134873368D01*
X259766632Y-134666525D01*
X259523411Y-134504010D01*
X259484951Y-134488079D01*
X270600479Y-123372552D01*
X270600483Y-123372547D01*
X270936031Y-123037000D01*
X276798289Y-123037000D01*
X276840226Y-123078937D01*
X277009744Y-123192205D01*
X277198102Y-123270226D01*
X277398061Y-123310000D01*
X277601939Y-123310000D01*
X277801898Y-123270226D01*
X277990256Y-123192205D01*
X278159774Y-123078937D01*
X278303937Y-122934774D01*
X278417205Y-122765256D01*
X278495226Y-122576898D01*
X278508000Y-122512677D01*
X278508001Y-124778788D01*
X278466063Y-124820726D01*
X278352795Y-124990244D01*
X278274774Y-125178602D01*
X278235000Y-125378561D01*
X278235000Y-125582439D01*
X278274774Y-125782398D01*
X278352795Y-125970756D01*
X278466063Y-126140274D01*
X278610226Y-126284437D01*
X278779744Y-126397705D01*
X278968102Y-126475726D01*
X279168061Y-126515500D01*
X279371939Y-126515500D01*
X279571898Y-126475726D01*
X279760256Y-126397705D01*
X279929774Y-126284437D01*
X280073937Y-126140274D01*
X280187205Y-125970756D01*
X280265226Y-125782398D01*
X280305000Y-125582439D01*
X280305000Y-125378561D01*
X280265226Y-125178602D01*
X280187205Y-124990244D01*
X280073937Y-124820726D01*
X280032000Y-124778789D01*
X280032000Y-122000622D01*
X280035686Y-121963199D01*
X280030171Y-121907205D01*
X280020974Y-121813822D01*
X279977402Y-121670185D01*
X279906645Y-121537808D01*
X279811422Y-121421778D01*
X279782353Y-121397922D01*
X278199584Y-119815154D01*
X278175722Y-119786078D01*
X278059692Y-119690855D01*
X277927315Y-119620098D01*
X277783678Y-119576526D01*
X277671726Y-119565500D01*
X277671723Y-119565500D01*
X277634300Y-119561814D01*
X277596877Y-119565500D01*
X263740231Y-119565500D01*
X259793662Y-115618931D01*
X259870256Y-115587205D01*
X260039774Y-115473937D01*
X260183937Y-115329774D01*
X260297205Y-115160256D01*
X260375226Y-114971898D01*
X260415000Y-114771939D01*
X260415000Y-114568061D01*
X260375226Y-114368102D01*
X260297205Y-114179744D01*
X260183937Y-114010226D01*
X260039774Y-113866063D01*
X259870256Y-113752795D01*
X259681898Y-113674774D01*
X259481939Y-113635000D01*
X259278061Y-113635000D01*
X259231827Y-113644196D01*
X259054600Y-113466970D01*
X259054600Y-111180023D01*
X259058286Y-111142600D01*
X259054600Y-111105174D01*
X259043574Y-110993222D01*
X259000002Y-110849585D01*
X258929245Y-110717208D01*
X258907500Y-110690712D01*
X258907500Y-110441072D01*
X260346000Y-110441072D01*
X260470482Y-110428812D01*
X260590180Y-110392502D01*
X260700494Y-110333537D01*
X260766000Y-110279778D01*
X260831506Y-110333537D01*
X260941820Y-110392502D01*
X261061518Y-110428812D01*
X261186000Y-110441072D01*
X262886000Y-110441072D01*
X263010482Y-110428812D01*
X263130180Y-110392502D01*
X263240494Y-110333537D01*
X263337185Y-110254185D01*
X263416537Y-110157494D01*
X263475502Y-110047180D01*
X263511812Y-109927482D01*
X263524072Y-109803000D01*
X263524072Y-108103000D01*
X263511812Y-107978518D01*
X263475502Y-107858820D01*
X263416537Y-107748506D01*
X263337185Y-107651815D01*
X263240494Y-107572463D01*
X263130180Y-107513498D01*
X263010482Y-107477188D01*
X262886000Y-107464928D01*
X261186000Y-107464928D01*
X261061518Y-107477188D01*
X260941820Y-107513498D01*
X260831506Y-107572463D01*
X260766000Y-107626222D01*
X260700494Y-107572463D01*
X260590180Y-107513498D01*
X260470482Y-107477188D01*
X260346000Y-107464928D01*
X258907500Y-107464928D01*
X258907500Y-106606500D01*
X263118077Y-106606500D01*
X263155500Y-106610186D01*
X263192923Y-106606500D01*
X263192926Y-106606500D01*
X263304878Y-106595474D01*
X263448515Y-106551902D01*
X263580892Y-106481145D01*
X263696922Y-106385922D01*
X263720784Y-106356846D01*
X264484373Y-105593257D01*
X264576000Y-105602282D01*
X264871032Y-105573224D01*
X265154725Y-105487166D01*
X265416179Y-105347417D01*
X265645345Y-105159345D01*
X265833417Y-104930179D01*
X265973166Y-104668724D01*
X266059224Y-104385031D01*
X266081000Y-104163935D01*
X266081000Y-103566064D01*
X266075661Y-103511852D01*
X268955000Y-103511852D01*
X268955000Y-104080148D01*
X269065869Y-104637523D01*
X269283346Y-105162560D01*
X269599074Y-105635080D01*
X270000920Y-106036926D01*
X270473440Y-106352654D01*
X270998477Y-106570131D01*
X271555852Y-106681000D01*
X272124148Y-106681000D01*
X272681523Y-106570131D01*
X273206560Y-106352654D01*
X273679080Y-106036926D01*
X274080926Y-105635080D01*
X274396654Y-105162560D01*
X274614131Y-104637523D01*
X274725000Y-104080148D01*
X274725000Y-103511852D01*
X274614131Y-102954477D01*
X274396654Y-102429440D01*
X274080926Y-101956920D01*
X273679080Y-101555074D01*
X273206560Y-101239346D01*
X272681523Y-101021869D01*
X272124148Y-100911000D01*
X271555852Y-100911000D01*
X270998477Y-101021869D01*
X270473440Y-101239346D01*
X270000920Y-101555074D01*
X269599074Y-101956920D01*
X269283346Y-102429440D01*
X269065869Y-102954477D01*
X268955000Y-103511852D01*
X266075661Y-103511852D01*
X266059224Y-103344968D01*
X265973166Y-103061275D01*
X265833417Y-102799821D01*
X265645345Y-102570655D01*
X265416178Y-102382583D01*
X265154724Y-102242834D01*
X264871031Y-102156776D01*
X264576000Y-102127718D01*
X264280968Y-102156776D01*
X263997275Y-102242834D01*
X263735821Y-102382583D01*
X263506655Y-102570655D01*
X263318583Y-102799822D01*
X263306000Y-102823363D01*
X263293417Y-102799821D01*
X263105345Y-102570655D01*
X262876178Y-102382583D01*
X262614724Y-102242834D01*
X262331031Y-102156776D01*
X262036000Y-102127718D01*
X261740968Y-102156776D01*
X261457275Y-102242834D01*
X261195821Y-102382583D01*
X260966655Y-102570655D01*
X260778583Y-102799822D01*
X260766000Y-102823363D01*
X260753417Y-102799821D01*
X260565345Y-102570655D01*
X260336178Y-102382583D01*
X260074724Y-102242834D01*
X259791031Y-102156776D01*
X259496000Y-102127718D01*
X259200968Y-102156776D01*
X258917275Y-102242834D01*
X258655821Y-102382583D01*
X258426655Y-102570655D01*
X258372935Y-102636114D01*
X258314405Y-102526613D01*
X258203962Y-102392038D01*
X258069387Y-102281595D01*
X257915851Y-102199528D01*
X257749255Y-102148992D01*
X257576001Y-102131928D01*
X256335999Y-102131928D01*
X256162745Y-102148992D01*
X255996149Y-102199528D01*
X255842613Y-102281595D01*
X255708038Y-102392038D01*
X255597595Y-102526613D01*
X255515528Y-102680149D01*
X255464992Y-102846745D01*
X255447928Y-103019999D01*
X255447928Y-104710001D01*
X255464992Y-104883255D01*
X255515528Y-105049851D01*
X255597595Y-105203387D01*
X255708038Y-105337962D01*
X255842613Y-105448405D01*
X255996149Y-105530472D01*
X256162745Y-105581008D01*
X256335999Y-105598072D01*
X257383500Y-105598072D01*
X257383500Y-105807074D01*
X257379814Y-105844500D01*
X257383500Y-105881925D01*
X257383501Y-110958067D01*
X257379814Y-110995500D01*
X257394527Y-111144878D01*
X257438099Y-111288515D01*
X257508855Y-111420892D01*
X257530600Y-111447388D01*
X257530601Y-113355870D01*
X251192384Y-107017654D01*
X251168522Y-106988578D01*
X251052492Y-106893355D01*
X250920115Y-106822598D01*
X250776478Y-106779026D01*
X250664526Y-106768000D01*
X250664523Y-106768000D01*
X250627100Y-106764314D01*
X250589677Y-106768000D01*
X210767423Y-106768000D01*
X210730000Y-106764314D01*
X210692577Y-106768000D01*
X210692574Y-106768000D01*
X210580622Y-106779026D01*
X210436985Y-106822598D01*
X210375364Y-106855535D01*
X210304607Y-106893355D01*
X210221904Y-106961228D01*
X210188578Y-106988578D01*
X210164721Y-107017648D01*
X209697105Y-107485264D01*
X209670482Y-107477188D01*
X209546000Y-107464928D01*
X207846000Y-107464928D01*
X207721518Y-107477188D01*
X207601820Y-107513498D01*
X207491506Y-107572463D01*
X207426000Y-107626222D01*
X207360494Y-107572463D01*
X207250180Y-107513498D01*
X207130482Y-107477188D01*
X207006000Y-107464928D01*
X205306000Y-107464928D01*
X205181518Y-107477188D01*
X205061820Y-107513498D01*
X204951506Y-107572463D01*
X204854815Y-107651815D01*
X204775463Y-107748506D01*
X204716498Y-107858820D01*
X204680188Y-107978518D01*
X204667928Y-108103000D01*
X204667928Y-109803000D01*
X204680188Y-109927482D01*
X204716498Y-110047180D01*
X204775463Y-110157494D01*
X204854815Y-110254185D01*
X204951506Y-110333537D01*
X205061820Y-110392502D01*
X205181518Y-110428812D01*
X205306000Y-110441072D01*
X207006000Y-110441072D01*
X207130482Y-110428812D01*
X207250180Y-110392502D01*
X207360494Y-110333537D01*
X207426000Y-110279778D01*
X207491506Y-110333537D01*
X207601820Y-110392502D01*
X207721518Y-110428812D01*
X207846000Y-110441072D01*
X209546000Y-110441072D01*
X209670482Y-110428812D01*
X209790180Y-110392502D01*
X209900494Y-110333537D01*
X209997185Y-110254185D01*
X210076537Y-110157494D01*
X210135502Y-110047180D01*
X210171812Y-109927482D01*
X210182890Y-109815000D01*
X218398386Y-109815000D01*
X218400838Y-109839896D01*
X218408100Y-109863836D01*
X218419893Y-109885899D01*
X218435763Y-109905237D01*
X218455101Y-109921107D01*
X218477164Y-109932900D01*
X218501104Y-109940162D01*
X218526000Y-109942614D01*
X219217250Y-109942000D01*
X219249000Y-109910250D01*
X219249000Y-109092000D01*
X219503000Y-109092000D01*
X219503000Y-109910250D01*
X219534750Y-109942000D01*
X220226000Y-109942614D01*
X220250896Y-109940162D01*
X220274836Y-109932900D01*
X220296899Y-109921107D01*
X220316237Y-109905237D01*
X220332107Y-109885899D01*
X220343900Y-109863836D01*
X220351162Y-109839896D01*
X220353614Y-109815000D01*
X220353000Y-109123750D01*
X220321250Y-109092000D01*
X219503000Y-109092000D01*
X219249000Y-109092000D01*
X218430750Y-109092000D01*
X218399000Y-109123750D01*
X218398386Y-109815000D01*
X210182890Y-109815000D01*
X210184072Y-109803000D01*
X210184072Y-109153558D01*
X211045631Y-108292000D01*
X218398543Y-108292000D01*
X218399000Y-108806250D01*
X218430750Y-108838000D01*
X219249000Y-108838000D01*
X219249000Y-108818000D01*
X219503000Y-108818000D01*
X219503000Y-108838000D01*
X220321250Y-108838000D01*
X220353000Y-108806250D01*
X220353457Y-108292000D01*
X228027928Y-108292000D01*
X228027928Y-109803000D01*
X228040188Y-109927482D01*
X228076498Y-110047180D01*
X228135463Y-110157494D01*
X228214815Y-110254185D01*
X228311506Y-110333537D01*
X228421820Y-110392502D01*
X228541518Y-110428812D01*
X228666000Y-110441072D01*
X230366000Y-110441072D01*
X230490482Y-110428812D01*
X230610180Y-110392502D01*
X230720494Y-110333537D01*
X230786000Y-110279778D01*
X230851506Y-110333537D01*
X230961820Y-110392502D01*
X231081518Y-110428812D01*
X231206000Y-110441072D01*
X232906000Y-110441072D01*
X233030482Y-110428812D01*
X233150180Y-110392502D01*
X233260494Y-110333537D01*
X233357185Y-110254185D01*
X233436537Y-110157494D01*
X233495502Y-110047180D01*
X233531812Y-109927482D01*
X233544072Y-109803000D01*
X233544072Y-108292000D01*
X235647928Y-108292000D01*
X235647928Y-109803000D01*
X235660188Y-109927482D01*
X235696498Y-110047180D01*
X235755463Y-110157494D01*
X235834815Y-110254185D01*
X235931506Y-110333537D01*
X236041820Y-110392502D01*
X236161518Y-110428812D01*
X236286000Y-110441072D01*
X237493441Y-110441072D01*
X238323770Y-111271401D01*
X238347628Y-111300472D01*
X238463658Y-111395695D01*
X238596035Y-111466452D01*
X238739672Y-111510024D01*
X238851624Y-111521050D01*
X238851626Y-111521050D01*
X238889049Y-111524736D01*
X238926472Y-111521050D01*
X239853420Y-111521050D01*
X240428950Y-112096581D01*
X240428950Y-112601627D01*
X240425264Y-112639050D01*
X240439977Y-112788428D01*
X240483549Y-112932065D01*
X240554305Y-113064442D01*
X240611339Y-113133937D01*
X240649529Y-113180472D01*
X240678599Y-113204329D01*
X242164370Y-114690100D01*
X233252122Y-114690100D01*
X233214699Y-114686414D01*
X233177276Y-114690100D01*
X233177274Y-114690100D01*
X233065322Y-114701126D01*
X232921685Y-114744698D01*
X232789308Y-114815455D01*
X232673278Y-114910678D01*
X232649421Y-114939748D01*
X228872054Y-118717116D01*
X228842978Y-118740978D01*
X228797003Y-118797000D01*
X228781587Y-118815783D01*
X228609370Y-118988000D01*
X226585292Y-118988000D01*
X226465256Y-118907795D01*
X226276898Y-118829774D01*
X226076939Y-118790000D01*
X225873061Y-118790000D01*
X225673102Y-118829774D01*
X225484744Y-118907795D01*
X225315226Y-119021063D01*
X225171063Y-119165226D01*
X225057795Y-119334744D01*
X224979774Y-119523102D01*
X224940000Y-119723061D01*
X224940000Y-119926939D01*
X224974026Y-120098000D01*
X199909922Y-120098000D01*
X199872499Y-120094314D01*
X199835076Y-120098000D01*
X199835074Y-120098000D01*
X199723122Y-120109026D01*
X199712618Y-120112212D01*
X202233879Y-117590952D01*
X202233883Y-117590947D01*
X204122352Y-115702479D01*
X204151422Y-115678622D01*
X204246645Y-115562592D01*
X204317402Y-115430215D01*
X204360974Y-115286578D01*
X204367949Y-115215762D01*
X204413937Y-115169774D01*
X204527205Y-115000256D01*
X204605226Y-114811898D01*
X204645000Y-114611939D01*
X204645000Y-114408061D01*
X204605226Y-114208102D01*
X204527205Y-114019744D01*
X204413937Y-113850226D01*
X204378000Y-113814289D01*
X204378000Y-106373800D01*
X210150777Y-106373800D01*
X210188200Y-106377486D01*
X210225623Y-106373800D01*
X210225626Y-106373800D01*
X210337578Y-106362774D01*
X210481215Y-106319202D01*
X210613592Y-106248445D01*
X210729622Y-106153222D01*
X210753484Y-106124146D01*
X210923348Y-105954282D01*
X211028822Y-105867722D01*
X211052684Y-105838647D01*
X211294844Y-105596486D01*
X211531032Y-105573224D01*
X211814725Y-105487166D01*
X212076179Y-105347417D01*
X212305345Y-105159345D01*
X212468943Y-104960000D01*
X225978386Y-104960000D01*
X225980838Y-104984896D01*
X225988100Y-105008836D01*
X225999893Y-105030899D01*
X226015763Y-105050237D01*
X226035101Y-105066107D01*
X226057164Y-105077900D01*
X226081104Y-105085162D01*
X226106000Y-105087614D01*
X226817250Y-105087000D01*
X226849000Y-105055250D01*
X226849000Y-103992000D01*
X227103000Y-103992000D01*
X227103000Y-105055250D01*
X227134750Y-105087000D01*
X227846000Y-105087614D01*
X227870896Y-105085162D01*
X227894836Y-105077900D01*
X227916899Y-105066107D01*
X227936237Y-105050237D01*
X227952107Y-105030899D01*
X227963900Y-105008836D01*
X227971162Y-104984896D01*
X227973614Y-104960000D01*
X227973000Y-104023750D01*
X227941250Y-103992000D01*
X227103000Y-103992000D01*
X226849000Y-103992000D01*
X226010750Y-103992000D01*
X225979000Y-104023750D01*
X225978386Y-104960000D01*
X212468943Y-104960000D01*
X212493417Y-104930179D01*
X212633166Y-104668724D01*
X212719224Y-104385031D01*
X212741000Y-104163935D01*
X212741000Y-103566064D01*
X212719224Y-103344968D01*
X212633166Y-103061275D01*
X212493417Y-102799821D01*
X212468944Y-102770000D01*
X225978386Y-102770000D01*
X225979000Y-103706250D01*
X226010750Y-103738000D01*
X226849000Y-103738000D01*
X226849000Y-102674750D01*
X227103000Y-102674750D01*
X227103000Y-103738000D01*
X227941250Y-103738000D01*
X227973000Y-103706250D01*
X227973091Y-103566065D01*
X228011000Y-103566065D01*
X228011000Y-104163936D01*
X228032776Y-104385032D01*
X228118834Y-104668725D01*
X228258583Y-104930179D01*
X228446655Y-105159345D01*
X228675822Y-105347417D01*
X228937276Y-105487166D01*
X229220969Y-105573224D01*
X229516000Y-105602282D01*
X229811032Y-105573224D01*
X230094725Y-105487166D01*
X230356179Y-105347417D01*
X230585345Y-105159345D01*
X230773417Y-104930179D01*
X230786000Y-104906638D01*
X230798583Y-104930179D01*
X230986655Y-105159345D01*
X231215822Y-105347417D01*
X231477276Y-105487166D01*
X231760969Y-105573224D01*
X232056000Y-105602282D01*
X232351032Y-105573224D01*
X232634725Y-105487166D01*
X232896179Y-105347417D01*
X233125345Y-105159345D01*
X233313417Y-104930179D01*
X233453166Y-104668724D01*
X233539224Y-104385031D01*
X233561000Y-104163935D01*
X233561000Y-104150144D01*
X233589804Y-104150144D01*
X233620871Y-104345287D01*
X233689412Y-104530620D01*
X233792793Y-104699020D01*
X233927040Y-104844016D01*
X234086995Y-104960035D01*
X234266511Y-105042619D01*
X234315869Y-105046836D01*
X234469000Y-105046859D01*
X234469000Y-103992000D01*
X234723000Y-103992000D01*
X234723000Y-105046859D01*
X234876131Y-105046836D01*
X234925489Y-105042619D01*
X235105005Y-104960035D01*
X235264960Y-104844016D01*
X235399207Y-104699020D01*
X235502588Y-104530620D01*
X235571129Y-104345287D01*
X235602196Y-104150144D01*
X235567467Y-103992000D01*
X234723000Y-103992000D01*
X234469000Y-103992000D01*
X233624533Y-103992000D01*
X233589804Y-104150144D01*
X233561000Y-104150144D01*
X233561000Y-103579856D01*
X233589804Y-103579856D01*
X233624533Y-103738000D01*
X234469000Y-103738000D01*
X234723000Y-103738000D01*
X235567467Y-103738000D01*
X235602196Y-103579856D01*
X235600001Y-103566065D01*
X235631000Y-103566065D01*
X235631000Y-104163936D01*
X235652776Y-104385032D01*
X235738834Y-104668725D01*
X235878583Y-104930179D01*
X236066655Y-105159345D01*
X236295822Y-105347417D01*
X236557276Y-105487166D01*
X236840969Y-105573224D01*
X237136000Y-105602282D01*
X237431032Y-105573224D01*
X237714725Y-105487166D01*
X237976179Y-105347417D01*
X238205345Y-105159345D01*
X238393417Y-104930179D01*
X238406000Y-104906638D01*
X238418583Y-104930179D01*
X238606655Y-105159345D01*
X238835822Y-105347417D01*
X239097276Y-105487166D01*
X239380969Y-105573224D01*
X239676000Y-105602282D01*
X239971032Y-105573224D01*
X240254725Y-105487166D01*
X240516179Y-105347417D01*
X240745345Y-105159345D01*
X240933417Y-104930179D01*
X241073166Y-104668724D01*
X241159224Y-104385031D01*
X241181000Y-104163935D01*
X241181000Y-104150144D01*
X241209804Y-104150144D01*
X241240871Y-104345287D01*
X241309412Y-104530620D01*
X241412793Y-104699020D01*
X241547040Y-104844016D01*
X241706995Y-104960035D01*
X241886511Y-105042619D01*
X241935869Y-105046836D01*
X242089000Y-105046859D01*
X242089000Y-103992000D01*
X242343000Y-103992000D01*
X242343000Y-105046859D01*
X242496131Y-105046836D01*
X242545489Y-105042619D01*
X242725005Y-104960035D01*
X242884960Y-104844016D01*
X243019207Y-104699020D01*
X243122588Y-104530620D01*
X243191129Y-104345287D01*
X243222196Y-104150144D01*
X243187467Y-103992000D01*
X242343000Y-103992000D01*
X242089000Y-103992000D01*
X241244533Y-103992000D01*
X241209804Y-104150144D01*
X241181000Y-104150144D01*
X241181000Y-103579856D01*
X241209804Y-103579856D01*
X241244533Y-103738000D01*
X242089000Y-103738000D01*
X242343000Y-103738000D01*
X243187467Y-103738000D01*
X243222196Y-103579856D01*
X243220001Y-103566065D01*
X243251000Y-103566065D01*
X243251000Y-104163936D01*
X243272776Y-104385032D01*
X243358834Y-104668725D01*
X243498583Y-104930179D01*
X243686655Y-105159345D01*
X243915822Y-105347417D01*
X244177276Y-105487166D01*
X244460969Y-105573224D01*
X244756000Y-105602282D01*
X245051032Y-105573224D01*
X245334725Y-105487166D01*
X245596179Y-105347417D01*
X245825345Y-105159345D01*
X246013417Y-104930179D01*
X246026000Y-104906638D01*
X246038583Y-104930179D01*
X246226655Y-105159345D01*
X246455822Y-105347417D01*
X246717276Y-105487166D01*
X247000969Y-105573224D01*
X247296000Y-105602282D01*
X247591032Y-105573224D01*
X247874725Y-105487166D01*
X248136179Y-105347417D01*
X248365345Y-105159345D01*
X248553417Y-104930179D01*
X248693166Y-104668724D01*
X248779224Y-104385031D01*
X248801000Y-104163935D01*
X248801000Y-104150144D01*
X248829804Y-104150144D01*
X248860871Y-104345287D01*
X248929412Y-104530620D01*
X249032793Y-104699020D01*
X249167040Y-104844016D01*
X249326995Y-104960035D01*
X249506511Y-105042619D01*
X249555869Y-105046836D01*
X249709000Y-105046859D01*
X249709000Y-103992000D01*
X249963000Y-103992000D01*
X249963000Y-105046859D01*
X250116131Y-105046836D01*
X250165489Y-105042619D01*
X250345005Y-104960035D01*
X250504960Y-104844016D01*
X250639207Y-104699020D01*
X250742588Y-104530620D01*
X250811129Y-104345287D01*
X250842196Y-104150144D01*
X250807467Y-103992000D01*
X249963000Y-103992000D01*
X249709000Y-103992000D01*
X248864533Y-103992000D01*
X248829804Y-104150144D01*
X248801000Y-104150144D01*
X248801000Y-103579856D01*
X248829804Y-103579856D01*
X248864533Y-103738000D01*
X249709000Y-103738000D01*
X249963000Y-103738000D01*
X250807467Y-103738000D01*
X250842196Y-103579856D01*
X250811129Y-103384713D01*
X250742588Y-103199380D01*
X250639207Y-103030980D01*
X250504960Y-102885984D01*
X250345005Y-102769965D01*
X250165489Y-102687381D01*
X250116131Y-102683164D01*
X249963000Y-102683141D01*
X249963000Y-103738000D01*
X249709000Y-103738000D01*
X249709000Y-102683141D01*
X249555869Y-102683164D01*
X249506511Y-102687381D01*
X249326995Y-102769965D01*
X249167040Y-102885984D01*
X249032793Y-103030980D01*
X248929412Y-103199380D01*
X248860871Y-103384713D01*
X248829804Y-103579856D01*
X248801000Y-103579856D01*
X248801000Y-103566064D01*
X248779224Y-103344968D01*
X248693166Y-103061275D01*
X248553417Y-102799821D01*
X248365345Y-102570655D01*
X248136178Y-102382583D01*
X247874724Y-102242834D01*
X247591031Y-102156776D01*
X247296000Y-102127718D01*
X247000968Y-102156776D01*
X246717275Y-102242834D01*
X246455821Y-102382583D01*
X246226655Y-102570655D01*
X246038583Y-102799822D01*
X246026000Y-102823363D01*
X246013417Y-102799821D01*
X245825345Y-102570655D01*
X245596178Y-102382583D01*
X245334724Y-102242834D01*
X245051031Y-102156776D01*
X244756000Y-102127718D01*
X244460968Y-102156776D01*
X244177275Y-102242834D01*
X243915821Y-102382583D01*
X243686655Y-102570655D01*
X243498583Y-102799822D01*
X243358834Y-103061276D01*
X243272776Y-103344969D01*
X243251000Y-103566065D01*
X243220001Y-103566065D01*
X243191129Y-103384713D01*
X243122588Y-103199380D01*
X243019207Y-103030980D01*
X242884960Y-102885984D01*
X242725005Y-102769965D01*
X242545489Y-102687381D01*
X242496131Y-102683164D01*
X242343000Y-102683141D01*
X242343000Y-103738000D01*
X242089000Y-103738000D01*
X242089000Y-102683141D01*
X241935869Y-102683164D01*
X241886511Y-102687381D01*
X241706995Y-102769965D01*
X241547040Y-102885984D01*
X241412793Y-103030980D01*
X241309412Y-103199380D01*
X241240871Y-103384713D01*
X241209804Y-103579856D01*
X241181000Y-103579856D01*
X241181000Y-103566064D01*
X241159224Y-103344968D01*
X241073166Y-103061275D01*
X240933417Y-102799821D01*
X240745345Y-102570655D01*
X240516178Y-102382583D01*
X240254724Y-102242834D01*
X239971031Y-102156776D01*
X239676000Y-102127718D01*
X239380968Y-102156776D01*
X239097275Y-102242834D01*
X238835821Y-102382583D01*
X238606655Y-102570655D01*
X238418583Y-102799822D01*
X238406000Y-102823363D01*
X238393417Y-102799821D01*
X238205345Y-102570655D01*
X237976178Y-102382583D01*
X237714724Y-102242834D01*
X237431031Y-102156776D01*
X237136000Y-102127718D01*
X236840968Y-102156776D01*
X236557275Y-102242834D01*
X236295821Y-102382583D01*
X236066655Y-102570655D01*
X235878583Y-102799822D01*
X235738834Y-103061276D01*
X235652776Y-103344969D01*
X235631000Y-103566065D01*
X235600001Y-103566065D01*
X235571129Y-103384713D01*
X235502588Y-103199380D01*
X235399207Y-103030980D01*
X235264960Y-102885984D01*
X235105005Y-102769965D01*
X234925489Y-102687381D01*
X234876131Y-102683164D01*
X234723000Y-102683141D01*
X234723000Y-103738000D01*
X234469000Y-103738000D01*
X234469000Y-102683141D01*
X234315869Y-102683164D01*
X234266511Y-102687381D01*
X234086995Y-102769965D01*
X233927040Y-102885984D01*
X233792793Y-103030980D01*
X233689412Y-103199380D01*
X233620871Y-103384713D01*
X233589804Y-103579856D01*
X233561000Y-103579856D01*
X233561000Y-103566064D01*
X233539224Y-103344968D01*
X233453166Y-103061275D01*
X233313417Y-102799821D01*
X233125345Y-102570655D01*
X232896178Y-102382583D01*
X232634724Y-102242834D01*
X232351031Y-102156776D01*
X232056000Y-102127718D01*
X231760968Y-102156776D01*
X231477275Y-102242834D01*
X231215821Y-102382583D01*
X230986655Y-102570655D01*
X230798583Y-102799822D01*
X230786000Y-102823363D01*
X230773417Y-102799821D01*
X230585345Y-102570655D01*
X230356178Y-102382583D01*
X230094724Y-102242834D01*
X229811031Y-102156776D01*
X229516000Y-102127718D01*
X229220968Y-102156776D01*
X228937275Y-102242834D01*
X228675821Y-102382583D01*
X228446655Y-102570655D01*
X228258583Y-102799822D01*
X228118834Y-103061276D01*
X228032776Y-103344969D01*
X228011000Y-103566065D01*
X227973091Y-103566065D01*
X227973614Y-102770000D01*
X227971162Y-102745104D01*
X227963900Y-102721164D01*
X227952107Y-102699101D01*
X227936237Y-102679763D01*
X227916899Y-102663893D01*
X227894836Y-102652100D01*
X227870896Y-102644838D01*
X227846000Y-102642386D01*
X227134750Y-102643000D01*
X227103000Y-102674750D01*
X226849000Y-102674750D01*
X226817250Y-102643000D01*
X226106000Y-102642386D01*
X226081104Y-102644838D01*
X226057164Y-102652100D01*
X226035101Y-102663893D01*
X226015763Y-102679763D01*
X225999893Y-102699101D01*
X225988100Y-102721164D01*
X225980838Y-102745104D01*
X225978386Y-102770000D01*
X212468944Y-102770000D01*
X212305345Y-102570655D01*
X212076178Y-102382583D01*
X211814724Y-102242834D01*
X211531031Y-102156776D01*
X211236000Y-102127718D01*
X210940968Y-102156776D01*
X210657275Y-102242834D01*
X210395821Y-102382583D01*
X210166655Y-102570655D01*
X209978583Y-102799822D01*
X209966000Y-102823363D01*
X209953417Y-102799821D01*
X209765345Y-102570655D01*
X209536178Y-102382583D01*
X209274724Y-102242834D01*
X208991031Y-102156776D01*
X208696000Y-102127718D01*
X208400968Y-102156776D01*
X208117275Y-102242834D01*
X207855821Y-102382583D01*
X207626655Y-102570655D01*
X207438583Y-102799822D01*
X207426000Y-102823363D01*
X207413417Y-102799821D01*
X207225345Y-102570655D01*
X206996178Y-102382583D01*
X206734724Y-102242834D01*
X206451031Y-102156776D01*
X206156000Y-102127718D01*
X205860968Y-102156776D01*
X205577275Y-102242834D01*
X205315821Y-102382583D01*
X205086655Y-102570655D01*
X205032935Y-102636114D01*
X204974405Y-102526613D01*
X204863962Y-102392038D01*
X204729387Y-102281595D01*
X204575851Y-102199528D01*
X204409255Y-102148992D01*
X204236001Y-102131928D01*
X202995999Y-102131928D01*
X202822745Y-102148992D01*
X202656149Y-102199528D01*
X202502613Y-102281595D01*
X202368038Y-102392038D01*
X202257595Y-102526613D01*
X202175528Y-102680149D01*
X202124992Y-102846745D01*
X202107928Y-103019999D01*
X202107928Y-104710001D01*
X202124992Y-104883255D01*
X202175528Y-105049851D01*
X202257595Y-105203387D01*
X202368038Y-105337962D01*
X202502613Y-105448405D01*
X202656149Y-105530472D01*
X202822745Y-105581008D01*
X202854001Y-105584086D01*
X202854001Y-105676565D01*
X202854000Y-105676574D01*
X202850314Y-105714000D01*
X202854000Y-105751423D01*
X202854001Y-113802288D01*
X202806063Y-113850226D01*
X202692795Y-114019744D01*
X202614774Y-114208102D01*
X202575000Y-114408061D01*
X202575000Y-114611939D01*
X202614774Y-114811898D01*
X202685917Y-114983652D01*
X201156253Y-116513317D01*
X201156248Y-116513321D01*
X198150512Y-119519058D01*
X198147500Y-119488477D01*
X198147500Y-117415411D01*
X198189437Y-117373474D01*
X198302705Y-117203956D01*
X198380726Y-117015598D01*
X198420500Y-116815639D01*
X198420500Y-116611761D01*
X198380726Y-116411802D01*
X198302705Y-116223444D01*
X198189437Y-116053926D01*
X198045274Y-115909763D01*
X197875756Y-115796495D01*
X197687398Y-115718474D01*
X197487439Y-115678700D01*
X197283561Y-115678700D01*
X197083602Y-115718474D01*
X196895244Y-115796495D01*
X196725726Y-115909763D01*
X196581563Y-116053926D01*
X196500804Y-116174790D01*
X196430937Y-116070226D01*
X196286774Y-115926063D01*
X196117256Y-115812795D01*
X195928898Y-115734774D01*
X195728939Y-115695000D01*
X195525061Y-115695000D01*
X195488597Y-115702253D01*
X195517800Y-115555439D01*
X195517800Y-115351561D01*
X195478026Y-115151602D01*
X195400005Y-114963244D01*
X195370400Y-114918937D01*
X195370400Y-110423323D01*
X195371072Y-110416499D01*
X195450180Y-110392502D01*
X195560494Y-110333537D01*
X195657185Y-110254185D01*
X195736537Y-110157494D01*
X195795502Y-110047180D01*
X195831812Y-109927482D01*
X195844072Y-109803000D01*
X195844072Y-108103000D01*
X195831812Y-107978518D01*
X195795502Y-107858820D01*
X195736537Y-107748506D01*
X195657185Y-107651815D01*
X195560494Y-107572463D01*
X195450180Y-107513498D01*
X195330482Y-107477188D01*
X195206000Y-107464928D01*
X193506000Y-107464928D01*
X193381518Y-107477188D01*
X193261820Y-107513498D01*
X193151506Y-107572463D01*
X193086000Y-107626222D01*
X193020494Y-107572463D01*
X192910180Y-107513498D01*
X192790482Y-107477188D01*
X192666000Y-107464928D01*
X190966000Y-107464928D01*
X190841518Y-107477188D01*
X190721820Y-107513498D01*
X190611506Y-107572463D01*
X190514815Y-107651815D01*
X190435463Y-107748506D01*
X190376498Y-107858820D01*
X190340188Y-107978518D01*
X190327928Y-108103000D01*
X190327928Y-109803000D01*
X190340188Y-109927482D01*
X190376498Y-110047180D01*
X190435463Y-110157494D01*
X190514815Y-110254185D01*
X190611506Y-110333537D01*
X190721820Y-110392502D01*
X190841518Y-110428812D01*
X190966000Y-110441072D01*
X191116380Y-110441072D01*
X191179355Y-110558892D01*
X191237917Y-110630249D01*
X191274579Y-110674922D01*
X191303649Y-110698779D01*
X193109100Y-112504231D01*
X193109101Y-113895588D01*
X193067163Y-113937526D01*
X193015170Y-114015339D01*
X188224072Y-109224242D01*
X188224072Y-108103000D01*
X188211812Y-107978518D01*
X188175502Y-107858820D01*
X188116537Y-107748506D01*
X188037185Y-107651815D01*
X187940494Y-107572463D01*
X187830180Y-107513498D01*
X187710482Y-107477188D01*
X187586000Y-107464928D01*
X185886000Y-107464928D01*
X185761518Y-107477188D01*
X185641820Y-107513498D01*
X185531506Y-107572463D01*
X185466000Y-107626222D01*
X185400494Y-107572463D01*
X185290180Y-107513498D01*
X185170482Y-107477188D01*
X185046000Y-107464928D01*
X183346000Y-107464928D01*
X183221518Y-107477188D01*
X183101820Y-107513498D01*
X182991506Y-107572463D01*
X182894815Y-107651815D01*
X182815463Y-107748506D01*
X182756498Y-107858820D01*
X182720188Y-107978518D01*
X182707928Y-108103000D01*
X182707928Y-109803000D01*
X182720188Y-109927482D01*
X182756498Y-110047180D01*
X182815463Y-110157494D01*
X182894815Y-110254185D01*
X182991506Y-110333537D01*
X183101820Y-110392502D01*
X183221518Y-110428812D01*
X183346000Y-110441072D01*
X183496380Y-110441072D01*
X183559355Y-110558892D01*
X183617917Y-110630249D01*
X183654579Y-110674922D01*
X183683649Y-110698779D01*
X192245132Y-119260263D01*
X192232700Y-119322761D01*
X192232700Y-119429300D01*
X173781323Y-119429300D01*
X173743900Y-119425614D01*
X173706477Y-119429300D01*
X173706474Y-119429300D01*
X173594522Y-119440326D01*
X173450885Y-119483898D01*
X173424100Y-119498215D01*
X173318507Y-119554655D01*
X173283221Y-119583614D01*
X173202478Y-119649878D01*
X173178616Y-119678954D01*
X172485770Y-120371800D01*
X172426461Y-120371800D01*
X172226502Y-120411574D01*
X172038144Y-120489595D01*
X171868626Y-120602863D01*
X171724463Y-120747026D01*
X171611195Y-120916544D01*
X171533174Y-121104902D01*
X171493400Y-121304861D01*
X171493400Y-121508739D01*
X171533174Y-121708698D01*
X171611195Y-121897056D01*
X171724463Y-122066574D01*
X171868626Y-122210737D01*
X172038144Y-122324005D01*
X172226502Y-122402026D01*
X172426461Y-122441800D01*
X172630339Y-122441800D01*
X172830298Y-122402026D01*
X173018656Y-122324005D01*
X173188174Y-122210737D01*
X173332337Y-122066574D01*
X173445605Y-121897056D01*
X173523626Y-121708698D01*
X173563400Y-121508739D01*
X173563400Y-121449430D01*
X174059530Y-120953300D01*
X187655400Y-120953300D01*
X187655400Y-121091939D01*
X187695174Y-121291898D01*
X187773195Y-121480256D01*
X187886463Y-121649774D01*
X187928401Y-121691712D01*
X187928400Y-123980377D01*
X187924714Y-124017800D01*
X187928400Y-124055223D01*
X187928400Y-124055225D01*
X187939426Y-124167177D01*
X187982998Y-124310814D01*
X187991111Y-124325992D01*
X188053755Y-124443192D01*
X188072292Y-124465779D01*
X188148978Y-124559222D01*
X188178054Y-124583084D01*
X189057621Y-125462651D01*
X189081478Y-125491722D01*
X189197508Y-125586945D01*
X189329885Y-125657702D01*
X189473522Y-125701274D01*
X189585474Y-125712300D01*
X189585476Y-125712300D01*
X189591442Y-125712888D01*
X189567300Y-125834261D01*
X189567300Y-125893569D01*
X188887654Y-126573216D01*
X188858578Y-126597078D01*
X188802983Y-126664822D01*
X188763355Y-126713108D01*
X188732386Y-126771048D01*
X188692598Y-126845486D01*
X188649026Y-126989123D01*
X188638872Y-127092226D01*
X188634314Y-127138500D01*
X188638000Y-127175923D01*
X188638001Y-138072567D01*
X188634314Y-138110000D01*
X188649027Y-138259378D01*
X188692599Y-138403015D01*
X188763355Y-138535392D01*
X188834721Y-138622351D01*
X188858579Y-138651422D01*
X188887649Y-138675279D01*
X188992371Y-138780001D01*
X159061000Y-138780001D01*
X159061000Y-125355852D01*
X159481000Y-125355852D01*
X159481000Y-125924148D01*
X159591869Y-126481523D01*
X159809346Y-127006560D01*
X160125074Y-127479080D01*
X160526920Y-127880926D01*
X160999440Y-128196654D01*
X161524477Y-128414131D01*
X162081852Y-128525000D01*
X162650148Y-128525000D01*
X163207523Y-128414131D01*
X163732560Y-128196654D01*
X164205080Y-127880926D01*
X164606926Y-127479080D01*
X164922654Y-127006560D01*
X165140131Y-126481523D01*
X165251000Y-125924148D01*
X165251000Y-125355852D01*
X165140131Y-124798477D01*
X164922654Y-124273440D01*
X164606926Y-123800920D01*
X164205080Y-123399074D01*
X163732560Y-123083346D01*
X163207523Y-122865869D01*
X162650148Y-122755000D01*
X162081852Y-122755000D01*
X161524477Y-122865869D01*
X160999440Y-123083346D01*
X160526920Y-123399074D01*
X160125074Y-123800920D01*
X159809346Y-124273440D01*
X159591869Y-124798477D01*
X159481000Y-125355852D01*
X159061000Y-125355852D01*
X159061000Y-108103000D01*
X175087928Y-108103000D01*
X175087928Y-109803000D01*
X175100188Y-109927482D01*
X175136498Y-110047180D01*
X175195463Y-110157494D01*
X175274815Y-110254185D01*
X175371506Y-110333537D01*
X175481820Y-110392502D01*
X175601518Y-110428812D01*
X175726000Y-110441072D01*
X177426000Y-110441072D01*
X177550482Y-110428812D01*
X177670180Y-110392502D01*
X177780494Y-110333537D01*
X177846000Y-110279778D01*
X177911506Y-110333537D01*
X178021820Y-110392502D01*
X178141518Y-110428812D01*
X178266000Y-110441072D01*
X179966000Y-110441072D01*
X180090482Y-110428812D01*
X180210180Y-110392502D01*
X180320494Y-110333537D01*
X180417185Y-110254185D01*
X180496537Y-110157494D01*
X180555502Y-110047180D01*
X180591812Y-109927482D01*
X180604072Y-109803000D01*
X180604072Y-108103000D01*
X180591812Y-107978518D01*
X180555502Y-107858820D01*
X180496537Y-107748506D01*
X180417185Y-107651815D01*
X180320494Y-107572463D01*
X180210180Y-107513498D01*
X180090482Y-107477188D01*
X179966000Y-107464928D01*
X178266000Y-107464928D01*
X178141518Y-107477188D01*
X178021820Y-107513498D01*
X177911506Y-107572463D01*
X177846000Y-107626222D01*
X177780494Y-107572463D01*
X177670180Y-107513498D01*
X177550482Y-107477188D01*
X177426000Y-107464928D01*
X175726000Y-107464928D01*
X175601518Y-107477188D01*
X175481820Y-107513498D01*
X175371506Y-107572463D01*
X175274815Y-107651815D01*
X175195463Y-107748506D01*
X175136498Y-107858820D01*
X175100188Y-107978518D01*
X175087928Y-108103000D01*
X159061000Y-108103000D01*
X159061000Y-104960000D01*
X173038386Y-104960000D01*
X173040838Y-104984896D01*
X173048100Y-105008836D01*
X173059893Y-105030899D01*
X173075763Y-105050237D01*
X173095101Y-105066107D01*
X173117164Y-105077900D01*
X173141104Y-105085162D01*
X173166000Y-105087614D01*
X173877250Y-105087000D01*
X173909000Y-105055250D01*
X173909000Y-103992000D01*
X174163000Y-103992000D01*
X174163000Y-105055250D01*
X174194750Y-105087000D01*
X174906000Y-105087614D01*
X174930896Y-105085162D01*
X174954836Y-105077900D01*
X174976899Y-105066107D01*
X174996237Y-105050237D01*
X175012107Y-105030899D01*
X175023900Y-105008836D01*
X175031162Y-104984896D01*
X175033614Y-104960000D01*
X175033000Y-104023750D01*
X175001250Y-103992000D01*
X174163000Y-103992000D01*
X173909000Y-103992000D01*
X173070750Y-103992000D01*
X173039000Y-104023750D01*
X173038386Y-104960000D01*
X159061000Y-104960000D01*
X159061000Y-102770000D01*
X173038386Y-102770000D01*
X173039000Y-103706250D01*
X173070750Y-103738000D01*
X173909000Y-103738000D01*
X173909000Y-102674750D01*
X174163000Y-102674750D01*
X174163000Y-103738000D01*
X175001250Y-103738000D01*
X175033000Y-103706250D01*
X175033091Y-103566065D01*
X175071000Y-103566065D01*
X175071000Y-104163936D01*
X175092776Y-104385032D01*
X175178834Y-104668725D01*
X175318583Y-104930179D01*
X175506655Y-105159345D01*
X175735822Y-105347417D01*
X175997276Y-105487166D01*
X176280969Y-105573224D01*
X176576000Y-105602282D01*
X176871032Y-105573224D01*
X177154725Y-105487166D01*
X177416179Y-105347417D01*
X177645345Y-105159345D01*
X177833417Y-104930179D01*
X177846000Y-104906638D01*
X177858583Y-104930179D01*
X178046655Y-105159345D01*
X178275822Y-105347417D01*
X178537276Y-105487166D01*
X178820969Y-105573224D01*
X179116000Y-105602282D01*
X179411032Y-105573224D01*
X179694725Y-105487166D01*
X179956179Y-105347417D01*
X180185345Y-105159345D01*
X180373417Y-104930179D01*
X180513166Y-104668724D01*
X180599224Y-104385031D01*
X180621000Y-104163935D01*
X180621000Y-104150144D01*
X180649804Y-104150144D01*
X180680871Y-104345287D01*
X180749412Y-104530620D01*
X180852793Y-104699020D01*
X180987040Y-104844016D01*
X181146995Y-104960035D01*
X181326511Y-105042619D01*
X181375869Y-105046836D01*
X181529000Y-105046859D01*
X181529000Y-103992000D01*
X181783000Y-103992000D01*
X181783000Y-105046859D01*
X181936131Y-105046836D01*
X181985489Y-105042619D01*
X182165005Y-104960035D01*
X182324960Y-104844016D01*
X182459207Y-104699020D01*
X182562588Y-104530620D01*
X182631129Y-104345287D01*
X182662196Y-104150144D01*
X182627467Y-103992000D01*
X181783000Y-103992000D01*
X181529000Y-103992000D01*
X180684533Y-103992000D01*
X180649804Y-104150144D01*
X180621000Y-104150144D01*
X180621000Y-103579856D01*
X180649804Y-103579856D01*
X180684533Y-103738000D01*
X181529000Y-103738000D01*
X181783000Y-103738000D01*
X182627467Y-103738000D01*
X182662196Y-103579856D01*
X182660001Y-103566065D01*
X182691000Y-103566065D01*
X182691000Y-104163936D01*
X182712776Y-104385032D01*
X182798834Y-104668725D01*
X182938583Y-104930179D01*
X183126655Y-105159345D01*
X183355822Y-105347417D01*
X183617276Y-105487166D01*
X183900969Y-105573224D01*
X184196000Y-105602282D01*
X184491032Y-105573224D01*
X184774725Y-105487166D01*
X185036179Y-105347417D01*
X185265345Y-105159345D01*
X185453417Y-104930179D01*
X185466000Y-104906638D01*
X185478583Y-104930179D01*
X185666655Y-105159345D01*
X185895822Y-105347417D01*
X186157276Y-105487166D01*
X186440969Y-105573224D01*
X186736000Y-105602282D01*
X187031032Y-105573224D01*
X187314725Y-105487166D01*
X187576179Y-105347417D01*
X187805345Y-105159345D01*
X187993417Y-104930179D01*
X188133166Y-104668724D01*
X188219224Y-104385031D01*
X188241000Y-104163935D01*
X188241000Y-104150144D01*
X188269804Y-104150144D01*
X188300871Y-104345287D01*
X188369412Y-104530620D01*
X188472793Y-104699020D01*
X188607040Y-104844016D01*
X188766995Y-104960035D01*
X188946511Y-105042619D01*
X188995869Y-105046836D01*
X189149000Y-105046859D01*
X189149000Y-103992000D01*
X189403000Y-103992000D01*
X189403000Y-105046859D01*
X189556131Y-105046836D01*
X189605489Y-105042619D01*
X189785005Y-104960035D01*
X189944960Y-104844016D01*
X190079207Y-104699020D01*
X190182588Y-104530620D01*
X190251129Y-104345287D01*
X190282196Y-104150144D01*
X190247467Y-103992000D01*
X189403000Y-103992000D01*
X189149000Y-103992000D01*
X188304533Y-103992000D01*
X188269804Y-104150144D01*
X188241000Y-104150144D01*
X188241000Y-103579856D01*
X188269804Y-103579856D01*
X188304533Y-103738000D01*
X189149000Y-103738000D01*
X189403000Y-103738000D01*
X190247467Y-103738000D01*
X190282196Y-103579856D01*
X190280001Y-103566065D01*
X190311000Y-103566065D01*
X190311000Y-104163936D01*
X190332776Y-104385032D01*
X190418834Y-104668725D01*
X190558583Y-104930179D01*
X190746655Y-105159345D01*
X190975822Y-105347417D01*
X191237276Y-105487166D01*
X191520969Y-105573224D01*
X191816000Y-105602282D01*
X192111032Y-105573224D01*
X192394725Y-105487166D01*
X192656179Y-105347417D01*
X192885345Y-105159345D01*
X193073417Y-104930179D01*
X193086000Y-104906638D01*
X193098583Y-104930179D01*
X193286655Y-105159345D01*
X193515822Y-105347417D01*
X193777276Y-105487166D01*
X194060969Y-105573224D01*
X194356000Y-105602282D01*
X194651032Y-105573224D01*
X194934725Y-105487166D01*
X195196179Y-105347417D01*
X195425345Y-105159345D01*
X195613417Y-104930179D01*
X195753166Y-104668724D01*
X195839224Y-104385031D01*
X195861000Y-104163935D01*
X195861000Y-104150144D01*
X195889804Y-104150144D01*
X195920871Y-104345287D01*
X195989412Y-104530620D01*
X196092793Y-104699020D01*
X196227040Y-104844016D01*
X196386995Y-104960035D01*
X196566511Y-105042619D01*
X196615869Y-105046836D01*
X196769000Y-105046859D01*
X196769000Y-103992000D01*
X197023000Y-103992000D01*
X197023000Y-105046859D01*
X197176131Y-105046836D01*
X197225489Y-105042619D01*
X197405005Y-104960035D01*
X197564960Y-104844016D01*
X197699207Y-104699020D01*
X197802588Y-104530620D01*
X197871129Y-104345287D01*
X197902196Y-104150144D01*
X197867467Y-103992000D01*
X197023000Y-103992000D01*
X196769000Y-103992000D01*
X195924533Y-103992000D01*
X195889804Y-104150144D01*
X195861000Y-104150144D01*
X195861000Y-103579856D01*
X195889804Y-103579856D01*
X195924533Y-103738000D01*
X196769000Y-103738000D01*
X197023000Y-103738000D01*
X197867467Y-103738000D01*
X197902196Y-103579856D01*
X197871129Y-103384713D01*
X197802588Y-103199380D01*
X197699207Y-103030980D01*
X197564960Y-102885984D01*
X197405005Y-102769965D01*
X197225489Y-102687381D01*
X197176131Y-102683164D01*
X197023000Y-102683141D01*
X197023000Y-103738000D01*
X196769000Y-103738000D01*
X196769000Y-102683141D01*
X196615869Y-102683164D01*
X196566511Y-102687381D01*
X196386995Y-102769965D01*
X196227040Y-102885984D01*
X196092793Y-103030980D01*
X195989412Y-103199380D01*
X195920871Y-103384713D01*
X195889804Y-103579856D01*
X195861000Y-103579856D01*
X195861000Y-103566064D01*
X195839224Y-103344968D01*
X195753166Y-103061275D01*
X195613417Y-102799821D01*
X195425345Y-102570655D01*
X195196178Y-102382583D01*
X194934724Y-102242834D01*
X194651031Y-102156776D01*
X194356000Y-102127718D01*
X194060968Y-102156776D01*
X193777275Y-102242834D01*
X193515821Y-102382583D01*
X193286655Y-102570655D01*
X193098583Y-102799822D01*
X193086000Y-102823363D01*
X193073417Y-102799821D01*
X192885345Y-102570655D01*
X192656178Y-102382583D01*
X192394724Y-102242834D01*
X192111031Y-102156776D01*
X191816000Y-102127718D01*
X191520968Y-102156776D01*
X191237275Y-102242834D01*
X190975821Y-102382583D01*
X190746655Y-102570655D01*
X190558583Y-102799822D01*
X190418834Y-103061276D01*
X190332776Y-103344969D01*
X190311000Y-103566065D01*
X190280001Y-103566065D01*
X190251129Y-103384713D01*
X190182588Y-103199380D01*
X190079207Y-103030980D01*
X189944960Y-102885984D01*
X189785005Y-102769965D01*
X189605489Y-102687381D01*
X189556131Y-102683164D01*
X189403000Y-102683141D01*
X189403000Y-103738000D01*
X189149000Y-103738000D01*
X189149000Y-102683141D01*
X188995869Y-102683164D01*
X188946511Y-102687381D01*
X188766995Y-102769965D01*
X188607040Y-102885984D01*
X188472793Y-103030980D01*
X188369412Y-103199380D01*
X188300871Y-103384713D01*
X188269804Y-103579856D01*
X188241000Y-103579856D01*
X188241000Y-103566064D01*
X188219224Y-103344968D01*
X188133166Y-103061275D01*
X187993417Y-102799821D01*
X187805345Y-102570655D01*
X187576178Y-102382583D01*
X187314724Y-102242834D01*
X187031031Y-102156776D01*
X186736000Y-102127718D01*
X186440968Y-102156776D01*
X186157275Y-102242834D01*
X185895821Y-102382583D01*
X185666655Y-102570655D01*
X185478583Y-102799822D01*
X185466000Y-102823363D01*
X185453417Y-102799821D01*
X185265345Y-102570655D01*
X185036178Y-102382583D01*
X184774724Y-102242834D01*
X184491031Y-102156776D01*
X184196000Y-102127718D01*
X183900968Y-102156776D01*
X183617275Y-102242834D01*
X183355821Y-102382583D01*
X183126655Y-102570655D01*
X182938583Y-102799822D01*
X182798834Y-103061276D01*
X182712776Y-103344969D01*
X182691000Y-103566065D01*
X182660001Y-103566065D01*
X182631129Y-103384713D01*
X182562588Y-103199380D01*
X182459207Y-103030980D01*
X182324960Y-102885984D01*
X182165005Y-102769965D01*
X181985489Y-102687381D01*
X181936131Y-102683164D01*
X181783000Y-102683141D01*
X181783000Y-103738000D01*
X181529000Y-103738000D01*
X181529000Y-102683141D01*
X181375869Y-102683164D01*
X181326511Y-102687381D01*
X181146995Y-102769965D01*
X180987040Y-102885984D01*
X180852793Y-103030980D01*
X180749412Y-103199380D01*
X180680871Y-103384713D01*
X180649804Y-103579856D01*
X180621000Y-103579856D01*
X180621000Y-103566064D01*
X180599224Y-103344968D01*
X180513166Y-103061275D01*
X180373417Y-102799821D01*
X180185345Y-102570655D01*
X179956178Y-102382583D01*
X179694724Y-102242834D01*
X179411031Y-102156776D01*
X179116000Y-102127718D01*
X178820968Y-102156776D01*
X178537275Y-102242834D01*
X178275821Y-102382583D01*
X178046655Y-102570655D01*
X177858583Y-102799822D01*
X177846000Y-102823363D01*
X177833417Y-102799821D01*
X177645345Y-102570655D01*
X177416178Y-102382583D01*
X177154724Y-102242834D01*
X176871031Y-102156776D01*
X176576000Y-102127718D01*
X176280968Y-102156776D01*
X175997275Y-102242834D01*
X175735821Y-102382583D01*
X175506655Y-102570655D01*
X175318583Y-102799822D01*
X175178834Y-103061276D01*
X175092776Y-103344969D01*
X175071000Y-103566065D01*
X175033091Y-103566065D01*
X175033614Y-102770000D01*
X175031162Y-102745104D01*
X175023900Y-102721164D01*
X175012107Y-102699101D01*
X174996237Y-102679763D01*
X174976899Y-102663893D01*
X174954836Y-102652100D01*
X174930896Y-102644838D01*
X174906000Y-102642386D01*
X174194750Y-102643000D01*
X174163000Y-102674750D01*
X173909000Y-102674750D01*
X173877250Y-102643000D01*
X173166000Y-102642386D01*
X173141104Y-102644838D01*
X173117164Y-102652100D01*
X173095101Y-102663893D01*
X173075763Y-102679763D01*
X173059893Y-102699101D01*
X173048100Y-102721164D01*
X173040838Y-102745104D01*
X173038386Y-102770000D01*
X159061000Y-102770000D01*
X159061000Y-100850001D01*
X284291001Y-100850001D01*
X284291000Y-140180001D01*
G37*
X284291000Y-140180001D02*
X252647630Y-140180001D01*
X252987351Y-139840279D01*
X253016422Y-139816422D01*
X253107549Y-139705383D01*
X253306842Y-139787932D01*
X253593740Y-139845000D01*
X253886260Y-139845000D01*
X254173158Y-139787932D01*
X254443411Y-139675990D01*
X254686632Y-139513475D01*
X254893475Y-139306632D01*
X255010000Y-139132240D01*
X255126525Y-139306632D01*
X255333368Y-139513475D01*
X255576589Y-139675990D01*
X255846842Y-139787932D01*
X256133740Y-139845000D01*
X256426260Y-139845000D01*
X256713158Y-139787932D01*
X256983411Y-139675990D01*
X257226632Y-139513475D01*
X257433475Y-139306632D01*
X257550000Y-139132240D01*
X257666525Y-139306632D01*
X257873368Y-139513475D01*
X258116589Y-139675990D01*
X258386842Y-139787932D01*
X258673740Y-139845000D01*
X258966260Y-139845000D01*
X259253158Y-139787932D01*
X259523411Y-139675990D01*
X259766632Y-139513475D01*
X259973475Y-139306632D01*
X260090000Y-139132240D01*
X260206525Y-139306632D01*
X260413368Y-139513475D01*
X260656589Y-139675990D01*
X260926842Y-139787932D01*
X261213740Y-139845000D01*
X261506260Y-139845000D01*
X261793158Y-139787932D01*
X262063411Y-139675990D01*
X262306632Y-139513475D01*
X262513475Y-139306632D01*
X262630000Y-139132240D01*
X262746525Y-139306632D01*
X262953368Y-139513475D01*
X263196589Y-139675990D01*
X263466842Y-139787932D01*
X263753740Y-139845000D01*
X264046260Y-139845000D01*
X264333158Y-139787932D01*
X264603411Y-139675990D01*
X264846632Y-139513475D01*
X265053475Y-139306632D01*
X265215990Y-139063411D01*
X265327932Y-138793158D01*
X265385000Y-138506260D01*
X265385000Y-138213740D01*
X265327932Y-137926842D01*
X265215990Y-137656589D01*
X265053475Y-137413368D01*
X264846632Y-137206525D01*
X264672240Y-137090000D01*
X264846632Y-136973475D01*
X265053475Y-136766632D01*
X265215990Y-136523411D01*
X265327932Y-136253158D01*
X265385000Y-135966260D01*
X265385000Y-135673740D01*
X265327932Y-135386842D01*
X265215990Y-135116589D01*
X265053475Y-134873368D01*
X264846632Y-134666525D01*
X264603411Y-134504010D01*
X264333158Y-134392068D01*
X264046260Y-134335000D01*
X263753740Y-134335000D01*
X263466842Y-134392068D01*
X263196589Y-134504010D01*
X262953368Y-134666525D01*
X262746525Y-134873368D01*
X262630000Y-135047760D01*
X262513475Y-134873368D01*
X262306632Y-134666525D01*
X262063411Y-134504010D01*
X261793158Y-134392068D01*
X261506260Y-134335000D01*
X261213740Y-134335000D01*
X260926842Y-134392068D01*
X260656589Y-134504010D01*
X260413368Y-134666525D01*
X260206525Y-134873368D01*
X260090000Y-135047760D01*
X259973475Y-134873368D01*
X259766632Y-134666525D01*
X259523411Y-134504010D01*
X259484951Y-134488079D01*
X270600479Y-123372552D01*
X270600483Y-123372547D01*
X270936031Y-123037000D01*
X276798289Y-123037000D01*
X276840226Y-123078937D01*
X277009744Y-123192205D01*
X277198102Y-123270226D01*
X277398061Y-123310000D01*
X277601939Y-123310000D01*
X277801898Y-123270226D01*
X277990256Y-123192205D01*
X278159774Y-123078937D01*
X278303937Y-122934774D01*
X278417205Y-122765256D01*
X278495226Y-122576898D01*
X278508000Y-122512677D01*
X278508001Y-124778788D01*
X278466063Y-124820726D01*
X278352795Y-124990244D01*
X278274774Y-125178602D01*
X278235000Y-125378561D01*
X278235000Y-125582439D01*
X278274774Y-125782398D01*
X278352795Y-125970756D01*
X278466063Y-126140274D01*
X278610226Y-126284437D01*
X278779744Y-126397705D01*
X278968102Y-126475726D01*
X279168061Y-126515500D01*
X279371939Y-126515500D01*
X279571898Y-126475726D01*
X279760256Y-126397705D01*
X279929774Y-126284437D01*
X280073937Y-126140274D01*
X280187205Y-125970756D01*
X280265226Y-125782398D01*
X280305000Y-125582439D01*
X280305000Y-125378561D01*
X280265226Y-125178602D01*
X280187205Y-124990244D01*
X280073937Y-124820726D01*
X280032000Y-124778789D01*
X280032000Y-122000622D01*
X280035686Y-121963199D01*
X280030171Y-121907205D01*
X280020974Y-121813822D01*
X279977402Y-121670185D01*
X279906645Y-121537808D01*
X279811422Y-121421778D01*
X279782353Y-121397922D01*
X278199584Y-119815154D01*
X278175722Y-119786078D01*
X278059692Y-119690855D01*
X277927315Y-119620098D01*
X277783678Y-119576526D01*
X277671726Y-119565500D01*
X277671723Y-119565500D01*
X277634300Y-119561814D01*
X277596877Y-119565500D01*
X263740231Y-119565500D01*
X259793662Y-115618931D01*
X259870256Y-115587205D01*
X260039774Y-115473937D01*
X260183937Y-115329774D01*
X260297205Y-115160256D01*
X260375226Y-114971898D01*
X260415000Y-114771939D01*
X260415000Y-114568061D01*
X260375226Y-114368102D01*
X260297205Y-114179744D01*
X260183937Y-114010226D01*
X260039774Y-113866063D01*
X259870256Y-113752795D01*
X259681898Y-113674774D01*
X259481939Y-113635000D01*
X259278061Y-113635000D01*
X259231827Y-113644196D01*
X259054600Y-113466970D01*
X259054600Y-111180023D01*
X259058286Y-111142600D01*
X259054600Y-111105174D01*
X259043574Y-110993222D01*
X259000002Y-110849585D01*
X258929245Y-110717208D01*
X258907500Y-110690712D01*
X258907500Y-110441072D01*
X260346000Y-110441072D01*
X260470482Y-110428812D01*
X260590180Y-110392502D01*
X260700494Y-110333537D01*
X260766000Y-110279778D01*
X260831506Y-110333537D01*
X260941820Y-110392502D01*
X261061518Y-110428812D01*
X261186000Y-110441072D01*
X262886000Y-110441072D01*
X263010482Y-110428812D01*
X263130180Y-110392502D01*
X263240494Y-110333537D01*
X263337185Y-110254185D01*
X263416537Y-110157494D01*
X263475502Y-110047180D01*
X263511812Y-109927482D01*
X263524072Y-109803000D01*
X263524072Y-108103000D01*
X263511812Y-107978518D01*
X263475502Y-107858820D01*
X263416537Y-107748506D01*
X263337185Y-107651815D01*
X263240494Y-107572463D01*
X263130180Y-107513498D01*
X263010482Y-107477188D01*
X262886000Y-107464928D01*
X261186000Y-107464928D01*
X261061518Y-107477188D01*
X260941820Y-107513498D01*
X260831506Y-107572463D01*
X260766000Y-107626222D01*
X260700494Y-107572463D01*
X260590180Y-107513498D01*
X260470482Y-107477188D01*
X260346000Y-107464928D01*
X258907500Y-107464928D01*
X258907500Y-106606500D01*
X263118077Y-106606500D01*
X263155500Y-106610186D01*
X263192923Y-106606500D01*
X263192926Y-106606500D01*
X263304878Y-106595474D01*
X263448515Y-106551902D01*
X263580892Y-106481145D01*
X263696922Y-106385922D01*
X263720784Y-106356846D01*
X264484373Y-105593257D01*
X264576000Y-105602282D01*
X264871032Y-105573224D01*
X265154725Y-105487166D01*
X265416179Y-105347417D01*
X265645345Y-105159345D01*
X265833417Y-104930179D01*
X265973166Y-104668724D01*
X266059224Y-104385031D01*
X266081000Y-104163935D01*
X266081000Y-103566064D01*
X266075661Y-103511852D01*
X268955000Y-103511852D01*
X268955000Y-104080148D01*
X269065869Y-104637523D01*
X269283346Y-105162560D01*
X269599074Y-105635080D01*
X270000920Y-106036926D01*
X270473440Y-106352654D01*
X270998477Y-106570131D01*
X271555852Y-106681000D01*
X272124148Y-106681000D01*
X272681523Y-106570131D01*
X273206560Y-106352654D01*
X273679080Y-106036926D01*
X274080926Y-105635080D01*
X274396654Y-105162560D01*
X274614131Y-104637523D01*
X274725000Y-104080148D01*
X274725000Y-103511852D01*
X274614131Y-102954477D01*
X274396654Y-102429440D01*
X274080926Y-101956920D01*
X273679080Y-101555074D01*
X273206560Y-101239346D01*
X272681523Y-101021869D01*
X272124148Y-100911000D01*
X271555852Y-100911000D01*
X270998477Y-101021869D01*
X270473440Y-101239346D01*
X270000920Y-101555074D01*
X269599074Y-101956920D01*
X269283346Y-102429440D01*
X269065869Y-102954477D01*
X268955000Y-103511852D01*
X266075661Y-103511852D01*
X266059224Y-103344968D01*
X265973166Y-103061275D01*
X265833417Y-102799821D01*
X265645345Y-102570655D01*
X265416178Y-102382583D01*
X265154724Y-102242834D01*
X264871031Y-102156776D01*
X264576000Y-102127718D01*
X264280968Y-102156776D01*
X263997275Y-102242834D01*
X263735821Y-102382583D01*
X263506655Y-102570655D01*
X263318583Y-102799822D01*
X263306000Y-102823363D01*
X263293417Y-102799821D01*
X263105345Y-102570655D01*
X262876178Y-102382583D01*
X262614724Y-102242834D01*
X262331031Y-102156776D01*
X262036000Y-102127718D01*
X261740968Y-102156776D01*
X261457275Y-102242834D01*
X261195821Y-102382583D01*
X260966655Y-102570655D01*
X260778583Y-102799822D01*
X260766000Y-102823363D01*
X260753417Y-102799821D01*
X260565345Y-102570655D01*
X260336178Y-102382583D01*
X260074724Y-102242834D01*
X259791031Y-102156776D01*
X259496000Y-102127718D01*
X259200968Y-102156776D01*
X258917275Y-102242834D01*
X258655821Y-102382583D01*
X258426655Y-102570655D01*
X258372935Y-102636114D01*
X258314405Y-102526613D01*
X258203962Y-102392038D01*
X258069387Y-102281595D01*
X257915851Y-102199528D01*
X257749255Y-102148992D01*
X257576001Y-102131928D01*
X256335999Y-102131928D01*
X256162745Y-102148992D01*
X255996149Y-102199528D01*
X255842613Y-102281595D01*
X255708038Y-102392038D01*
X255597595Y-102526613D01*
X255515528Y-102680149D01*
X255464992Y-102846745D01*
X255447928Y-103019999D01*
X255447928Y-104710001D01*
X255464992Y-104883255D01*
X255515528Y-105049851D01*
X255597595Y-105203387D01*
X255708038Y-105337962D01*
X255842613Y-105448405D01*
X255996149Y-105530472D01*
X256162745Y-105581008D01*
X256335999Y-105598072D01*
X257383500Y-105598072D01*
X257383500Y-105807074D01*
X257379814Y-105844500D01*
X257383500Y-105881925D01*
X257383501Y-110958067D01*
X257379814Y-110995500D01*
X257394527Y-111144878D01*
X257438099Y-111288515D01*
X257508855Y-111420892D01*
X257530600Y-111447388D01*
X257530601Y-113355870D01*
X251192384Y-107017654D01*
X251168522Y-106988578D01*
X251052492Y-106893355D01*
X250920115Y-106822598D01*
X250776478Y-106779026D01*
X250664526Y-106768000D01*
X250664523Y-106768000D01*
X250627100Y-106764314D01*
X250589677Y-106768000D01*
X210767423Y-106768000D01*
X210730000Y-106764314D01*
X210692577Y-106768000D01*
X210692574Y-106768000D01*
X210580622Y-106779026D01*
X210436985Y-106822598D01*
X210375364Y-106855535D01*
X210304607Y-106893355D01*
X210221904Y-106961228D01*
X210188578Y-106988578D01*
X210164721Y-107017648D01*
X209697105Y-107485264D01*
X209670482Y-107477188D01*
X209546000Y-107464928D01*
X207846000Y-107464928D01*
X207721518Y-107477188D01*
X207601820Y-107513498D01*
X207491506Y-107572463D01*
X207426000Y-107626222D01*
X207360494Y-107572463D01*
X207250180Y-107513498D01*
X207130482Y-107477188D01*
X207006000Y-107464928D01*
X205306000Y-107464928D01*
X205181518Y-107477188D01*
X205061820Y-107513498D01*
X204951506Y-107572463D01*
X204854815Y-107651815D01*
X204775463Y-107748506D01*
X204716498Y-107858820D01*
X204680188Y-107978518D01*
X204667928Y-108103000D01*
X204667928Y-109803000D01*
X204680188Y-109927482D01*
X204716498Y-110047180D01*
X204775463Y-110157494D01*
X204854815Y-110254185D01*
X204951506Y-110333537D01*
X205061820Y-110392502D01*
X205181518Y-110428812D01*
X205306000Y-110441072D01*
X207006000Y-110441072D01*
X207130482Y-110428812D01*
X207250180Y-110392502D01*
X207360494Y-110333537D01*
X207426000Y-110279778D01*
X207491506Y-110333537D01*
X207601820Y-110392502D01*
X207721518Y-110428812D01*
X207846000Y-110441072D01*
X209546000Y-110441072D01*
X209670482Y-110428812D01*
X209790180Y-110392502D01*
X209900494Y-110333537D01*
X209997185Y-110254185D01*
X210076537Y-110157494D01*
X210135502Y-110047180D01*
X210171812Y-109927482D01*
X210182890Y-109815000D01*
X218398386Y-109815000D01*
X218400838Y-109839896D01*
X218408100Y-109863836D01*
X218419893Y-109885899D01*
X218435763Y-109905237D01*
X218455101Y-109921107D01*
X218477164Y-109932900D01*
X218501104Y-109940162D01*
X218526000Y-109942614D01*
X219217250Y-109942000D01*
X219249000Y-109910250D01*
X219249000Y-109092000D01*
X219503000Y-109092000D01*
X219503000Y-109910250D01*
X219534750Y-109942000D01*
X220226000Y-109942614D01*
X220250896Y-109940162D01*
X220274836Y-109932900D01*
X220296899Y-109921107D01*
X220316237Y-109905237D01*
X220332107Y-109885899D01*
X220343900Y-109863836D01*
X220351162Y-109839896D01*
X220353614Y-109815000D01*
X220353000Y-109123750D01*
X220321250Y-109092000D01*
X219503000Y-109092000D01*
X219249000Y-109092000D01*
X218430750Y-109092000D01*
X218399000Y-109123750D01*
X218398386Y-109815000D01*
X210182890Y-109815000D01*
X210184072Y-109803000D01*
X210184072Y-109153558D01*
X211045631Y-108292000D01*
X218398543Y-108292000D01*
X218399000Y-108806250D01*
X218430750Y-108838000D01*
X219249000Y-108838000D01*
X219249000Y-108818000D01*
X219503000Y-108818000D01*
X219503000Y-108838000D01*
X220321250Y-108838000D01*
X220353000Y-108806250D01*
X220353457Y-108292000D01*
X228027928Y-108292000D01*
X228027928Y-109803000D01*
X228040188Y-109927482D01*
X228076498Y-110047180D01*
X228135463Y-110157494D01*
X228214815Y-110254185D01*
X228311506Y-110333537D01*
X228421820Y-110392502D01*
X228541518Y-110428812D01*
X228666000Y-110441072D01*
X230366000Y-110441072D01*
X230490482Y-110428812D01*
X230610180Y-110392502D01*
X230720494Y-110333537D01*
X230786000Y-110279778D01*
X230851506Y-110333537D01*
X230961820Y-110392502D01*
X231081518Y-110428812D01*
X231206000Y-110441072D01*
X232906000Y-110441072D01*
X233030482Y-110428812D01*
X233150180Y-110392502D01*
X233260494Y-110333537D01*
X233357185Y-110254185D01*
X233436537Y-110157494D01*
X233495502Y-110047180D01*
X233531812Y-109927482D01*
X233544072Y-109803000D01*
X233544072Y-108292000D01*
X235647928Y-108292000D01*
X235647928Y-109803000D01*
X235660188Y-109927482D01*
X235696498Y-110047180D01*
X235755463Y-110157494D01*
X235834815Y-110254185D01*
X235931506Y-110333537D01*
X236041820Y-110392502D01*
X236161518Y-110428812D01*
X236286000Y-110441072D01*
X237493441Y-110441072D01*
X238323770Y-111271401D01*
X238347628Y-111300472D01*
X238463658Y-111395695D01*
X238596035Y-111466452D01*
X238739672Y-111510024D01*
X238851624Y-111521050D01*
X238851626Y-111521050D01*
X238889049Y-111524736D01*
X238926472Y-111521050D01*
X239853420Y-111521050D01*
X240428950Y-112096581D01*
X240428950Y-112601627D01*
X240425264Y-112639050D01*
X240439977Y-112788428D01*
X240483549Y-112932065D01*
X240554305Y-113064442D01*
X240611339Y-113133937D01*
X240649529Y-113180472D01*
X240678599Y-113204329D01*
X242164370Y-114690100D01*
X233252122Y-114690100D01*
X233214699Y-114686414D01*
X233177276Y-114690100D01*
X233177274Y-114690100D01*
X233065322Y-114701126D01*
X232921685Y-114744698D01*
X232789308Y-114815455D01*
X232673278Y-114910678D01*
X232649421Y-114939748D01*
X228872054Y-118717116D01*
X228842978Y-118740978D01*
X228797003Y-118797000D01*
X228781587Y-118815783D01*
X228609370Y-118988000D01*
X226585292Y-118988000D01*
X226465256Y-118907795D01*
X226276898Y-118829774D01*
X226076939Y-118790000D01*
X225873061Y-118790000D01*
X225673102Y-118829774D01*
X225484744Y-118907795D01*
X225315226Y-119021063D01*
X225171063Y-119165226D01*
X225057795Y-119334744D01*
X224979774Y-119523102D01*
X224940000Y-119723061D01*
X224940000Y-119926939D01*
X224974026Y-120098000D01*
X199909922Y-120098000D01*
X199872499Y-120094314D01*
X199835076Y-120098000D01*
X199835074Y-120098000D01*
X199723122Y-120109026D01*
X199712618Y-120112212D01*
X202233879Y-117590952D01*
X202233883Y-117590947D01*
X204122352Y-115702479D01*
X204151422Y-115678622D01*
X204246645Y-115562592D01*
X204317402Y-115430215D01*
X204360974Y-115286578D01*
X204367949Y-115215762D01*
X204413937Y-115169774D01*
X204527205Y-115000256D01*
X204605226Y-114811898D01*
X204645000Y-114611939D01*
X204645000Y-114408061D01*
X204605226Y-114208102D01*
X204527205Y-114019744D01*
X204413937Y-113850226D01*
X204378000Y-113814289D01*
X204378000Y-106373800D01*
X210150777Y-106373800D01*
X210188200Y-106377486D01*
X210225623Y-106373800D01*
X210225626Y-106373800D01*
X210337578Y-106362774D01*
X210481215Y-106319202D01*
X210613592Y-106248445D01*
X210729622Y-106153222D01*
X210753484Y-106124146D01*
X210923348Y-105954282D01*
X211028822Y-105867722D01*
X211052684Y-105838647D01*
X211294844Y-105596486D01*
X211531032Y-105573224D01*
X211814725Y-105487166D01*
X212076179Y-105347417D01*
X212305345Y-105159345D01*
X212468943Y-104960000D01*
X225978386Y-104960000D01*
X225980838Y-104984896D01*
X225988100Y-105008836D01*
X225999893Y-105030899D01*
X226015763Y-105050237D01*
X226035101Y-105066107D01*
X226057164Y-105077900D01*
X226081104Y-105085162D01*
X226106000Y-105087614D01*
X226817250Y-105087000D01*
X226849000Y-105055250D01*
X226849000Y-103992000D01*
X227103000Y-103992000D01*
X227103000Y-105055250D01*
X227134750Y-105087000D01*
X227846000Y-105087614D01*
X227870896Y-105085162D01*
X227894836Y-105077900D01*
X227916899Y-105066107D01*
X227936237Y-105050237D01*
X227952107Y-105030899D01*
X227963900Y-105008836D01*
X227971162Y-104984896D01*
X227973614Y-104960000D01*
X227973000Y-104023750D01*
X227941250Y-103992000D01*
X227103000Y-103992000D01*
X226849000Y-103992000D01*
X226010750Y-103992000D01*
X225979000Y-104023750D01*
X225978386Y-104960000D01*
X212468943Y-104960000D01*
X212493417Y-104930179D01*
X212633166Y-104668724D01*
X212719224Y-104385031D01*
X212741000Y-104163935D01*
X212741000Y-103566064D01*
X212719224Y-103344968D01*
X212633166Y-103061275D01*
X212493417Y-102799821D01*
X212468944Y-102770000D01*
X225978386Y-102770000D01*
X225979000Y-103706250D01*
X226010750Y-103738000D01*
X226849000Y-103738000D01*
X226849000Y-102674750D01*
X227103000Y-102674750D01*
X227103000Y-103738000D01*
X227941250Y-103738000D01*
X227973000Y-103706250D01*
X227973091Y-103566065D01*
X228011000Y-103566065D01*
X228011000Y-104163936D01*
X228032776Y-104385032D01*
X228118834Y-104668725D01*
X228258583Y-104930179D01*
X228446655Y-105159345D01*
X228675822Y-105347417D01*
X228937276Y-105487166D01*
X229220969Y-105573224D01*
X229516000Y-105602282D01*
X229811032Y-105573224D01*
X230094725Y-105487166D01*
X230356179Y-105347417D01*
X230585345Y-105159345D01*
X230773417Y-104930179D01*
X230786000Y-104906638D01*
X230798583Y-104930179D01*
X230986655Y-105159345D01*
X231215822Y-105347417D01*
X231477276Y-105487166D01*
X231760969Y-105573224D01*
X232056000Y-105602282D01*
X232351032Y-105573224D01*
X232634725Y-105487166D01*
X232896179Y-105347417D01*
X233125345Y-105159345D01*
X233313417Y-104930179D01*
X233453166Y-104668724D01*
X233539224Y-104385031D01*
X233561000Y-104163935D01*
X233561000Y-104150144D01*
X233589804Y-104150144D01*
X233620871Y-104345287D01*
X233689412Y-104530620D01*
X233792793Y-104699020D01*
X233927040Y-104844016D01*
X234086995Y-104960035D01*
X234266511Y-105042619D01*
X234315869Y-105046836D01*
X234469000Y-105046859D01*
X234469000Y-103992000D01*
X234723000Y-103992000D01*
X234723000Y-105046859D01*
X234876131Y-105046836D01*
X234925489Y-105042619D01*
X235105005Y-104960035D01*
X235264960Y-104844016D01*
X235399207Y-104699020D01*
X235502588Y-104530620D01*
X235571129Y-104345287D01*
X235602196Y-104150144D01*
X235567467Y-103992000D01*
X234723000Y-103992000D01*
X234469000Y-103992000D01*
X233624533Y-103992000D01*
X233589804Y-104150144D01*
X233561000Y-104150144D01*
X233561000Y-103579856D01*
X233589804Y-103579856D01*
X233624533Y-103738000D01*
X234469000Y-103738000D01*
X234723000Y-103738000D01*
X235567467Y-103738000D01*
X235602196Y-103579856D01*
X235600001Y-103566065D01*
X235631000Y-103566065D01*
X235631000Y-104163936D01*
X235652776Y-104385032D01*
X235738834Y-104668725D01*
X235878583Y-104930179D01*
X236066655Y-105159345D01*
X236295822Y-105347417D01*
X236557276Y-105487166D01*
X236840969Y-105573224D01*
X237136000Y-105602282D01*
X237431032Y-105573224D01*
X237714725Y-105487166D01*
X237976179Y-105347417D01*
X238205345Y-105159345D01*
X238393417Y-104930179D01*
X238406000Y-104906638D01*
X238418583Y-104930179D01*
X238606655Y-105159345D01*
X238835822Y-105347417D01*
X239097276Y-105487166D01*
X239380969Y-105573224D01*
X239676000Y-105602282D01*
X239971032Y-105573224D01*
X240254725Y-105487166D01*
X240516179Y-105347417D01*
X240745345Y-105159345D01*
X240933417Y-104930179D01*
X241073166Y-104668724D01*
X241159224Y-104385031D01*
X241181000Y-104163935D01*
X241181000Y-104150144D01*
X241209804Y-104150144D01*
X241240871Y-104345287D01*
X241309412Y-104530620D01*
X241412793Y-104699020D01*
X241547040Y-104844016D01*
X241706995Y-104960035D01*
X241886511Y-105042619D01*
X241935869Y-105046836D01*
X242089000Y-105046859D01*
X242089000Y-103992000D01*
X242343000Y-103992000D01*
X242343000Y-105046859D01*
X242496131Y-105046836D01*
X242545489Y-105042619D01*
X242725005Y-104960035D01*
X242884960Y-104844016D01*
X243019207Y-104699020D01*
X243122588Y-104530620D01*
X243191129Y-104345287D01*
X243222196Y-104150144D01*
X243187467Y-103992000D01*
X242343000Y-103992000D01*
X242089000Y-103992000D01*
X241244533Y-103992000D01*
X241209804Y-104150144D01*
X241181000Y-104150144D01*
X241181000Y-103579856D01*
X241209804Y-103579856D01*
X241244533Y-103738000D01*
X242089000Y-103738000D01*
X242343000Y-103738000D01*
X243187467Y-103738000D01*
X243222196Y-103579856D01*
X243220001Y-103566065D01*
X243251000Y-103566065D01*
X243251000Y-104163936D01*
X243272776Y-104385032D01*
X243358834Y-104668725D01*
X243498583Y-104930179D01*
X243686655Y-105159345D01*
X243915822Y-105347417D01*
X244177276Y-105487166D01*
X244460969Y-105573224D01*
X244756000Y-105602282D01*
X245051032Y-105573224D01*
X245334725Y-105487166D01*
X245596179Y-105347417D01*
X245825345Y-105159345D01*
X246013417Y-104930179D01*
X246026000Y-104906638D01*
X246038583Y-104930179D01*
X246226655Y-105159345D01*
X246455822Y-105347417D01*
X246717276Y-105487166D01*
X247000969Y-105573224D01*
X247296000Y-105602282D01*
X247591032Y-105573224D01*
X247874725Y-105487166D01*
X248136179Y-105347417D01*
X248365345Y-105159345D01*
X248553417Y-104930179D01*
X248693166Y-104668724D01*
X248779224Y-104385031D01*
X248801000Y-104163935D01*
X248801000Y-104150144D01*
X248829804Y-104150144D01*
X248860871Y-104345287D01*
X248929412Y-104530620D01*
X249032793Y-104699020D01*
X249167040Y-104844016D01*
X249326995Y-104960035D01*
X249506511Y-105042619D01*
X249555869Y-105046836D01*
X249709000Y-105046859D01*
X249709000Y-103992000D01*
X249963000Y-103992000D01*
X249963000Y-105046859D01*
X250116131Y-105046836D01*
X250165489Y-105042619D01*
X250345005Y-104960035D01*
X250504960Y-104844016D01*
X250639207Y-104699020D01*
X250742588Y-104530620D01*
X250811129Y-104345287D01*
X250842196Y-104150144D01*
X250807467Y-103992000D01*
X249963000Y-103992000D01*
X249709000Y-103992000D01*
X248864533Y-103992000D01*
X248829804Y-104150144D01*
X248801000Y-104150144D01*
X248801000Y-103579856D01*
X248829804Y-103579856D01*
X248864533Y-103738000D01*
X249709000Y-103738000D01*
X249963000Y-103738000D01*
X250807467Y-103738000D01*
X250842196Y-103579856D01*
X250811129Y-103384713D01*
X250742588Y-103199380D01*
X250639207Y-103030980D01*
X250504960Y-102885984D01*
X250345005Y-102769965D01*
X250165489Y-102687381D01*
X250116131Y-102683164D01*
X249963000Y-102683141D01*
X249963000Y-103738000D01*
X249709000Y-103738000D01*
X249709000Y-102683141D01*
X249555869Y-102683164D01*
X249506511Y-102687381D01*
X249326995Y-102769965D01*
X249167040Y-102885984D01*
X249032793Y-103030980D01*
X248929412Y-103199380D01*
X248860871Y-103384713D01*
X248829804Y-103579856D01*
X248801000Y-103579856D01*
X248801000Y-103566064D01*
X248779224Y-103344968D01*
X248693166Y-103061275D01*
X248553417Y-102799821D01*
X248365345Y-102570655D01*
X248136178Y-102382583D01*
X247874724Y-102242834D01*
X247591031Y-102156776D01*
X247296000Y-102127718D01*
X247000968Y-102156776D01*
X246717275Y-102242834D01*
X246455821Y-102382583D01*
X246226655Y-102570655D01*
X246038583Y-102799822D01*
X246026000Y-102823363D01*
X246013417Y-102799821D01*
X245825345Y-102570655D01*
X245596178Y-102382583D01*
X245334724Y-102242834D01*
X245051031Y-102156776D01*
X244756000Y-102127718D01*
X244460968Y-102156776D01*
X244177275Y-102242834D01*
X243915821Y-102382583D01*
X243686655Y-102570655D01*
X243498583Y-102799822D01*
X243358834Y-103061276D01*
X243272776Y-103344969D01*
X243251000Y-103566065D01*
X243220001Y-103566065D01*
X243191129Y-103384713D01*
X243122588Y-103199380D01*
X243019207Y-103030980D01*
X242884960Y-102885984D01*
X242725005Y-102769965D01*
X242545489Y-102687381D01*
X242496131Y-102683164D01*
X242343000Y-102683141D01*
X242343000Y-103738000D01*
X242089000Y-103738000D01*
X242089000Y-102683141D01*
X241935869Y-102683164D01*
X241886511Y-102687381D01*
X241706995Y-102769965D01*
X241547040Y-102885984D01*
X241412793Y-103030980D01*
X241309412Y-103199380D01*
X241240871Y-103384713D01*
X241209804Y-103579856D01*
X241181000Y-103579856D01*
X241181000Y-103566064D01*
X241159224Y-103344968D01*
X241073166Y-103061275D01*
X240933417Y-102799821D01*
X240745345Y-102570655D01*
X240516178Y-102382583D01*
X240254724Y-102242834D01*
X239971031Y-102156776D01*
X239676000Y-102127718D01*
X239380968Y-102156776D01*
X239097275Y-102242834D01*
X238835821Y-102382583D01*
X238606655Y-102570655D01*
X238418583Y-102799822D01*
X238406000Y-102823363D01*
X238393417Y-102799821D01*
X238205345Y-102570655D01*
X237976178Y-102382583D01*
X237714724Y-102242834D01*
X237431031Y-102156776D01*
X237136000Y-102127718D01*
X236840968Y-102156776D01*
X236557275Y-102242834D01*
X236295821Y-102382583D01*
X236066655Y-102570655D01*
X235878583Y-102799822D01*
X235738834Y-103061276D01*
X235652776Y-103344969D01*
X235631000Y-103566065D01*
X235600001Y-103566065D01*
X235571129Y-103384713D01*
X235502588Y-103199380D01*
X235399207Y-103030980D01*
X235264960Y-102885984D01*
X235105005Y-102769965D01*
X234925489Y-102687381D01*
X234876131Y-102683164D01*
X234723000Y-102683141D01*
X234723000Y-103738000D01*
X234469000Y-103738000D01*
X234469000Y-102683141D01*
X234315869Y-102683164D01*
X234266511Y-102687381D01*
X234086995Y-102769965D01*
X233927040Y-102885984D01*
X233792793Y-103030980D01*
X233689412Y-103199380D01*
X233620871Y-103384713D01*
X233589804Y-103579856D01*
X233561000Y-103579856D01*
X233561000Y-103566064D01*
X233539224Y-103344968D01*
X233453166Y-103061275D01*
X233313417Y-102799821D01*
X233125345Y-102570655D01*
X232896178Y-102382583D01*
X232634724Y-102242834D01*
X232351031Y-102156776D01*
X232056000Y-102127718D01*
X231760968Y-102156776D01*
X231477275Y-102242834D01*
X231215821Y-102382583D01*
X230986655Y-102570655D01*
X230798583Y-102799822D01*
X230786000Y-102823363D01*
X230773417Y-102799821D01*
X230585345Y-102570655D01*
X230356178Y-102382583D01*
X230094724Y-102242834D01*
X229811031Y-102156776D01*
X229516000Y-102127718D01*
X229220968Y-102156776D01*
X228937275Y-102242834D01*
X228675821Y-102382583D01*
X228446655Y-102570655D01*
X228258583Y-102799822D01*
X228118834Y-103061276D01*
X228032776Y-103344969D01*
X228011000Y-103566065D01*
X227973091Y-103566065D01*
X227973614Y-102770000D01*
X227971162Y-102745104D01*
X227963900Y-102721164D01*
X227952107Y-102699101D01*
X227936237Y-102679763D01*
X227916899Y-102663893D01*
X227894836Y-102652100D01*
X227870896Y-102644838D01*
X227846000Y-102642386D01*
X227134750Y-102643000D01*
X227103000Y-102674750D01*
X226849000Y-102674750D01*
X226817250Y-102643000D01*
X226106000Y-102642386D01*
X226081104Y-102644838D01*
X226057164Y-102652100D01*
X226035101Y-102663893D01*
X226015763Y-102679763D01*
X225999893Y-102699101D01*
X225988100Y-102721164D01*
X225980838Y-102745104D01*
X225978386Y-102770000D01*
X212468944Y-102770000D01*
X212305345Y-102570655D01*
X212076178Y-102382583D01*
X211814724Y-102242834D01*
X211531031Y-102156776D01*
X211236000Y-102127718D01*
X210940968Y-102156776D01*
X210657275Y-102242834D01*
X210395821Y-102382583D01*
X210166655Y-102570655D01*
X209978583Y-102799822D01*
X209966000Y-102823363D01*
X209953417Y-102799821D01*
X209765345Y-102570655D01*
X209536178Y-102382583D01*
X209274724Y-102242834D01*
X208991031Y-102156776D01*
X208696000Y-102127718D01*
X208400968Y-102156776D01*
X208117275Y-102242834D01*
X207855821Y-102382583D01*
X207626655Y-102570655D01*
X207438583Y-102799822D01*
X207426000Y-102823363D01*
X207413417Y-102799821D01*
X207225345Y-102570655D01*
X206996178Y-102382583D01*
X206734724Y-102242834D01*
X206451031Y-102156776D01*
X206156000Y-102127718D01*
X205860968Y-102156776D01*
X205577275Y-102242834D01*
X205315821Y-102382583D01*
X205086655Y-102570655D01*
X205032935Y-102636114D01*
X204974405Y-102526613D01*
X204863962Y-102392038D01*
X204729387Y-102281595D01*
X204575851Y-102199528D01*
X204409255Y-102148992D01*
X204236001Y-102131928D01*
X202995999Y-102131928D01*
X202822745Y-102148992D01*
X202656149Y-102199528D01*
X202502613Y-102281595D01*
X202368038Y-102392038D01*
X202257595Y-102526613D01*
X202175528Y-102680149D01*
X202124992Y-102846745D01*
X202107928Y-103019999D01*
X202107928Y-104710001D01*
X202124992Y-104883255D01*
X202175528Y-105049851D01*
X202257595Y-105203387D01*
X202368038Y-105337962D01*
X202502613Y-105448405D01*
X202656149Y-105530472D01*
X202822745Y-105581008D01*
X202854001Y-105584086D01*
X202854001Y-105676565D01*
X202854000Y-105676574D01*
X202850314Y-105714000D01*
X202854000Y-105751423D01*
X202854001Y-113802288D01*
X202806063Y-113850226D01*
X202692795Y-114019744D01*
X202614774Y-114208102D01*
X202575000Y-114408061D01*
X202575000Y-114611939D01*
X202614774Y-114811898D01*
X202685917Y-114983652D01*
X201156253Y-116513317D01*
X201156248Y-116513321D01*
X198150512Y-119519058D01*
X198147500Y-119488477D01*
X198147500Y-117415411D01*
X198189437Y-117373474D01*
X198302705Y-117203956D01*
X198380726Y-117015598D01*
X198420500Y-116815639D01*
X198420500Y-116611761D01*
X198380726Y-116411802D01*
X198302705Y-116223444D01*
X198189437Y-116053926D01*
X198045274Y-115909763D01*
X197875756Y-115796495D01*
X197687398Y-115718474D01*
X197487439Y-115678700D01*
X197283561Y-115678700D01*
X197083602Y-115718474D01*
X196895244Y-115796495D01*
X196725726Y-115909763D01*
X196581563Y-116053926D01*
X196500804Y-116174790D01*
X196430937Y-116070226D01*
X196286774Y-115926063D01*
X196117256Y-115812795D01*
X195928898Y-115734774D01*
X195728939Y-115695000D01*
X195525061Y-115695000D01*
X195488597Y-115702253D01*
X195517800Y-115555439D01*
X195517800Y-115351561D01*
X195478026Y-115151602D01*
X195400005Y-114963244D01*
X195370400Y-114918937D01*
X195370400Y-110423323D01*
X195371072Y-110416499D01*
X195450180Y-110392502D01*
X195560494Y-110333537D01*
X195657185Y-110254185D01*
X195736537Y-110157494D01*
X195795502Y-110047180D01*
X195831812Y-109927482D01*
X195844072Y-109803000D01*
X195844072Y-108103000D01*
X195831812Y-107978518D01*
X195795502Y-107858820D01*
X195736537Y-107748506D01*
X195657185Y-107651815D01*
X195560494Y-107572463D01*
X195450180Y-107513498D01*
X195330482Y-107477188D01*
X195206000Y-107464928D01*
X193506000Y-107464928D01*
X193381518Y-107477188D01*
X193261820Y-107513498D01*
X193151506Y-107572463D01*
X193086000Y-107626222D01*
X193020494Y-107572463D01*
X192910180Y-107513498D01*
X192790482Y-107477188D01*
X192666000Y-107464928D01*
X190966000Y-107464928D01*
X190841518Y-107477188D01*
X190721820Y-107513498D01*
X190611506Y-107572463D01*
X190514815Y-107651815D01*
X190435463Y-107748506D01*
X190376498Y-107858820D01*
X190340188Y-107978518D01*
X190327928Y-108103000D01*
X190327928Y-109803000D01*
X190340188Y-109927482D01*
X190376498Y-110047180D01*
X190435463Y-110157494D01*
X190514815Y-110254185D01*
X190611506Y-110333537D01*
X190721820Y-110392502D01*
X190841518Y-110428812D01*
X190966000Y-110441072D01*
X191116380Y-110441072D01*
X191179355Y-110558892D01*
X191237917Y-110630249D01*
X191274579Y-110674922D01*
X191303649Y-110698779D01*
X193109100Y-112504231D01*
X193109101Y-113895588D01*
X193067163Y-113937526D01*
X193015170Y-114015339D01*
X188224072Y-109224242D01*
X188224072Y-108103000D01*
X188211812Y-107978518D01*
X188175502Y-107858820D01*
X188116537Y-107748506D01*
X188037185Y-107651815D01*
X187940494Y-107572463D01*
X187830180Y-107513498D01*
X187710482Y-107477188D01*
X187586000Y-107464928D01*
X185886000Y-107464928D01*
X185761518Y-107477188D01*
X185641820Y-107513498D01*
X185531506Y-107572463D01*
X185466000Y-107626222D01*
X185400494Y-107572463D01*
X185290180Y-107513498D01*
X185170482Y-107477188D01*
X185046000Y-107464928D01*
X183346000Y-107464928D01*
X183221518Y-107477188D01*
X183101820Y-107513498D01*
X182991506Y-107572463D01*
X182894815Y-107651815D01*
X182815463Y-107748506D01*
X182756498Y-107858820D01*
X182720188Y-107978518D01*
X182707928Y-108103000D01*
X182707928Y-109803000D01*
X182720188Y-109927482D01*
X182756498Y-110047180D01*
X182815463Y-110157494D01*
X182894815Y-110254185D01*
X182991506Y-110333537D01*
X183101820Y-110392502D01*
X183221518Y-110428812D01*
X183346000Y-110441072D01*
X183496380Y-110441072D01*
X183559355Y-110558892D01*
X183617917Y-110630249D01*
X183654579Y-110674922D01*
X183683649Y-110698779D01*
X192245132Y-119260263D01*
X192232700Y-119322761D01*
X192232700Y-119429300D01*
X173781323Y-119429300D01*
X173743900Y-119425614D01*
X173706477Y-119429300D01*
X173706474Y-119429300D01*
X173594522Y-119440326D01*
X173450885Y-119483898D01*
X173424100Y-119498215D01*
X173318507Y-119554655D01*
X173283221Y-119583614D01*
X173202478Y-119649878D01*
X173178616Y-119678954D01*
X172485770Y-120371800D01*
X172426461Y-120371800D01*
X172226502Y-120411574D01*
X172038144Y-120489595D01*
X171868626Y-120602863D01*
X171724463Y-120747026D01*
X171611195Y-120916544D01*
X171533174Y-121104902D01*
X171493400Y-121304861D01*
X171493400Y-121508739D01*
X171533174Y-121708698D01*
X171611195Y-121897056D01*
X171724463Y-122066574D01*
X171868626Y-122210737D01*
X172038144Y-122324005D01*
X172226502Y-122402026D01*
X172426461Y-122441800D01*
X172630339Y-122441800D01*
X172830298Y-122402026D01*
X173018656Y-122324005D01*
X173188174Y-122210737D01*
X173332337Y-122066574D01*
X173445605Y-121897056D01*
X173523626Y-121708698D01*
X173563400Y-121508739D01*
X173563400Y-121449430D01*
X174059530Y-120953300D01*
X187655400Y-120953300D01*
X187655400Y-121091939D01*
X187695174Y-121291898D01*
X187773195Y-121480256D01*
X187886463Y-121649774D01*
X187928401Y-121691712D01*
X187928400Y-123980377D01*
X187924714Y-124017800D01*
X187928400Y-124055223D01*
X187928400Y-124055225D01*
X187939426Y-124167177D01*
X187982998Y-124310814D01*
X187991111Y-124325992D01*
X188053755Y-124443192D01*
X188072292Y-124465779D01*
X188148978Y-124559222D01*
X188178054Y-124583084D01*
X189057621Y-125462651D01*
X189081478Y-125491722D01*
X189197508Y-125586945D01*
X189329885Y-125657702D01*
X189473522Y-125701274D01*
X189585474Y-125712300D01*
X189585476Y-125712300D01*
X189591442Y-125712888D01*
X189567300Y-125834261D01*
X189567300Y-125893569D01*
X188887654Y-126573216D01*
X188858578Y-126597078D01*
X188802983Y-126664822D01*
X188763355Y-126713108D01*
X188732386Y-126771048D01*
X188692598Y-126845486D01*
X188649026Y-126989123D01*
X188638872Y-127092226D01*
X188634314Y-127138500D01*
X188638000Y-127175923D01*
X188638001Y-138072567D01*
X188634314Y-138110000D01*
X188649027Y-138259378D01*
X188692599Y-138403015D01*
X188763355Y-138535392D01*
X188834721Y-138622351D01*
X188858579Y-138651422D01*
X188887649Y-138675279D01*
X188992371Y-138780001D01*
X159061000Y-138780001D01*
X159061000Y-125355852D01*
X159481000Y-125355852D01*
X159481000Y-125924148D01*
X159591869Y-126481523D01*
X159809346Y-127006560D01*
X160125074Y-127479080D01*
X160526920Y-127880926D01*
X160999440Y-128196654D01*
X161524477Y-128414131D01*
X162081852Y-128525000D01*
X162650148Y-128525000D01*
X163207523Y-128414131D01*
X163732560Y-128196654D01*
X164205080Y-127880926D01*
X164606926Y-127479080D01*
X164922654Y-127006560D01*
X165140131Y-126481523D01*
X165251000Y-125924148D01*
X165251000Y-125355852D01*
X165140131Y-124798477D01*
X164922654Y-124273440D01*
X164606926Y-123800920D01*
X164205080Y-123399074D01*
X163732560Y-123083346D01*
X163207523Y-122865869D01*
X162650148Y-122755000D01*
X162081852Y-122755000D01*
X161524477Y-122865869D01*
X160999440Y-123083346D01*
X160526920Y-123399074D01*
X160125074Y-123800920D01*
X159809346Y-124273440D01*
X159591869Y-124798477D01*
X159481000Y-125355852D01*
X159061000Y-125355852D01*
X159061000Y-108103000D01*
X175087928Y-108103000D01*
X175087928Y-109803000D01*
X175100188Y-109927482D01*
X175136498Y-110047180D01*
X175195463Y-110157494D01*
X175274815Y-110254185D01*
X175371506Y-110333537D01*
X175481820Y-110392502D01*
X175601518Y-110428812D01*
X175726000Y-110441072D01*
X177426000Y-110441072D01*
X177550482Y-110428812D01*
X177670180Y-110392502D01*
X177780494Y-110333537D01*
X177846000Y-110279778D01*
X177911506Y-110333537D01*
X178021820Y-110392502D01*
X178141518Y-110428812D01*
X178266000Y-110441072D01*
X179966000Y-110441072D01*
X180090482Y-110428812D01*
X180210180Y-110392502D01*
X180320494Y-110333537D01*
X180417185Y-110254185D01*
X180496537Y-110157494D01*
X180555502Y-110047180D01*
X180591812Y-109927482D01*
X180604072Y-109803000D01*
X180604072Y-108103000D01*
X180591812Y-107978518D01*
X180555502Y-107858820D01*
X180496537Y-107748506D01*
X180417185Y-107651815D01*
X180320494Y-107572463D01*
X180210180Y-107513498D01*
X180090482Y-107477188D01*
X179966000Y-107464928D01*
X178266000Y-107464928D01*
X178141518Y-107477188D01*
X178021820Y-107513498D01*
X177911506Y-107572463D01*
X177846000Y-107626222D01*
X177780494Y-107572463D01*
X177670180Y-107513498D01*
X177550482Y-107477188D01*
X177426000Y-107464928D01*
X175726000Y-107464928D01*
X175601518Y-107477188D01*
X175481820Y-107513498D01*
X175371506Y-107572463D01*
X175274815Y-107651815D01*
X175195463Y-107748506D01*
X175136498Y-107858820D01*
X175100188Y-107978518D01*
X175087928Y-108103000D01*
X159061000Y-108103000D01*
X159061000Y-104960000D01*
X173038386Y-104960000D01*
X173040838Y-104984896D01*
X173048100Y-105008836D01*
X173059893Y-105030899D01*
X173075763Y-105050237D01*
X173095101Y-105066107D01*
X173117164Y-105077900D01*
X173141104Y-105085162D01*
X173166000Y-105087614D01*
X173877250Y-105087000D01*
X173909000Y-105055250D01*
X173909000Y-103992000D01*
X174163000Y-103992000D01*
X174163000Y-105055250D01*
X174194750Y-105087000D01*
X174906000Y-105087614D01*
X174930896Y-105085162D01*
X174954836Y-105077900D01*
X174976899Y-105066107D01*
X174996237Y-105050237D01*
X175012107Y-105030899D01*
X175023900Y-105008836D01*
X175031162Y-104984896D01*
X175033614Y-104960000D01*
X175033000Y-104023750D01*
X175001250Y-103992000D01*
X174163000Y-103992000D01*
X173909000Y-103992000D01*
X173070750Y-103992000D01*
X173039000Y-104023750D01*
X173038386Y-104960000D01*
X159061000Y-104960000D01*
X159061000Y-102770000D01*
X173038386Y-102770000D01*
X173039000Y-103706250D01*
X173070750Y-103738000D01*
X173909000Y-103738000D01*
X173909000Y-102674750D01*
X174163000Y-102674750D01*
X174163000Y-103738000D01*
X175001250Y-103738000D01*
X175033000Y-103706250D01*
X175033091Y-103566065D01*
X175071000Y-103566065D01*
X175071000Y-104163936D01*
X175092776Y-104385032D01*
X175178834Y-104668725D01*
X175318583Y-104930179D01*
X175506655Y-105159345D01*
X175735822Y-105347417D01*
X175997276Y-105487166D01*
X176280969Y-105573224D01*
X176576000Y-105602282D01*
X176871032Y-105573224D01*
X177154725Y-105487166D01*
X177416179Y-105347417D01*
X177645345Y-105159345D01*
X177833417Y-104930179D01*
X177846000Y-104906638D01*
X177858583Y-104930179D01*
X178046655Y-105159345D01*
X178275822Y-105347417D01*
X178537276Y-105487166D01*
X178820969Y-105573224D01*
X179116000Y-105602282D01*
X179411032Y-105573224D01*
X179694725Y-105487166D01*
X179956179Y-105347417D01*
X180185345Y-105159345D01*
X180373417Y-104930179D01*
X180513166Y-104668724D01*
X180599224Y-104385031D01*
X180621000Y-104163935D01*
X180621000Y-104150144D01*
X180649804Y-104150144D01*
X180680871Y-104345287D01*
X180749412Y-104530620D01*
X180852793Y-104699020D01*
X180987040Y-104844016D01*
X181146995Y-104960035D01*
X181326511Y-105042619D01*
X181375869Y-105046836D01*
X181529000Y-105046859D01*
X181529000Y-103992000D01*
X181783000Y-103992000D01*
X181783000Y-105046859D01*
X181936131Y-105046836D01*
X181985489Y-105042619D01*
X182165005Y-104960035D01*
X182324960Y-104844016D01*
X182459207Y-104699020D01*
X182562588Y-104530620D01*
X182631129Y-104345287D01*
X182662196Y-104150144D01*
X182627467Y-103992000D01*
X181783000Y-103992000D01*
X181529000Y-103992000D01*
X180684533Y-103992000D01*
X180649804Y-104150144D01*
X180621000Y-104150144D01*
X180621000Y-103579856D01*
X180649804Y-103579856D01*
X180684533Y-103738000D01*
X181529000Y-103738000D01*
X181783000Y-103738000D01*
X182627467Y-103738000D01*
X182662196Y-103579856D01*
X182660001Y-103566065D01*
X182691000Y-103566065D01*
X182691000Y-104163936D01*
X182712776Y-104385032D01*
X182798834Y-104668725D01*
X182938583Y-104930179D01*
X183126655Y-105159345D01*
X183355822Y-105347417D01*
X183617276Y-105487166D01*
X183900969Y-105573224D01*
X184196000Y-105602282D01*
X184491032Y-105573224D01*
X184774725Y-105487166D01*
X185036179Y-105347417D01*
X185265345Y-105159345D01*
X185453417Y-104930179D01*
X185466000Y-104906638D01*
X185478583Y-104930179D01*
X185666655Y-105159345D01*
X185895822Y-105347417D01*
X186157276Y-105487166D01*
X186440969Y-105573224D01*
X186736000Y-105602282D01*
X187031032Y-105573224D01*
X187314725Y-105487166D01*
X187576179Y-105347417D01*
X187805345Y-105159345D01*
X187993417Y-104930179D01*
X188133166Y-104668724D01*
X188219224Y-104385031D01*
X188241000Y-104163935D01*
X188241000Y-104150144D01*
X188269804Y-104150144D01*
X188300871Y-104345287D01*
X188369412Y-104530620D01*
X188472793Y-104699020D01*
X188607040Y-104844016D01*
X188766995Y-104960035D01*
X188946511Y-105042619D01*
X188995869Y-105046836D01*
X189149000Y-105046859D01*
X189149000Y-103992000D01*
X189403000Y-103992000D01*
X189403000Y-105046859D01*
X189556131Y-105046836D01*
X189605489Y-105042619D01*
X189785005Y-104960035D01*
X189944960Y-104844016D01*
X190079207Y-104699020D01*
X190182588Y-104530620D01*
X190251129Y-104345287D01*
X190282196Y-104150144D01*
X190247467Y-103992000D01*
X189403000Y-103992000D01*
X189149000Y-103992000D01*
X188304533Y-103992000D01*
X188269804Y-104150144D01*
X188241000Y-104150144D01*
X188241000Y-103579856D01*
X188269804Y-103579856D01*
X188304533Y-103738000D01*
X189149000Y-103738000D01*
X189403000Y-103738000D01*
X190247467Y-103738000D01*
X190282196Y-103579856D01*
X190280001Y-103566065D01*
X190311000Y-103566065D01*
X190311000Y-104163936D01*
X190332776Y-104385032D01*
X190418834Y-104668725D01*
X190558583Y-104930179D01*
X190746655Y-105159345D01*
X190975822Y-105347417D01*
X191237276Y-105487166D01*
X191520969Y-105573224D01*
X191816000Y-105602282D01*
X192111032Y-105573224D01*
X192394725Y-105487166D01*
X192656179Y-105347417D01*
X192885345Y-105159345D01*
X193073417Y-104930179D01*
X193086000Y-104906638D01*
X193098583Y-104930179D01*
X193286655Y-105159345D01*
X193515822Y-105347417D01*
X193777276Y-105487166D01*
X194060969Y-105573224D01*
X194356000Y-105602282D01*
X194651032Y-105573224D01*
X194934725Y-105487166D01*
X195196179Y-105347417D01*
X195425345Y-105159345D01*
X195613417Y-104930179D01*
X195753166Y-104668724D01*
X195839224Y-104385031D01*
X195861000Y-104163935D01*
X195861000Y-104150144D01*
X195889804Y-104150144D01*
X195920871Y-104345287D01*
X195989412Y-104530620D01*
X196092793Y-104699020D01*
X196227040Y-104844016D01*
X196386995Y-104960035D01*
X196566511Y-105042619D01*
X196615869Y-105046836D01*
X196769000Y-105046859D01*
X196769000Y-103992000D01*
X197023000Y-103992000D01*
X197023000Y-105046859D01*
X197176131Y-105046836D01*
X197225489Y-105042619D01*
X197405005Y-104960035D01*
X197564960Y-104844016D01*
X197699207Y-104699020D01*
X197802588Y-104530620D01*
X197871129Y-104345287D01*
X197902196Y-104150144D01*
X197867467Y-103992000D01*
X197023000Y-103992000D01*
X196769000Y-103992000D01*
X195924533Y-103992000D01*
X195889804Y-104150144D01*
X195861000Y-104150144D01*
X195861000Y-103579856D01*
X195889804Y-103579856D01*
X195924533Y-103738000D01*
X196769000Y-103738000D01*
X197023000Y-103738000D01*
X197867467Y-103738000D01*
X197902196Y-103579856D01*
X197871129Y-103384713D01*
X197802588Y-103199380D01*
X197699207Y-103030980D01*
X197564960Y-102885984D01*
X197405005Y-102769965D01*
X197225489Y-102687381D01*
X197176131Y-102683164D01*
X197023000Y-102683141D01*
X197023000Y-103738000D01*
X196769000Y-103738000D01*
X196769000Y-102683141D01*
X196615869Y-102683164D01*
X196566511Y-102687381D01*
X196386995Y-102769965D01*
X196227040Y-102885984D01*
X196092793Y-103030980D01*
X195989412Y-103199380D01*
X195920871Y-103384713D01*
X195889804Y-103579856D01*
X195861000Y-103579856D01*
X195861000Y-103566064D01*
X195839224Y-103344968D01*
X195753166Y-103061275D01*
X195613417Y-102799821D01*
X195425345Y-102570655D01*
X195196178Y-102382583D01*
X194934724Y-102242834D01*
X194651031Y-102156776D01*
X194356000Y-102127718D01*
X194060968Y-102156776D01*
X193777275Y-102242834D01*
X193515821Y-102382583D01*
X193286655Y-102570655D01*
X193098583Y-102799822D01*
X193086000Y-102823363D01*
X193073417Y-102799821D01*
X192885345Y-102570655D01*
X192656178Y-102382583D01*
X192394724Y-102242834D01*
X192111031Y-102156776D01*
X191816000Y-102127718D01*
X191520968Y-102156776D01*
X191237275Y-102242834D01*
X190975821Y-102382583D01*
X190746655Y-102570655D01*
X190558583Y-102799822D01*
X190418834Y-103061276D01*
X190332776Y-103344969D01*
X190311000Y-103566065D01*
X190280001Y-103566065D01*
X190251129Y-103384713D01*
X190182588Y-103199380D01*
X190079207Y-103030980D01*
X189944960Y-102885984D01*
X189785005Y-102769965D01*
X189605489Y-102687381D01*
X189556131Y-102683164D01*
X189403000Y-102683141D01*
X189403000Y-103738000D01*
X189149000Y-103738000D01*
X189149000Y-102683141D01*
X188995869Y-102683164D01*
X188946511Y-102687381D01*
X188766995Y-102769965D01*
X188607040Y-102885984D01*
X188472793Y-103030980D01*
X188369412Y-103199380D01*
X188300871Y-103384713D01*
X188269804Y-103579856D01*
X188241000Y-103579856D01*
X188241000Y-103566064D01*
X188219224Y-103344968D01*
X188133166Y-103061275D01*
X187993417Y-102799821D01*
X187805345Y-102570655D01*
X187576178Y-102382583D01*
X187314724Y-102242834D01*
X187031031Y-102156776D01*
X186736000Y-102127718D01*
X186440968Y-102156776D01*
X186157275Y-102242834D01*
X185895821Y-102382583D01*
X185666655Y-102570655D01*
X185478583Y-102799822D01*
X185466000Y-102823363D01*
X185453417Y-102799821D01*
X185265345Y-102570655D01*
X185036178Y-102382583D01*
X184774724Y-102242834D01*
X184491031Y-102156776D01*
X184196000Y-102127718D01*
X183900968Y-102156776D01*
X183617275Y-102242834D01*
X183355821Y-102382583D01*
X183126655Y-102570655D01*
X182938583Y-102799822D01*
X182798834Y-103061276D01*
X182712776Y-103344969D01*
X182691000Y-103566065D01*
X182660001Y-103566065D01*
X182631129Y-103384713D01*
X182562588Y-103199380D01*
X182459207Y-103030980D01*
X182324960Y-102885984D01*
X182165005Y-102769965D01*
X181985489Y-102687381D01*
X181936131Y-102683164D01*
X181783000Y-102683141D01*
X181783000Y-103738000D01*
X181529000Y-103738000D01*
X181529000Y-102683141D01*
X181375869Y-102683164D01*
X181326511Y-102687381D01*
X181146995Y-102769965D01*
X180987040Y-102885984D01*
X180852793Y-103030980D01*
X180749412Y-103199380D01*
X180680871Y-103384713D01*
X180649804Y-103579856D01*
X180621000Y-103579856D01*
X180621000Y-103566064D01*
X180599224Y-103344968D01*
X180513166Y-103061275D01*
X180373417Y-102799821D01*
X180185345Y-102570655D01*
X179956178Y-102382583D01*
X179694724Y-102242834D01*
X179411031Y-102156776D01*
X179116000Y-102127718D01*
X178820968Y-102156776D01*
X178537275Y-102242834D01*
X178275821Y-102382583D01*
X178046655Y-102570655D01*
X177858583Y-102799822D01*
X177846000Y-102823363D01*
X177833417Y-102799821D01*
X177645345Y-102570655D01*
X177416178Y-102382583D01*
X177154724Y-102242834D01*
X176871031Y-102156776D01*
X176576000Y-102127718D01*
X176280968Y-102156776D01*
X175997275Y-102242834D01*
X175735821Y-102382583D01*
X175506655Y-102570655D01*
X175318583Y-102799822D01*
X175178834Y-103061276D01*
X175092776Y-103344969D01*
X175071000Y-103566065D01*
X175033091Y-103566065D01*
X175033614Y-102770000D01*
X175031162Y-102745104D01*
X175023900Y-102721164D01*
X175012107Y-102699101D01*
X174996237Y-102679763D01*
X174976899Y-102663893D01*
X174954836Y-102652100D01*
X174930896Y-102644838D01*
X174906000Y-102642386D01*
X174194750Y-102643000D01*
X174163000Y-102674750D01*
X173909000Y-102674750D01*
X173877250Y-102643000D01*
X173166000Y-102642386D01*
X173141104Y-102644838D01*
X173117164Y-102652100D01*
X173095101Y-102663893D01*
X173075763Y-102679763D01*
X173059893Y-102699101D01*
X173048100Y-102721164D01*
X173040838Y-102745104D01*
X173038386Y-102770000D01*
X159061000Y-102770000D01*
X159061000Y-100850001D01*
X284291001Y-100850001D01*
X284291000Y-140180001D01*
G36*
X245095079Y-134744814D02*
G01*
X244966525Y-134873368D01*
X244804010Y-135116589D01*
X244692068Y-135386842D01*
X244635000Y-135673740D01*
X244635000Y-135966260D01*
X244692068Y-136253158D01*
X244804010Y-136523411D01*
X244966525Y-136766632D01*
X245173368Y-136973475D01*
X245231001Y-137011984D01*
X245231000Y-137168016D01*
X245173368Y-137206525D01*
X244966525Y-137413368D01*
X244804010Y-137656589D01*
X244692068Y-137926842D01*
X244635000Y-138213740D01*
X244635000Y-138506260D01*
X244692068Y-138793158D01*
X244778987Y-139003000D01*
X244311452Y-139003000D01*
X244339611Y-138974439D01*
X244444886Y-138814440D01*
X244516924Y-138636977D01*
X244516968Y-138487000D01*
X243707000Y-138487000D01*
X243707000Y-138507000D01*
X243453000Y-138507000D01*
X243453000Y-138487000D01*
X242643032Y-138487000D01*
X242643076Y-138636977D01*
X242715114Y-138814440D01*
X242820389Y-138974439D01*
X242848548Y-139003000D01*
X242528072Y-139003000D01*
X242528072Y-138233000D01*
X242643032Y-138233000D01*
X243453000Y-138233000D01*
X243453000Y-137423320D01*
X243707000Y-137423320D01*
X243707000Y-138233000D01*
X244516968Y-138233000D01*
X244516924Y-138083023D01*
X244444886Y-137905560D01*
X244339611Y-137745561D01*
X244205144Y-137609175D01*
X244046653Y-137501642D01*
X243870229Y-137427096D01*
X243856976Y-137423084D01*
X243707000Y-137423320D01*
X243453000Y-137423320D01*
X243303024Y-137423084D01*
X243289771Y-137427096D01*
X243113347Y-137501642D01*
X242954856Y-137609175D01*
X242820389Y-137745561D01*
X242715114Y-137905560D01*
X242643076Y-138083023D01*
X242643032Y-138233000D01*
X242528072Y-138233000D01*
X242528072Y-137510000D01*
X242515812Y-137385518D01*
X242479502Y-137265820D01*
X242420537Y-137155506D01*
X242341185Y-137058815D01*
X242244494Y-136979463D01*
X242134180Y-136920498D01*
X242061620Y-136898487D01*
X242193475Y-136766632D01*
X242355990Y-136523411D01*
X242467932Y-136253158D01*
X242525000Y-135966260D01*
X242525000Y-135947000D01*
X242643032Y-135947000D01*
X242643076Y-136096977D01*
X242715114Y-136274440D01*
X242820389Y-136434439D01*
X242954856Y-136570825D01*
X243113347Y-136678358D01*
X243289771Y-136752904D01*
X243303024Y-136756916D01*
X243453000Y-136756680D01*
X243453000Y-135947000D01*
X243707000Y-135947000D01*
X243707000Y-136756680D01*
X243856976Y-136756916D01*
X243870229Y-136752904D01*
X244046653Y-136678358D01*
X244205144Y-136570825D01*
X244339611Y-136434439D01*
X244444886Y-136274440D01*
X244516924Y-136096977D01*
X244516968Y-135947000D01*
X243707000Y-135947000D01*
X243453000Y-135947000D01*
X242643032Y-135947000D01*
X242525000Y-135947000D01*
X242525000Y-135693000D01*
X242643032Y-135693000D01*
X243453000Y-135693000D01*
X243453000Y-134883320D01*
X243707000Y-134883320D01*
X243707000Y-135693000D01*
X244516968Y-135693000D01*
X244516924Y-135543023D01*
X244444886Y-135365560D01*
X244339611Y-135205561D01*
X244205144Y-135069175D01*
X244046653Y-134961642D01*
X243870229Y-134887096D01*
X243856976Y-134883084D01*
X243707000Y-134883320D01*
X243453000Y-134883320D01*
X243303024Y-134883084D01*
X243289771Y-134887096D01*
X243113347Y-134961642D01*
X242954856Y-135069175D01*
X242820389Y-135205561D01*
X242715114Y-135365560D01*
X242643076Y-135543023D01*
X242643032Y-135693000D01*
X242525000Y-135693000D01*
X242525000Y-135673740D01*
X242467932Y-135386842D01*
X242355990Y-135116589D01*
X242193475Y-134873368D01*
X241986632Y-134666525D01*
X241795789Y-134539008D01*
X241790974Y-134490122D01*
X241747402Y-134346485D01*
X241742988Y-134338226D01*
X241719883Y-134295000D01*
X241676645Y-134214108D01*
X241581422Y-134098078D01*
X241552352Y-134074221D01*
X238912601Y-131434471D01*
X238637000Y-131158870D01*
X238637000Y-128286735D01*
X245095079Y-134744814D01*
G37*
X245095079Y-134744814D02*
X244966525Y-134873368D01*
X244804010Y-135116589D01*
X244692068Y-135386842D01*
X244635000Y-135673740D01*
X244635000Y-135966260D01*
X244692068Y-136253158D01*
X244804010Y-136523411D01*
X244966525Y-136766632D01*
X245173368Y-136973475D01*
X245231001Y-137011984D01*
X245231000Y-137168016D01*
X245173368Y-137206525D01*
X244966525Y-137413368D01*
X244804010Y-137656589D01*
X244692068Y-137926842D01*
X244635000Y-138213740D01*
X244635000Y-138506260D01*
X244692068Y-138793158D01*
X244778987Y-139003000D01*
X244311452Y-139003000D01*
X244339611Y-138974439D01*
X244444886Y-138814440D01*
X244516924Y-138636977D01*
X244516968Y-138487000D01*
X243707000Y-138487000D01*
X243707000Y-138507000D01*
X243453000Y-138507000D01*
X243453000Y-138487000D01*
X242643032Y-138487000D01*
X242643076Y-138636977D01*
X242715114Y-138814440D01*
X242820389Y-138974439D01*
X242848548Y-139003000D01*
X242528072Y-139003000D01*
X242528072Y-138233000D01*
X242643032Y-138233000D01*
X243453000Y-138233000D01*
X243453000Y-137423320D01*
X243707000Y-137423320D01*
X243707000Y-138233000D01*
X244516968Y-138233000D01*
X244516924Y-138083023D01*
X244444886Y-137905560D01*
X244339611Y-137745561D01*
X244205144Y-137609175D01*
X244046653Y-137501642D01*
X243870229Y-137427096D01*
X243856976Y-137423084D01*
X243707000Y-137423320D01*
X243453000Y-137423320D01*
X243303024Y-137423084D01*
X243289771Y-137427096D01*
X243113347Y-137501642D01*
X242954856Y-137609175D01*
X242820389Y-137745561D01*
X242715114Y-137905560D01*
X242643076Y-138083023D01*
X242643032Y-138233000D01*
X242528072Y-138233000D01*
X242528072Y-137510000D01*
X242515812Y-137385518D01*
X242479502Y-137265820D01*
X242420537Y-137155506D01*
X242341185Y-137058815D01*
X242244494Y-136979463D01*
X242134180Y-136920498D01*
X242061620Y-136898487D01*
X242193475Y-136766632D01*
X242355990Y-136523411D01*
X242467932Y-136253158D01*
X242525000Y-135966260D01*
X242525000Y-135947000D01*
X242643032Y-135947000D01*
X242643076Y-136096977D01*
X242715114Y-136274440D01*
X242820389Y-136434439D01*
X242954856Y-136570825D01*
X243113347Y-136678358D01*
X243289771Y-136752904D01*
X243303024Y-136756916D01*
X243453000Y-136756680D01*
X243453000Y-135947000D01*
X243707000Y-135947000D01*
X243707000Y-136756680D01*
X243856976Y-136756916D01*
X243870229Y-136752904D01*
X244046653Y-136678358D01*
X244205144Y-136570825D01*
X244339611Y-136434439D01*
X244444886Y-136274440D01*
X244516924Y-136096977D01*
X244516968Y-135947000D01*
X243707000Y-135947000D01*
X243453000Y-135947000D01*
X242643032Y-135947000D01*
X242525000Y-135947000D01*
X242525000Y-135693000D01*
X242643032Y-135693000D01*
X243453000Y-135693000D01*
X243453000Y-134883320D01*
X243707000Y-134883320D01*
X243707000Y-135693000D01*
X244516968Y-135693000D01*
X244516924Y-135543023D01*
X244444886Y-135365560D01*
X244339611Y-135205561D01*
X244205144Y-135069175D01*
X244046653Y-134961642D01*
X243870229Y-134887096D01*
X243856976Y-134883084D01*
X243707000Y-134883320D01*
X243453000Y-134883320D01*
X243303024Y-134883084D01*
X243289771Y-134887096D01*
X243113347Y-134961642D01*
X242954856Y-135069175D01*
X242820389Y-135205561D01*
X242715114Y-135365560D01*
X242643076Y-135543023D01*
X242643032Y-135693000D01*
X242525000Y-135693000D01*
X242525000Y-135673740D01*
X242467932Y-135386842D01*
X242355990Y-135116589D01*
X242193475Y-134873368D01*
X241986632Y-134666525D01*
X241795789Y-134539008D01*
X241790974Y-134490122D01*
X241747402Y-134346485D01*
X241742988Y-134338226D01*
X241719883Y-134295000D01*
X241676645Y-134214108D01*
X241581422Y-134098078D01*
X241552352Y-134074221D01*
X238912601Y-131434471D01*
X238637000Y-131158870D01*
X238637000Y-128286735D01*
X245095079Y-134744814D01*
G36*
X194704068Y-137124842D02*
G01*
X194647000Y-137411740D01*
X194647000Y-137704260D01*
X194690321Y-137922048D01*
X194414370Y-138198000D01*
X194326410Y-138198000D01*
X194351611Y-138172439D01*
X194456886Y-138012440D01*
X194528924Y-137834977D01*
X194528968Y-137685000D01*
X193719000Y-137685000D01*
X193719000Y-137705000D01*
X193465000Y-137705000D01*
X193465000Y-137685000D01*
X192655032Y-137685000D01*
X192655076Y-137834977D01*
X192727114Y-138012440D01*
X192832389Y-138172439D01*
X192857590Y-138198000D01*
X192394256Y-138198000D01*
X192479932Y-137991158D01*
X192537000Y-137704260D01*
X192537000Y-137570630D01*
X192676631Y-137431000D01*
X193465000Y-137431000D01*
X193465000Y-137411000D01*
X193719000Y-137411000D01*
X193719000Y-137431000D01*
X194528968Y-137431000D01*
X194528924Y-137281023D01*
X194456886Y-137103560D01*
X194429541Y-137062000D01*
X194730098Y-137062000D01*
X194704068Y-137124842D01*
G37*
X194704068Y-137124842D02*
X194647000Y-137411740D01*
X194647000Y-137704260D01*
X194690321Y-137922048D01*
X194414370Y-138198000D01*
X194326410Y-138198000D01*
X194351611Y-138172439D01*
X194456886Y-138012440D01*
X194528924Y-137834977D01*
X194528968Y-137685000D01*
X193719000Y-137685000D01*
X193719000Y-137705000D01*
X193465000Y-137705000D01*
X193465000Y-137685000D01*
X192655032Y-137685000D01*
X192655076Y-137834977D01*
X192727114Y-138012440D01*
X192832389Y-138172439D01*
X192857590Y-138198000D01*
X192394256Y-138198000D01*
X192479932Y-137991158D01*
X192537000Y-137704260D01*
X192537000Y-137570630D01*
X192676631Y-137431000D01*
X193465000Y-137431000D01*
X193465000Y-137411000D01*
X193719000Y-137411000D01*
X193719000Y-137431000D01*
X194528968Y-137431000D01*
X194528924Y-137281023D01*
X194456886Y-137103560D01*
X194429541Y-137062000D01*
X194730098Y-137062000D01*
X194704068Y-137124842D01*
M02*
