M48
; DRILL file {KiCad 5.1.6-c6e7f7d~86~ubuntu16.04.1} date Thu Jul 30 19:45:07 2020
; FORMAT={-:-/ absolute / metric / decimal}
; #@! TF.CreationDate,2020-07-30T19:45:07-03:00
; #@! TF.GenerationSoftware,Kicad,Pcbnew,5.1.6-c6e7f7d~86~ubuntu16.04.1
FMAT,2
METRIC
T1C0.400
T2C1.000
T3C1.190
T4C4.000
%
G90
G05
T1
X172.528Y-121.407
X188.672Y-112.814
X188.69Y-120.99
X189.542Y-121.789
X189.63Y-123.901
X190.602Y-125.936
X191.623Y-126.097
X193.268Y-119.425
X193.871Y-114.597
X194.483Y-115.453
X195.627Y-116.73
X196.458Y-119.419
X197.385Y-116.714
X200.884Y-121.804
X203.61Y-114.51
X219.65Y-124.025
X225.975Y-119.825
X234.477Y-116.675
X237.875Y-125.695
X242.07Y-112.33
X242.57Y-124.924
X242.642Y-121.518
X248.369Y-119.696
X248.78Y-116.994
X250.041Y-119.724
X251.707Y-117.762
X259.38Y-114.67
X277.5Y-122.275
X279.27Y-125.48
T2
X232.056Y-108.953
X229.516Y-108.953
X179.116Y-108.953
X186.736Y-108.953
X208.696Y-108.953
X247.296Y-108.953
X176.576Y-108.953
X224.455Y-134.295
X191.816Y-108.953
X184.196Y-108.953
X259.496Y-108.953
X219.376Y-108.965
X244.756Y-108.953
X239.676Y-108.953
X262.036Y-108.953
X191.052Y-135.018
X191.052Y-137.558
X193.592Y-135.018
X193.592Y-137.558
X196.132Y-135.018
X196.132Y-137.558
X237.136Y-108.953
X206.156Y-108.953
X219.97Y-134.295
X228.94Y-134.295
X194.356Y-108.953
X241.04Y-135.82
X241.04Y-138.36
X243.58Y-135.82
X243.58Y-138.36
X246.12Y-135.82
X246.12Y-138.36
X248.66Y-135.82
X248.66Y-138.36
X251.2Y-135.82
X251.2Y-138.36
X253.74Y-135.82
X253.74Y-138.36
X256.28Y-135.82
X256.28Y-138.36
X258.82Y-135.82
X258.82Y-138.36
X261.36Y-135.82
X261.36Y-138.36
X263.9Y-135.82
X263.9Y-138.36
T3
X226.976Y-103.865
X229.516Y-103.865
X232.056Y-103.865
X234.596Y-103.865
X237.136Y-103.865
X239.676Y-103.865
X242.216Y-103.865
X244.756Y-103.865
X247.296Y-103.865
X249.836Y-103.865
X203.616Y-103.865
X206.156Y-103.865
X208.696Y-103.865
X211.236Y-103.865
X174.036Y-103.865
X176.576Y-103.865
X179.116Y-103.865
X181.656Y-103.865
X184.196Y-103.865
X186.736Y-103.865
X189.276Y-103.865
X191.816Y-103.865
X194.356Y-103.865
X196.896Y-103.865
X256.956Y-103.865
X259.496Y-103.865
X262.036Y-103.865
X264.576Y-103.865
T4
X271.84Y-103.796
X162.366Y-125.64
T0
M30
