M48
; DRILL file {KiCad 5.1.6-c6e7f7d~86~ubuntu16.04.1} date Thu Aug 20 00:49:05 2020
; FORMAT={-:-/ absolute / metric / decimal}
; #@! TF.CreationDate,2020-08-20T00:49:05-03:00
; #@! TF.GenerationSoftware,Kicad,Pcbnew,5.1.6-c6e7f7d~86~ubuntu16.04.1
FMAT,2
METRIC
T1C0.400
T2C1.000
T3C1.190
T4C4.000
%
G90
G05
T1
X176.311Y-119.812
X181.57Y-116.652
X187.991Y-118.444
X189.566Y-120.98
X189.635Y-124.829
X192.419Y-124.664
X192.712Y-119.454
X194.468Y-114.591
X196.024Y-116.598
X196.636Y-115.77
X196.893Y-119.463
X198.759Y-118.073
X200.659Y-119.636
X218.683Y-121.399
X230.417Y-131.721
X237.296Y-119.509
X241.58Y-122.48
X241.924Y-116.956
X245.699Y-132.528
X247.257Y-125.635
X248.44Y-113.15
X249.419Y-125.031
X249.947Y-120.931
X251.303Y-118.48
X253.015Y-119.42
X254.928Y-127.769
X257.142Y-116.722
X257.817Y-119.997
X258.183Y-116.724
X258.276Y-120.98
X259.224Y-116.276
T2
X196.078Y-108.453
X243.598Y-108.453
X224.212Y-135.695
X180.838Y-108.453
X241.04Y-135.82
X241.04Y-138.36
X243.58Y-135.82
X243.58Y-138.36
X246.12Y-135.82
X246.12Y-138.36
X248.66Y-135.82
X248.66Y-138.36
X251.2Y-135.82
X251.2Y-138.36
X253.74Y-135.82
X253.74Y-138.36
X256.28Y-135.82
X256.28Y-138.36
X258.82Y-135.82
X258.82Y-138.36
X261.36Y-135.82
X261.36Y-138.36
X263.9Y-135.82
X263.9Y-138.36
X215.242Y-135.695
X256.298Y-108.453
X191.052Y-135.018
X191.052Y-137.558
X193.592Y-135.018
X193.592Y-137.558
X196.132Y-135.018
X196.132Y-137.558
X190.998Y-108.453
X198.618Y-108.453
X188.458Y-108.453
X248.678Y-108.453
X219.778Y-108.453
X258.838Y-108.453
X251.218Y-108.453
X241.058Y-108.453
X183.378Y-108.453
X219.727Y-135.695
T3
X238.518Y-103.365
X241.058Y-103.365
X243.598Y-103.365
X246.138Y-103.365
X248.678Y-103.365
X251.218Y-103.365
X253.758Y-103.365
X256.298Y-103.365
X258.838Y-103.365
X261.378Y-103.365
X178.298Y-103.365
X180.838Y-103.365
X183.378Y-103.365
X185.918Y-103.365
X188.458Y-103.365
X190.998Y-103.365
X193.538Y-103.365
X196.078Y-103.365
X198.618Y-103.365
X201.158Y-103.365
T4
X162.366Y-125.64
X271.84Y-103.796
T0
M30
