G04 #@! TF.GenerationSoftware,KiCad,Pcbnew,5.1.6-c6e7f7d~86~ubuntu16.04.1*
G04 #@! TF.CreationDate,2020-07-30T20:45:57-03:00*
G04 #@! TF.ProjectId,principal_sm13,7072696e-6369-4706-916c-5f736d31332e,rev?*
G04 #@! TF.SameCoordinates,Original*
G04 #@! TF.FileFunction,Soldermask,Bot*
G04 #@! TF.FilePolarity,Negative*
%FSLAX46Y46*%
G04 Gerber Fmt 4.6, Leading zero omitted, Abs format (unit mm)*
G04 Created by KiCad (PCBNEW 5.1.6-c6e7f7d~86~ubuntu16.04.1) date 2020-07-30 20:45:57*
%MOMM*%
%LPD*%
G01*
G04 APERTURE LIST*
%ADD10R,1.750800X1.750800*%
%ADD11O,1.790800X2.240800*%
%ADD12O,1.750800X1.750800*%
%ADD13C,4.550800*%
G04 APERTURE END LIST*
D10*
X208696000Y-108953000D03*
X206156000Y-108953000D03*
X262036000Y-108953000D03*
X259496000Y-108953000D03*
X219376000Y-108965000D03*
X179116000Y-108953000D03*
X176576000Y-108953000D03*
X184196000Y-108953000D03*
X186736000Y-108953000D03*
X194356000Y-108953000D03*
X191816000Y-108953000D03*
X232056000Y-108953000D03*
X229516000Y-108953000D03*
X237136000Y-108953000D03*
X239676000Y-108953000D03*
X247296000Y-108953000D03*
X244756000Y-108953000D03*
X228940000Y-134295000D03*
X224455000Y-134295000D03*
X219970000Y-134295000D03*
D11*
X211236000Y-103865000D03*
X208696000Y-103865000D03*
X206156000Y-103865000D03*
G36*
G01*
X202720600Y-104728102D02*
X202720600Y-103001898D01*
G75*
G02*
X202977898Y-102744600I257298J0D01*
G01*
X204254102Y-102744600D01*
G75*
G02*
X204511400Y-103001898I0J-257298D01*
G01*
X204511400Y-104728102D01*
G75*
G02*
X204254102Y-104985400I-257298J0D01*
G01*
X202977898Y-104985400D01*
G75*
G02*
X202720600Y-104728102I0J257298D01*
G01*
G37*
X264576000Y-103865000D03*
X262036000Y-103865000D03*
X259496000Y-103865000D03*
G36*
G01*
X256060600Y-104728102D02*
X256060600Y-103001898D01*
G75*
G02*
X256317898Y-102744600I257298J0D01*
G01*
X257594102Y-102744600D01*
G75*
G02*
X257851400Y-103001898I0J-257298D01*
G01*
X257851400Y-104728102D01*
G75*
G02*
X257594102Y-104985400I-257298J0D01*
G01*
X256317898Y-104985400D01*
G75*
G02*
X256060600Y-104728102I0J257298D01*
G01*
G37*
X196896000Y-103865000D03*
X194356000Y-103865000D03*
X191816000Y-103865000D03*
X189276000Y-103865000D03*
X186736000Y-103865000D03*
X184196000Y-103865000D03*
X181656000Y-103865000D03*
X179116000Y-103865000D03*
X176576000Y-103865000D03*
G36*
G01*
X173140600Y-104728102D02*
X173140600Y-103001898D01*
G75*
G02*
X173397898Y-102744600I257298J0D01*
G01*
X174674102Y-102744600D01*
G75*
G02*
X174931400Y-103001898I0J-257298D01*
G01*
X174931400Y-104728102D01*
G75*
G02*
X174674102Y-104985400I-257298J0D01*
G01*
X173397898Y-104985400D01*
G75*
G02*
X173140600Y-104728102I0J257298D01*
G01*
G37*
X249836000Y-103865000D03*
X247296000Y-103865000D03*
X244756000Y-103865000D03*
X242216000Y-103865000D03*
X239676000Y-103865000D03*
X237136000Y-103865000D03*
X234596000Y-103865000D03*
X232056000Y-103865000D03*
X229516000Y-103865000D03*
G36*
G01*
X226080600Y-104728102D02*
X226080600Y-103001898D01*
G75*
G02*
X226337898Y-102744600I257298J0D01*
G01*
X227614102Y-102744600D01*
G75*
G02*
X227871400Y-103001898I0J-257298D01*
G01*
X227871400Y-104728102D01*
G75*
G02*
X227614102Y-104985400I-257298J0D01*
G01*
X226337898Y-104985400D01*
G75*
G02*
X226080600Y-104728102I0J257298D01*
G01*
G37*
D12*
X191052000Y-137558000D03*
X191052000Y-135018000D03*
X193592000Y-137558000D03*
X193592000Y-135018000D03*
X196132000Y-137558000D03*
D10*
X196132000Y-135018000D03*
X241040000Y-138360000D03*
D12*
X241040000Y-135820000D03*
X243580000Y-138360000D03*
X243580000Y-135820000D03*
X246120000Y-138360000D03*
X246120000Y-135820000D03*
X248660000Y-138360000D03*
X248660000Y-135820000D03*
X251200000Y-138360000D03*
X251200000Y-135820000D03*
X253740000Y-138360000D03*
X253740000Y-135820000D03*
X256280000Y-138360000D03*
X256280000Y-135820000D03*
X258820000Y-138360000D03*
X258820000Y-135820000D03*
X261360000Y-138360000D03*
X261360000Y-135820000D03*
X263900000Y-138360000D03*
X263900000Y-135820000D03*
D13*
X162366000Y-125640000D03*
X271840000Y-103796000D03*
M02*
