G04 #@! TF.GenerationSoftware,KiCad,Pcbnew,5.1.6-c6e7f7d~86~ubuntu16.04.1*
G04 #@! TF.CreationDate,2020-08-20T00:43:52-03:00*
G04 #@! TF.ProjectId,principal_sm13,7072696e-6369-4706-916c-5f736d31332e,rev?*
G04 #@! TF.SameCoordinates,Original*
G04 #@! TF.FileFunction,Soldermask,Top*
G04 #@! TF.FilePolarity,Negative*
%FSLAX46Y46*%
G04 Gerber Fmt 4.6, Leading zero omitted, Abs format (unit mm)*
G04 Created by KiCad (PCBNEW 5.1.6-c6e7f7d~86~ubuntu16.04.1) date 2020-08-20 00:43:52*
%MOMM*%
%LPD*%
G01*
G04 APERTURE LIST*
%ADD10R,1.750800X1.750800*%
%ADD11O,1.790800X2.240800*%
%ADD12R,3.650800X3.650800*%
%ADD13R,0.950800X0.850800*%
%ADD14R,7.925800X2.050800*%
%ADD15O,1.750800X1.750800*%
%ADD16C,4.550800*%
G04 APERTURE END LIST*
G36*
G01*
X219221600Y-120983488D02*
X219221600Y-119700512D01*
G75*
G02*
X219480512Y-119441600I258912J0D01*
G01*
X220438488Y-119441600D01*
G75*
G02*
X220697400Y-119700512I0J-258912D01*
G01*
X220697400Y-120983488D01*
G75*
G02*
X220438488Y-121242400I-258912J0D01*
G01*
X219480512Y-121242400D01*
G75*
G02*
X219221600Y-120983488I0J258912D01*
G01*
G37*
G36*
G01*
X222196600Y-120983488D02*
X222196600Y-119700512D01*
G75*
G02*
X222455512Y-119441600I258912J0D01*
G01*
X223413488Y-119441600D01*
G75*
G02*
X223672400Y-119700512I0J-258912D01*
G01*
X223672400Y-120983488D01*
G75*
G02*
X223413488Y-121242400I-258912J0D01*
G01*
X222455512Y-121242400D01*
G75*
G02*
X222196600Y-120983488I0J258912D01*
G01*
G37*
G36*
G01*
X220697400Y-115824512D02*
X220697400Y-117107488D01*
G75*
G02*
X220438488Y-117366400I-258912J0D01*
G01*
X219480512Y-117366400D01*
G75*
G02*
X219221600Y-117107488I0J258912D01*
G01*
X219221600Y-115824512D01*
G75*
G02*
X219480512Y-115565600I258912J0D01*
G01*
X220438488Y-115565600D01*
G75*
G02*
X220697400Y-115824512I0J-258912D01*
G01*
G37*
G36*
G01*
X223672400Y-115824512D02*
X223672400Y-117107488D01*
G75*
G02*
X223413488Y-117366400I-258912J0D01*
G01*
X222455512Y-117366400D01*
G75*
G02*
X222196600Y-117107488I0J258912D01*
G01*
X222196600Y-115824512D01*
G75*
G02*
X222455512Y-115565600I258912J0D01*
G01*
X223413488Y-115565600D01*
G75*
G02*
X223672400Y-115824512I0J-258912D01*
G01*
G37*
G36*
G01*
X193748400Y-130513512D02*
X193748400Y-131796488D01*
G75*
G02*
X193489488Y-132055400I-258912J0D01*
G01*
X192531512Y-132055400D01*
G75*
G02*
X192272600Y-131796488I0J258912D01*
G01*
X192272600Y-130513512D01*
G75*
G02*
X192531512Y-130254600I258912J0D01*
G01*
X193489488Y-130254600D01*
G75*
G02*
X193748400Y-130513512I0J-258912D01*
G01*
G37*
G36*
G01*
X190773400Y-130513512D02*
X190773400Y-131796488D01*
G75*
G02*
X190514488Y-132055400I-258912J0D01*
G01*
X189556512Y-132055400D01*
G75*
G02*
X189297600Y-131796488I0J258912D01*
G01*
X189297600Y-130513512D01*
G75*
G02*
X189556512Y-130254600I258912J0D01*
G01*
X190514488Y-130254600D01*
G75*
G02*
X190773400Y-130513512I0J-258912D01*
G01*
G37*
G36*
G01*
X196223600Y-131796488D02*
X196223600Y-130513512D01*
G75*
G02*
X196482512Y-130254600I258912J0D01*
G01*
X197440488Y-130254600D01*
G75*
G02*
X197699400Y-130513512I0J-258912D01*
G01*
X197699400Y-131796488D01*
G75*
G02*
X197440488Y-132055400I-258912J0D01*
G01*
X196482512Y-132055400D01*
G75*
G02*
X196223600Y-131796488I0J258912D01*
G01*
G37*
G36*
G01*
X199198600Y-131796488D02*
X199198600Y-130513512D01*
G75*
G02*
X199457512Y-130254600I258912J0D01*
G01*
X200415488Y-130254600D01*
G75*
G02*
X200674400Y-130513512I0J-258912D01*
G01*
X200674400Y-131796488D01*
G75*
G02*
X200415488Y-132055400I-258912J0D01*
G01*
X199457512Y-132055400D01*
G75*
G02*
X199198600Y-131796488I0J258912D01*
G01*
G37*
D10*
X219778000Y-108453000D03*
X183378000Y-108453000D03*
X180838000Y-108453000D03*
X188458000Y-108453000D03*
X190998000Y-108453000D03*
X198618000Y-108453000D03*
X196078000Y-108453000D03*
X243598000Y-108453000D03*
X241058000Y-108453000D03*
X248678000Y-108453000D03*
X251218000Y-108453000D03*
X258838000Y-108453000D03*
X256298000Y-108453000D03*
X224212000Y-135695000D03*
X219727000Y-135695000D03*
X215242000Y-135695000D03*
G36*
G01*
X190773400Y-112193512D02*
X190773400Y-113476488D01*
G75*
G02*
X190514488Y-113735400I-258912J0D01*
G01*
X189556512Y-113735400D01*
G75*
G02*
X189297600Y-113476488I0J258912D01*
G01*
X189297600Y-112193512D01*
G75*
G02*
X189556512Y-111934600I258912J0D01*
G01*
X190514488Y-111934600D01*
G75*
G02*
X190773400Y-112193512I0J-258912D01*
G01*
G37*
G36*
G01*
X193748400Y-112193512D02*
X193748400Y-113476488D01*
G75*
G02*
X193489488Y-113735400I-258912J0D01*
G01*
X192531512Y-113735400D01*
G75*
G02*
X192272600Y-113476488I0J258912D01*
G01*
X192272600Y-112193512D01*
G75*
G02*
X192531512Y-111934600I258912J0D01*
G01*
X193489488Y-111934600D01*
G75*
G02*
X193748400Y-112193512I0J-258912D01*
G01*
G37*
G36*
G01*
X251242400Y-112093512D02*
X251242400Y-113376488D01*
G75*
G02*
X250983488Y-113635400I-258912J0D01*
G01*
X250025512Y-113635400D01*
G75*
G02*
X249766600Y-113376488I0J258912D01*
G01*
X249766600Y-112093512D01*
G75*
G02*
X250025512Y-111834600I258912J0D01*
G01*
X250983488Y-111834600D01*
G75*
G02*
X251242400Y-112093512I0J-258912D01*
G01*
G37*
G36*
G01*
X254217400Y-112093512D02*
X254217400Y-113376488D01*
G75*
G02*
X253958488Y-113635400I-258912J0D01*
G01*
X253000512Y-113635400D01*
G75*
G02*
X252741600Y-113376488I0J258912D01*
G01*
X252741600Y-112093512D01*
G75*
G02*
X253000512Y-111834600I258912J0D01*
G01*
X253958488Y-111834600D01*
G75*
G02*
X254217400Y-112093512I0J-258912D01*
G01*
G37*
G36*
G01*
X272282400Y-137740512D02*
X272282400Y-139023488D01*
G75*
G02*
X272023488Y-139282400I-258912J0D01*
G01*
X271065512Y-139282400D01*
G75*
G02*
X270806600Y-139023488I0J258912D01*
G01*
X270806600Y-137740512D01*
G75*
G02*
X271065512Y-137481600I258912J0D01*
G01*
X272023488Y-137481600D01*
G75*
G02*
X272282400Y-137740512I0J-258912D01*
G01*
G37*
G36*
G01*
X275257400Y-137740512D02*
X275257400Y-139023488D01*
G75*
G02*
X274998488Y-139282400I-258912J0D01*
G01*
X274040512Y-139282400D01*
G75*
G02*
X273781600Y-139023488I0J258912D01*
G01*
X273781600Y-137740512D01*
G75*
G02*
X274040512Y-137481600I258912J0D01*
G01*
X274998488Y-137481600D01*
G75*
G02*
X275257400Y-137740512I0J-258912D01*
G01*
G37*
G36*
G01*
X272282400Y-134177512D02*
X272282400Y-135460488D01*
G75*
G02*
X272023488Y-135719400I-258912J0D01*
G01*
X271065512Y-135719400D01*
G75*
G02*
X270806600Y-135460488I0J258912D01*
G01*
X270806600Y-134177512D01*
G75*
G02*
X271065512Y-133918600I258912J0D01*
G01*
X272023488Y-133918600D01*
G75*
G02*
X272282400Y-134177512I0J-258912D01*
G01*
G37*
G36*
G01*
X275257400Y-134177512D02*
X275257400Y-135460488D01*
G75*
G02*
X274998488Y-135719400I-258912J0D01*
G01*
X274040512Y-135719400D01*
G75*
G02*
X273781600Y-135460488I0J258912D01*
G01*
X273781600Y-134177512D01*
G75*
G02*
X274040512Y-133918600I258912J0D01*
G01*
X274998488Y-133918600D01*
G75*
G02*
X275257400Y-134177512I0J-258912D01*
G01*
G37*
D11*
X201158000Y-103365000D03*
X198618000Y-103365000D03*
X196078000Y-103365000D03*
X193538000Y-103365000D03*
X190998000Y-103365000D03*
X188458000Y-103365000D03*
X185918000Y-103365000D03*
X183378000Y-103365000D03*
X180838000Y-103365000D03*
G36*
G01*
X177402600Y-104228102D02*
X177402600Y-102501898D01*
G75*
G02*
X177659898Y-102244600I257298J0D01*
G01*
X178936102Y-102244600D01*
G75*
G02*
X179193400Y-102501898I0J-257298D01*
G01*
X179193400Y-104228102D01*
G75*
G02*
X178936102Y-104485400I-257298J0D01*
G01*
X177659898Y-104485400D01*
G75*
G02*
X177402600Y-104228102I0J257298D01*
G01*
G37*
X261378000Y-103365000D03*
X258838000Y-103365000D03*
X256298000Y-103365000D03*
X253758000Y-103365000D03*
X251218000Y-103365000D03*
X248678000Y-103365000D03*
X246138000Y-103365000D03*
X243598000Y-103365000D03*
X241058000Y-103365000D03*
G36*
G01*
X237622600Y-104228102D02*
X237622600Y-102501898D01*
G75*
G02*
X237879898Y-102244600I257298J0D01*
G01*
X239156102Y-102244600D01*
G75*
G02*
X239413400Y-102501898I0J-257298D01*
G01*
X239413400Y-104228102D01*
G75*
G02*
X239156102Y-104485400I-257298J0D01*
G01*
X237879898Y-104485400D01*
G75*
G02*
X237622600Y-104228102I0J257298D01*
G01*
G37*
G36*
G01*
X207601400Y-108548512D02*
X207601400Y-109831488D01*
G75*
G02*
X207342488Y-110090400I-258912J0D01*
G01*
X206384512Y-110090400D01*
G75*
G02*
X206125600Y-109831488I0J258912D01*
G01*
X206125600Y-108548512D01*
G75*
G02*
X206384512Y-108289600I258912J0D01*
G01*
X207342488Y-108289600D01*
G75*
G02*
X207601400Y-108548512I0J-258912D01*
G01*
G37*
G36*
G01*
X204626400Y-108548512D02*
X204626400Y-109831488D01*
G75*
G02*
X204367488Y-110090400I-258912J0D01*
G01*
X203409512Y-110090400D01*
G75*
G02*
X203150600Y-109831488I0J258912D01*
G01*
X203150600Y-108548512D01*
G75*
G02*
X203409512Y-108289600I258912J0D01*
G01*
X204367488Y-108289600D01*
G75*
G02*
X204626400Y-108548512I0J-258912D01*
G01*
G37*
G36*
G01*
X206125600Y-113469488D02*
X206125600Y-112186512D01*
G75*
G02*
X206384512Y-111927600I258912J0D01*
G01*
X207342488Y-111927600D01*
G75*
G02*
X207601400Y-112186512I0J-258912D01*
G01*
X207601400Y-113469488D01*
G75*
G02*
X207342488Y-113728400I-258912J0D01*
G01*
X206384512Y-113728400D01*
G75*
G02*
X206125600Y-113469488I0J258912D01*
G01*
G37*
G36*
G01*
X203150600Y-113469488D02*
X203150600Y-112186512D01*
G75*
G02*
X203409512Y-111927600I258912J0D01*
G01*
X204367488Y-111927600D01*
G75*
G02*
X204626400Y-112186512I0J-258912D01*
G01*
X204626400Y-113469488D01*
G75*
G02*
X204367488Y-113728400I-258912J0D01*
G01*
X203409512Y-113728400D01*
G75*
G02*
X203150600Y-113469488I0J258912D01*
G01*
G37*
G36*
G01*
X207611400Y-130513512D02*
X207611400Y-131796488D01*
G75*
G02*
X207352488Y-132055400I-258912J0D01*
G01*
X206394512Y-132055400D01*
G75*
G02*
X206135600Y-131796488I0J258912D01*
G01*
X206135600Y-130513512D01*
G75*
G02*
X206394512Y-130254600I258912J0D01*
G01*
X207352488Y-130254600D01*
G75*
G02*
X207611400Y-130513512I0J-258912D01*
G01*
G37*
G36*
G01*
X204636400Y-130513512D02*
X204636400Y-131796488D01*
G75*
G02*
X204377488Y-132055400I-258912J0D01*
G01*
X203419512Y-132055400D01*
G75*
G02*
X203160600Y-131796488I0J258912D01*
G01*
X203160600Y-130513512D01*
G75*
G02*
X203419512Y-130254600I258912J0D01*
G01*
X204377488Y-130254600D01*
G75*
G02*
X204636400Y-130513512I0J-258912D01*
G01*
G37*
G36*
G01*
X263437600Y-117154488D02*
X263437600Y-115871512D01*
G75*
G02*
X263696512Y-115612600I258912J0D01*
G01*
X264654488Y-115612600D01*
G75*
G02*
X264913400Y-115871512I0J-258912D01*
G01*
X264913400Y-117154488D01*
G75*
G02*
X264654488Y-117413400I-258912J0D01*
G01*
X263696512Y-117413400D01*
G75*
G02*
X263437600Y-117154488I0J258912D01*
G01*
G37*
G36*
G01*
X266412600Y-117154488D02*
X266412600Y-115871512D01*
G75*
G02*
X266671512Y-115612600I258912J0D01*
G01*
X267629488Y-115612600D01*
G75*
G02*
X267888400Y-115871512I0J-258912D01*
G01*
X267888400Y-117154488D01*
G75*
G02*
X267629488Y-117413400I-258912J0D01*
G01*
X266671512Y-117413400D01*
G75*
G02*
X266412600Y-117154488I0J258912D01*
G01*
G37*
G36*
G01*
X263437600Y-124525488D02*
X263437600Y-123242512D01*
G75*
G02*
X263696512Y-122983600I258912J0D01*
G01*
X264654488Y-122983600D01*
G75*
G02*
X264913400Y-123242512I0J-258912D01*
G01*
X264913400Y-124525488D01*
G75*
G02*
X264654488Y-124784400I-258912J0D01*
G01*
X263696512Y-124784400D01*
G75*
G02*
X263437600Y-124525488I0J258912D01*
G01*
G37*
G36*
G01*
X266412600Y-124525488D02*
X266412600Y-123242512D01*
G75*
G02*
X266671512Y-122983600I258912J0D01*
G01*
X267629488Y-122983600D01*
G75*
G02*
X267888400Y-123242512I0J-258912D01*
G01*
X267888400Y-124525488D01*
G75*
G02*
X267629488Y-124784400I-258912J0D01*
G01*
X266671512Y-124784400D01*
G75*
G02*
X266412600Y-124525488I0J258912D01*
G01*
G37*
G36*
G01*
X272282400Y-130613512D02*
X272282400Y-131896488D01*
G75*
G02*
X272023488Y-132155400I-258912J0D01*
G01*
X271065512Y-132155400D01*
G75*
G02*
X270806600Y-131896488I0J258912D01*
G01*
X270806600Y-130613512D01*
G75*
G02*
X271065512Y-130354600I258912J0D01*
G01*
X272023488Y-130354600D01*
G75*
G02*
X272282400Y-130613512I0J-258912D01*
G01*
G37*
G36*
G01*
X275257400Y-130613512D02*
X275257400Y-131896488D01*
G75*
G02*
X274998488Y-132155400I-258912J0D01*
G01*
X274040512Y-132155400D01*
G75*
G02*
X273781600Y-131896488I0J258912D01*
G01*
X273781600Y-130613512D01*
G75*
G02*
X274040512Y-130354600I258912J0D01*
G01*
X274998488Y-130354600D01*
G75*
G02*
X275257400Y-130613512I0J-258912D01*
G01*
G37*
G36*
G01*
X250542600Y-119567700D02*
X250542600Y-119392300D01*
G75*
G02*
X250630300Y-119304600I87700J0D01*
G01*
X251980700Y-119304600D01*
G75*
G02*
X252068400Y-119392300I0J-87700D01*
G01*
X252068400Y-119567700D01*
G75*
G02*
X251980700Y-119655400I-87700J0D01*
G01*
X250630300Y-119655400D01*
G75*
G02*
X250542600Y-119567700I0J87700D01*
G01*
G37*
G36*
G01*
X250542600Y-120067700D02*
X250542600Y-119892300D01*
G75*
G02*
X250630300Y-119804600I87700J0D01*
G01*
X251980700Y-119804600D01*
G75*
G02*
X252068400Y-119892300I0J-87700D01*
G01*
X252068400Y-120067700D01*
G75*
G02*
X251980700Y-120155400I-87700J0D01*
G01*
X250630300Y-120155400D01*
G75*
G02*
X250542600Y-120067700I0J87700D01*
G01*
G37*
G36*
G01*
X250542600Y-120567700D02*
X250542600Y-120392300D01*
G75*
G02*
X250630300Y-120304600I87700J0D01*
G01*
X251980700Y-120304600D01*
G75*
G02*
X252068400Y-120392300I0J-87700D01*
G01*
X252068400Y-120567700D01*
G75*
G02*
X251980700Y-120655400I-87700J0D01*
G01*
X250630300Y-120655400D01*
G75*
G02*
X250542600Y-120567700I0J87700D01*
G01*
G37*
G36*
G01*
X250542600Y-121067700D02*
X250542600Y-120892300D01*
G75*
G02*
X250630300Y-120804600I87700J0D01*
G01*
X251980700Y-120804600D01*
G75*
G02*
X252068400Y-120892300I0J-87700D01*
G01*
X252068400Y-121067700D01*
G75*
G02*
X251980700Y-121155400I-87700J0D01*
G01*
X250630300Y-121155400D01*
G75*
G02*
X250542600Y-121067700I0J87700D01*
G01*
G37*
G36*
G01*
X250542600Y-121567700D02*
X250542600Y-121392300D01*
G75*
G02*
X250630300Y-121304600I87700J0D01*
G01*
X251980700Y-121304600D01*
G75*
G02*
X252068400Y-121392300I0J-87700D01*
G01*
X252068400Y-121567700D01*
G75*
G02*
X251980700Y-121655400I-87700J0D01*
G01*
X250630300Y-121655400D01*
G75*
G02*
X250542600Y-121567700I0J87700D01*
G01*
G37*
G36*
G01*
X250542600Y-122067700D02*
X250542600Y-121892300D01*
G75*
G02*
X250630300Y-121804600I87700J0D01*
G01*
X251980700Y-121804600D01*
G75*
G02*
X252068400Y-121892300I0J-87700D01*
G01*
X252068400Y-122067700D01*
G75*
G02*
X251980700Y-122155400I-87700J0D01*
G01*
X250630300Y-122155400D01*
G75*
G02*
X250542600Y-122067700I0J87700D01*
G01*
G37*
G36*
G01*
X250542600Y-122567700D02*
X250542600Y-122392300D01*
G75*
G02*
X250630300Y-122304600I87700J0D01*
G01*
X251980700Y-122304600D01*
G75*
G02*
X252068400Y-122392300I0J-87700D01*
G01*
X252068400Y-122567700D01*
G75*
G02*
X251980700Y-122655400I-87700J0D01*
G01*
X250630300Y-122655400D01*
G75*
G02*
X250542600Y-122567700I0J87700D01*
G01*
G37*
G36*
G01*
X250542600Y-123067700D02*
X250542600Y-122892300D01*
G75*
G02*
X250630300Y-122804600I87700J0D01*
G01*
X251980700Y-122804600D01*
G75*
G02*
X252068400Y-122892300I0J-87700D01*
G01*
X252068400Y-123067700D01*
G75*
G02*
X251980700Y-123155400I-87700J0D01*
G01*
X250630300Y-123155400D01*
G75*
G02*
X250542600Y-123067700I0J87700D01*
G01*
G37*
G36*
G01*
X250542600Y-123567700D02*
X250542600Y-123392300D01*
G75*
G02*
X250630300Y-123304600I87700J0D01*
G01*
X251980700Y-123304600D01*
G75*
G02*
X252068400Y-123392300I0J-87700D01*
G01*
X252068400Y-123567700D01*
G75*
G02*
X251980700Y-123655400I-87700J0D01*
G01*
X250630300Y-123655400D01*
G75*
G02*
X250542600Y-123567700I0J87700D01*
G01*
G37*
G36*
G01*
X250542600Y-124067700D02*
X250542600Y-123892300D01*
G75*
G02*
X250630300Y-123804600I87700J0D01*
G01*
X251980700Y-123804600D01*
G75*
G02*
X252068400Y-123892300I0J-87700D01*
G01*
X252068400Y-124067700D01*
G75*
G02*
X251980700Y-124155400I-87700J0D01*
G01*
X250630300Y-124155400D01*
G75*
G02*
X250542600Y-124067700I0J87700D01*
G01*
G37*
G36*
G01*
X250542600Y-124567700D02*
X250542600Y-124392300D01*
G75*
G02*
X250630300Y-124304600I87700J0D01*
G01*
X251980700Y-124304600D01*
G75*
G02*
X252068400Y-124392300I0J-87700D01*
G01*
X252068400Y-124567700D01*
G75*
G02*
X251980700Y-124655400I-87700J0D01*
G01*
X250630300Y-124655400D01*
G75*
G02*
X250542600Y-124567700I0J87700D01*
G01*
G37*
G36*
G01*
X250542600Y-125067700D02*
X250542600Y-124892300D01*
G75*
G02*
X250630300Y-124804600I87700J0D01*
G01*
X251980700Y-124804600D01*
G75*
G02*
X252068400Y-124892300I0J-87700D01*
G01*
X252068400Y-125067700D01*
G75*
G02*
X251980700Y-125155400I-87700J0D01*
G01*
X250630300Y-125155400D01*
G75*
G02*
X250542600Y-125067700I0J87700D01*
G01*
G37*
G36*
G01*
X252542600Y-127067700D02*
X252542600Y-125717300D01*
G75*
G02*
X252630300Y-125629600I87700J0D01*
G01*
X252805700Y-125629600D01*
G75*
G02*
X252893400Y-125717300I0J-87700D01*
G01*
X252893400Y-127067700D01*
G75*
G02*
X252805700Y-127155400I-87700J0D01*
G01*
X252630300Y-127155400D01*
G75*
G02*
X252542600Y-127067700I0J87700D01*
G01*
G37*
G36*
G01*
X253042600Y-127067700D02*
X253042600Y-125717300D01*
G75*
G02*
X253130300Y-125629600I87700J0D01*
G01*
X253305700Y-125629600D01*
G75*
G02*
X253393400Y-125717300I0J-87700D01*
G01*
X253393400Y-127067700D01*
G75*
G02*
X253305700Y-127155400I-87700J0D01*
G01*
X253130300Y-127155400D01*
G75*
G02*
X253042600Y-127067700I0J87700D01*
G01*
G37*
G36*
G01*
X253542600Y-127067700D02*
X253542600Y-125717300D01*
G75*
G02*
X253630300Y-125629600I87700J0D01*
G01*
X253805700Y-125629600D01*
G75*
G02*
X253893400Y-125717300I0J-87700D01*
G01*
X253893400Y-127067700D01*
G75*
G02*
X253805700Y-127155400I-87700J0D01*
G01*
X253630300Y-127155400D01*
G75*
G02*
X253542600Y-127067700I0J87700D01*
G01*
G37*
G36*
G01*
X254042600Y-127067700D02*
X254042600Y-125717300D01*
G75*
G02*
X254130300Y-125629600I87700J0D01*
G01*
X254305700Y-125629600D01*
G75*
G02*
X254393400Y-125717300I0J-87700D01*
G01*
X254393400Y-127067700D01*
G75*
G02*
X254305700Y-127155400I-87700J0D01*
G01*
X254130300Y-127155400D01*
G75*
G02*
X254042600Y-127067700I0J87700D01*
G01*
G37*
G36*
G01*
X254542600Y-127067700D02*
X254542600Y-125717300D01*
G75*
G02*
X254630300Y-125629600I87700J0D01*
G01*
X254805700Y-125629600D01*
G75*
G02*
X254893400Y-125717300I0J-87700D01*
G01*
X254893400Y-127067700D01*
G75*
G02*
X254805700Y-127155400I-87700J0D01*
G01*
X254630300Y-127155400D01*
G75*
G02*
X254542600Y-127067700I0J87700D01*
G01*
G37*
G36*
G01*
X255042600Y-127067700D02*
X255042600Y-125717300D01*
G75*
G02*
X255130300Y-125629600I87700J0D01*
G01*
X255305700Y-125629600D01*
G75*
G02*
X255393400Y-125717300I0J-87700D01*
G01*
X255393400Y-127067700D01*
G75*
G02*
X255305700Y-127155400I-87700J0D01*
G01*
X255130300Y-127155400D01*
G75*
G02*
X255042600Y-127067700I0J87700D01*
G01*
G37*
G36*
G01*
X255542600Y-127067700D02*
X255542600Y-125717300D01*
G75*
G02*
X255630300Y-125629600I87700J0D01*
G01*
X255805700Y-125629600D01*
G75*
G02*
X255893400Y-125717300I0J-87700D01*
G01*
X255893400Y-127067700D01*
G75*
G02*
X255805700Y-127155400I-87700J0D01*
G01*
X255630300Y-127155400D01*
G75*
G02*
X255542600Y-127067700I0J87700D01*
G01*
G37*
G36*
G01*
X256042600Y-127067700D02*
X256042600Y-125717300D01*
G75*
G02*
X256130300Y-125629600I87700J0D01*
G01*
X256305700Y-125629600D01*
G75*
G02*
X256393400Y-125717300I0J-87700D01*
G01*
X256393400Y-127067700D01*
G75*
G02*
X256305700Y-127155400I-87700J0D01*
G01*
X256130300Y-127155400D01*
G75*
G02*
X256042600Y-127067700I0J87700D01*
G01*
G37*
G36*
G01*
X256542600Y-127067700D02*
X256542600Y-125717300D01*
G75*
G02*
X256630300Y-125629600I87700J0D01*
G01*
X256805700Y-125629600D01*
G75*
G02*
X256893400Y-125717300I0J-87700D01*
G01*
X256893400Y-127067700D01*
G75*
G02*
X256805700Y-127155400I-87700J0D01*
G01*
X256630300Y-127155400D01*
G75*
G02*
X256542600Y-127067700I0J87700D01*
G01*
G37*
G36*
G01*
X257042600Y-127067700D02*
X257042600Y-125717300D01*
G75*
G02*
X257130300Y-125629600I87700J0D01*
G01*
X257305700Y-125629600D01*
G75*
G02*
X257393400Y-125717300I0J-87700D01*
G01*
X257393400Y-127067700D01*
G75*
G02*
X257305700Y-127155400I-87700J0D01*
G01*
X257130300Y-127155400D01*
G75*
G02*
X257042600Y-127067700I0J87700D01*
G01*
G37*
G36*
G01*
X257542600Y-127067700D02*
X257542600Y-125717300D01*
G75*
G02*
X257630300Y-125629600I87700J0D01*
G01*
X257805700Y-125629600D01*
G75*
G02*
X257893400Y-125717300I0J-87700D01*
G01*
X257893400Y-127067700D01*
G75*
G02*
X257805700Y-127155400I-87700J0D01*
G01*
X257630300Y-127155400D01*
G75*
G02*
X257542600Y-127067700I0J87700D01*
G01*
G37*
G36*
G01*
X258042600Y-127067700D02*
X258042600Y-125717300D01*
G75*
G02*
X258130300Y-125629600I87700J0D01*
G01*
X258305700Y-125629600D01*
G75*
G02*
X258393400Y-125717300I0J-87700D01*
G01*
X258393400Y-127067700D01*
G75*
G02*
X258305700Y-127155400I-87700J0D01*
G01*
X258130300Y-127155400D01*
G75*
G02*
X258042600Y-127067700I0J87700D01*
G01*
G37*
G36*
G01*
X258867600Y-125067700D02*
X258867600Y-124892300D01*
G75*
G02*
X258955300Y-124804600I87700J0D01*
G01*
X260305700Y-124804600D01*
G75*
G02*
X260393400Y-124892300I0J-87700D01*
G01*
X260393400Y-125067700D01*
G75*
G02*
X260305700Y-125155400I-87700J0D01*
G01*
X258955300Y-125155400D01*
G75*
G02*
X258867600Y-125067700I0J87700D01*
G01*
G37*
G36*
G01*
X258867600Y-124567700D02*
X258867600Y-124392300D01*
G75*
G02*
X258955300Y-124304600I87700J0D01*
G01*
X260305700Y-124304600D01*
G75*
G02*
X260393400Y-124392300I0J-87700D01*
G01*
X260393400Y-124567700D01*
G75*
G02*
X260305700Y-124655400I-87700J0D01*
G01*
X258955300Y-124655400D01*
G75*
G02*
X258867600Y-124567700I0J87700D01*
G01*
G37*
G36*
G01*
X258867600Y-124067700D02*
X258867600Y-123892300D01*
G75*
G02*
X258955300Y-123804600I87700J0D01*
G01*
X260305700Y-123804600D01*
G75*
G02*
X260393400Y-123892300I0J-87700D01*
G01*
X260393400Y-124067700D01*
G75*
G02*
X260305700Y-124155400I-87700J0D01*
G01*
X258955300Y-124155400D01*
G75*
G02*
X258867600Y-124067700I0J87700D01*
G01*
G37*
G36*
G01*
X258867600Y-123567700D02*
X258867600Y-123392300D01*
G75*
G02*
X258955300Y-123304600I87700J0D01*
G01*
X260305700Y-123304600D01*
G75*
G02*
X260393400Y-123392300I0J-87700D01*
G01*
X260393400Y-123567700D01*
G75*
G02*
X260305700Y-123655400I-87700J0D01*
G01*
X258955300Y-123655400D01*
G75*
G02*
X258867600Y-123567700I0J87700D01*
G01*
G37*
G36*
G01*
X258867600Y-123067700D02*
X258867600Y-122892300D01*
G75*
G02*
X258955300Y-122804600I87700J0D01*
G01*
X260305700Y-122804600D01*
G75*
G02*
X260393400Y-122892300I0J-87700D01*
G01*
X260393400Y-123067700D01*
G75*
G02*
X260305700Y-123155400I-87700J0D01*
G01*
X258955300Y-123155400D01*
G75*
G02*
X258867600Y-123067700I0J87700D01*
G01*
G37*
G36*
G01*
X258867600Y-122567700D02*
X258867600Y-122392300D01*
G75*
G02*
X258955300Y-122304600I87700J0D01*
G01*
X260305700Y-122304600D01*
G75*
G02*
X260393400Y-122392300I0J-87700D01*
G01*
X260393400Y-122567700D01*
G75*
G02*
X260305700Y-122655400I-87700J0D01*
G01*
X258955300Y-122655400D01*
G75*
G02*
X258867600Y-122567700I0J87700D01*
G01*
G37*
G36*
G01*
X258867600Y-122067700D02*
X258867600Y-121892300D01*
G75*
G02*
X258955300Y-121804600I87700J0D01*
G01*
X260305700Y-121804600D01*
G75*
G02*
X260393400Y-121892300I0J-87700D01*
G01*
X260393400Y-122067700D01*
G75*
G02*
X260305700Y-122155400I-87700J0D01*
G01*
X258955300Y-122155400D01*
G75*
G02*
X258867600Y-122067700I0J87700D01*
G01*
G37*
G36*
G01*
X258867600Y-121567700D02*
X258867600Y-121392300D01*
G75*
G02*
X258955300Y-121304600I87700J0D01*
G01*
X260305700Y-121304600D01*
G75*
G02*
X260393400Y-121392300I0J-87700D01*
G01*
X260393400Y-121567700D01*
G75*
G02*
X260305700Y-121655400I-87700J0D01*
G01*
X258955300Y-121655400D01*
G75*
G02*
X258867600Y-121567700I0J87700D01*
G01*
G37*
G36*
G01*
X258867600Y-121067700D02*
X258867600Y-120892300D01*
G75*
G02*
X258955300Y-120804600I87700J0D01*
G01*
X260305700Y-120804600D01*
G75*
G02*
X260393400Y-120892300I0J-87700D01*
G01*
X260393400Y-121067700D01*
G75*
G02*
X260305700Y-121155400I-87700J0D01*
G01*
X258955300Y-121155400D01*
G75*
G02*
X258867600Y-121067700I0J87700D01*
G01*
G37*
G36*
G01*
X258867600Y-120567700D02*
X258867600Y-120392300D01*
G75*
G02*
X258955300Y-120304600I87700J0D01*
G01*
X260305700Y-120304600D01*
G75*
G02*
X260393400Y-120392300I0J-87700D01*
G01*
X260393400Y-120567700D01*
G75*
G02*
X260305700Y-120655400I-87700J0D01*
G01*
X258955300Y-120655400D01*
G75*
G02*
X258867600Y-120567700I0J87700D01*
G01*
G37*
G36*
G01*
X258867600Y-120067700D02*
X258867600Y-119892300D01*
G75*
G02*
X258955300Y-119804600I87700J0D01*
G01*
X260305700Y-119804600D01*
G75*
G02*
X260393400Y-119892300I0J-87700D01*
G01*
X260393400Y-120067700D01*
G75*
G02*
X260305700Y-120155400I-87700J0D01*
G01*
X258955300Y-120155400D01*
G75*
G02*
X258867600Y-120067700I0J87700D01*
G01*
G37*
G36*
G01*
X258867600Y-119567700D02*
X258867600Y-119392300D01*
G75*
G02*
X258955300Y-119304600I87700J0D01*
G01*
X260305700Y-119304600D01*
G75*
G02*
X260393400Y-119392300I0J-87700D01*
G01*
X260393400Y-119567700D01*
G75*
G02*
X260305700Y-119655400I-87700J0D01*
G01*
X258955300Y-119655400D01*
G75*
G02*
X258867600Y-119567700I0J87700D01*
G01*
G37*
G36*
G01*
X258042600Y-118742700D02*
X258042600Y-117392300D01*
G75*
G02*
X258130300Y-117304600I87700J0D01*
G01*
X258305700Y-117304600D01*
G75*
G02*
X258393400Y-117392300I0J-87700D01*
G01*
X258393400Y-118742700D01*
G75*
G02*
X258305700Y-118830400I-87700J0D01*
G01*
X258130300Y-118830400D01*
G75*
G02*
X258042600Y-118742700I0J87700D01*
G01*
G37*
G36*
G01*
X257542600Y-118742700D02*
X257542600Y-117392300D01*
G75*
G02*
X257630300Y-117304600I87700J0D01*
G01*
X257805700Y-117304600D01*
G75*
G02*
X257893400Y-117392300I0J-87700D01*
G01*
X257893400Y-118742700D01*
G75*
G02*
X257805700Y-118830400I-87700J0D01*
G01*
X257630300Y-118830400D01*
G75*
G02*
X257542600Y-118742700I0J87700D01*
G01*
G37*
G36*
G01*
X257042600Y-118742700D02*
X257042600Y-117392300D01*
G75*
G02*
X257130300Y-117304600I87700J0D01*
G01*
X257305700Y-117304600D01*
G75*
G02*
X257393400Y-117392300I0J-87700D01*
G01*
X257393400Y-118742700D01*
G75*
G02*
X257305700Y-118830400I-87700J0D01*
G01*
X257130300Y-118830400D01*
G75*
G02*
X257042600Y-118742700I0J87700D01*
G01*
G37*
G36*
G01*
X256542600Y-118742700D02*
X256542600Y-117392300D01*
G75*
G02*
X256630300Y-117304600I87700J0D01*
G01*
X256805700Y-117304600D01*
G75*
G02*
X256893400Y-117392300I0J-87700D01*
G01*
X256893400Y-118742700D01*
G75*
G02*
X256805700Y-118830400I-87700J0D01*
G01*
X256630300Y-118830400D01*
G75*
G02*
X256542600Y-118742700I0J87700D01*
G01*
G37*
G36*
G01*
X256042600Y-118742700D02*
X256042600Y-117392300D01*
G75*
G02*
X256130300Y-117304600I87700J0D01*
G01*
X256305700Y-117304600D01*
G75*
G02*
X256393400Y-117392300I0J-87700D01*
G01*
X256393400Y-118742700D01*
G75*
G02*
X256305700Y-118830400I-87700J0D01*
G01*
X256130300Y-118830400D01*
G75*
G02*
X256042600Y-118742700I0J87700D01*
G01*
G37*
G36*
G01*
X255542600Y-118742700D02*
X255542600Y-117392300D01*
G75*
G02*
X255630300Y-117304600I87700J0D01*
G01*
X255805700Y-117304600D01*
G75*
G02*
X255893400Y-117392300I0J-87700D01*
G01*
X255893400Y-118742700D01*
G75*
G02*
X255805700Y-118830400I-87700J0D01*
G01*
X255630300Y-118830400D01*
G75*
G02*
X255542600Y-118742700I0J87700D01*
G01*
G37*
G36*
G01*
X255042600Y-118742700D02*
X255042600Y-117392300D01*
G75*
G02*
X255130300Y-117304600I87700J0D01*
G01*
X255305700Y-117304600D01*
G75*
G02*
X255393400Y-117392300I0J-87700D01*
G01*
X255393400Y-118742700D01*
G75*
G02*
X255305700Y-118830400I-87700J0D01*
G01*
X255130300Y-118830400D01*
G75*
G02*
X255042600Y-118742700I0J87700D01*
G01*
G37*
G36*
G01*
X254542600Y-118742700D02*
X254542600Y-117392300D01*
G75*
G02*
X254630300Y-117304600I87700J0D01*
G01*
X254805700Y-117304600D01*
G75*
G02*
X254893400Y-117392300I0J-87700D01*
G01*
X254893400Y-118742700D01*
G75*
G02*
X254805700Y-118830400I-87700J0D01*
G01*
X254630300Y-118830400D01*
G75*
G02*
X254542600Y-118742700I0J87700D01*
G01*
G37*
G36*
G01*
X254042600Y-118742700D02*
X254042600Y-117392300D01*
G75*
G02*
X254130300Y-117304600I87700J0D01*
G01*
X254305700Y-117304600D01*
G75*
G02*
X254393400Y-117392300I0J-87700D01*
G01*
X254393400Y-118742700D01*
G75*
G02*
X254305700Y-118830400I-87700J0D01*
G01*
X254130300Y-118830400D01*
G75*
G02*
X254042600Y-118742700I0J87700D01*
G01*
G37*
G36*
G01*
X253542600Y-118742700D02*
X253542600Y-117392300D01*
G75*
G02*
X253630300Y-117304600I87700J0D01*
G01*
X253805700Y-117304600D01*
G75*
G02*
X253893400Y-117392300I0J-87700D01*
G01*
X253893400Y-118742700D01*
G75*
G02*
X253805700Y-118830400I-87700J0D01*
G01*
X253630300Y-118830400D01*
G75*
G02*
X253542600Y-118742700I0J87700D01*
G01*
G37*
G36*
G01*
X253042600Y-118742700D02*
X253042600Y-117392300D01*
G75*
G02*
X253130300Y-117304600I87700J0D01*
G01*
X253305700Y-117304600D01*
G75*
G02*
X253393400Y-117392300I0J-87700D01*
G01*
X253393400Y-118742700D01*
G75*
G02*
X253305700Y-118830400I-87700J0D01*
G01*
X253130300Y-118830400D01*
G75*
G02*
X253042600Y-118742700I0J87700D01*
G01*
G37*
G36*
G01*
X252542600Y-118742700D02*
X252542600Y-117392300D01*
G75*
G02*
X252630300Y-117304600I87700J0D01*
G01*
X252805700Y-117304600D01*
G75*
G02*
X252893400Y-117392300I0J-87700D01*
G01*
X252893400Y-118742700D01*
G75*
G02*
X252805700Y-118830400I-87700J0D01*
G01*
X252630300Y-118830400D01*
G75*
G02*
X252542600Y-118742700I0J87700D01*
G01*
G37*
D12*
X255468000Y-122230000D03*
G36*
G01*
X190217600Y-119567700D02*
X190217600Y-119392300D01*
G75*
G02*
X190305300Y-119304600I87700J0D01*
G01*
X191655700Y-119304600D01*
G75*
G02*
X191743400Y-119392300I0J-87700D01*
G01*
X191743400Y-119567700D01*
G75*
G02*
X191655700Y-119655400I-87700J0D01*
G01*
X190305300Y-119655400D01*
G75*
G02*
X190217600Y-119567700I0J87700D01*
G01*
G37*
G36*
G01*
X190217600Y-120067700D02*
X190217600Y-119892300D01*
G75*
G02*
X190305300Y-119804600I87700J0D01*
G01*
X191655700Y-119804600D01*
G75*
G02*
X191743400Y-119892300I0J-87700D01*
G01*
X191743400Y-120067700D01*
G75*
G02*
X191655700Y-120155400I-87700J0D01*
G01*
X190305300Y-120155400D01*
G75*
G02*
X190217600Y-120067700I0J87700D01*
G01*
G37*
G36*
G01*
X190217600Y-120567700D02*
X190217600Y-120392300D01*
G75*
G02*
X190305300Y-120304600I87700J0D01*
G01*
X191655700Y-120304600D01*
G75*
G02*
X191743400Y-120392300I0J-87700D01*
G01*
X191743400Y-120567700D01*
G75*
G02*
X191655700Y-120655400I-87700J0D01*
G01*
X190305300Y-120655400D01*
G75*
G02*
X190217600Y-120567700I0J87700D01*
G01*
G37*
G36*
G01*
X190217600Y-121067700D02*
X190217600Y-120892300D01*
G75*
G02*
X190305300Y-120804600I87700J0D01*
G01*
X191655700Y-120804600D01*
G75*
G02*
X191743400Y-120892300I0J-87700D01*
G01*
X191743400Y-121067700D01*
G75*
G02*
X191655700Y-121155400I-87700J0D01*
G01*
X190305300Y-121155400D01*
G75*
G02*
X190217600Y-121067700I0J87700D01*
G01*
G37*
G36*
G01*
X190217600Y-121567700D02*
X190217600Y-121392300D01*
G75*
G02*
X190305300Y-121304600I87700J0D01*
G01*
X191655700Y-121304600D01*
G75*
G02*
X191743400Y-121392300I0J-87700D01*
G01*
X191743400Y-121567700D01*
G75*
G02*
X191655700Y-121655400I-87700J0D01*
G01*
X190305300Y-121655400D01*
G75*
G02*
X190217600Y-121567700I0J87700D01*
G01*
G37*
G36*
G01*
X190217600Y-122067700D02*
X190217600Y-121892300D01*
G75*
G02*
X190305300Y-121804600I87700J0D01*
G01*
X191655700Y-121804600D01*
G75*
G02*
X191743400Y-121892300I0J-87700D01*
G01*
X191743400Y-122067700D01*
G75*
G02*
X191655700Y-122155400I-87700J0D01*
G01*
X190305300Y-122155400D01*
G75*
G02*
X190217600Y-122067700I0J87700D01*
G01*
G37*
G36*
G01*
X190217600Y-122567700D02*
X190217600Y-122392300D01*
G75*
G02*
X190305300Y-122304600I87700J0D01*
G01*
X191655700Y-122304600D01*
G75*
G02*
X191743400Y-122392300I0J-87700D01*
G01*
X191743400Y-122567700D01*
G75*
G02*
X191655700Y-122655400I-87700J0D01*
G01*
X190305300Y-122655400D01*
G75*
G02*
X190217600Y-122567700I0J87700D01*
G01*
G37*
G36*
G01*
X190217600Y-123067700D02*
X190217600Y-122892300D01*
G75*
G02*
X190305300Y-122804600I87700J0D01*
G01*
X191655700Y-122804600D01*
G75*
G02*
X191743400Y-122892300I0J-87700D01*
G01*
X191743400Y-123067700D01*
G75*
G02*
X191655700Y-123155400I-87700J0D01*
G01*
X190305300Y-123155400D01*
G75*
G02*
X190217600Y-123067700I0J87700D01*
G01*
G37*
G36*
G01*
X190217600Y-123567700D02*
X190217600Y-123392300D01*
G75*
G02*
X190305300Y-123304600I87700J0D01*
G01*
X191655700Y-123304600D01*
G75*
G02*
X191743400Y-123392300I0J-87700D01*
G01*
X191743400Y-123567700D01*
G75*
G02*
X191655700Y-123655400I-87700J0D01*
G01*
X190305300Y-123655400D01*
G75*
G02*
X190217600Y-123567700I0J87700D01*
G01*
G37*
G36*
G01*
X190217600Y-124067700D02*
X190217600Y-123892300D01*
G75*
G02*
X190305300Y-123804600I87700J0D01*
G01*
X191655700Y-123804600D01*
G75*
G02*
X191743400Y-123892300I0J-87700D01*
G01*
X191743400Y-124067700D01*
G75*
G02*
X191655700Y-124155400I-87700J0D01*
G01*
X190305300Y-124155400D01*
G75*
G02*
X190217600Y-124067700I0J87700D01*
G01*
G37*
G36*
G01*
X190217600Y-124567700D02*
X190217600Y-124392300D01*
G75*
G02*
X190305300Y-124304600I87700J0D01*
G01*
X191655700Y-124304600D01*
G75*
G02*
X191743400Y-124392300I0J-87700D01*
G01*
X191743400Y-124567700D01*
G75*
G02*
X191655700Y-124655400I-87700J0D01*
G01*
X190305300Y-124655400D01*
G75*
G02*
X190217600Y-124567700I0J87700D01*
G01*
G37*
G36*
G01*
X190217600Y-125067700D02*
X190217600Y-124892300D01*
G75*
G02*
X190305300Y-124804600I87700J0D01*
G01*
X191655700Y-124804600D01*
G75*
G02*
X191743400Y-124892300I0J-87700D01*
G01*
X191743400Y-125067700D01*
G75*
G02*
X191655700Y-125155400I-87700J0D01*
G01*
X190305300Y-125155400D01*
G75*
G02*
X190217600Y-125067700I0J87700D01*
G01*
G37*
G36*
G01*
X192217600Y-127067700D02*
X192217600Y-125717300D01*
G75*
G02*
X192305300Y-125629600I87700J0D01*
G01*
X192480700Y-125629600D01*
G75*
G02*
X192568400Y-125717300I0J-87700D01*
G01*
X192568400Y-127067700D01*
G75*
G02*
X192480700Y-127155400I-87700J0D01*
G01*
X192305300Y-127155400D01*
G75*
G02*
X192217600Y-127067700I0J87700D01*
G01*
G37*
G36*
G01*
X192717600Y-127067700D02*
X192717600Y-125717300D01*
G75*
G02*
X192805300Y-125629600I87700J0D01*
G01*
X192980700Y-125629600D01*
G75*
G02*
X193068400Y-125717300I0J-87700D01*
G01*
X193068400Y-127067700D01*
G75*
G02*
X192980700Y-127155400I-87700J0D01*
G01*
X192805300Y-127155400D01*
G75*
G02*
X192717600Y-127067700I0J87700D01*
G01*
G37*
G36*
G01*
X193217600Y-127067700D02*
X193217600Y-125717300D01*
G75*
G02*
X193305300Y-125629600I87700J0D01*
G01*
X193480700Y-125629600D01*
G75*
G02*
X193568400Y-125717300I0J-87700D01*
G01*
X193568400Y-127067700D01*
G75*
G02*
X193480700Y-127155400I-87700J0D01*
G01*
X193305300Y-127155400D01*
G75*
G02*
X193217600Y-127067700I0J87700D01*
G01*
G37*
G36*
G01*
X193717600Y-127067700D02*
X193717600Y-125717300D01*
G75*
G02*
X193805300Y-125629600I87700J0D01*
G01*
X193980700Y-125629600D01*
G75*
G02*
X194068400Y-125717300I0J-87700D01*
G01*
X194068400Y-127067700D01*
G75*
G02*
X193980700Y-127155400I-87700J0D01*
G01*
X193805300Y-127155400D01*
G75*
G02*
X193717600Y-127067700I0J87700D01*
G01*
G37*
G36*
G01*
X194217600Y-127067700D02*
X194217600Y-125717300D01*
G75*
G02*
X194305300Y-125629600I87700J0D01*
G01*
X194480700Y-125629600D01*
G75*
G02*
X194568400Y-125717300I0J-87700D01*
G01*
X194568400Y-127067700D01*
G75*
G02*
X194480700Y-127155400I-87700J0D01*
G01*
X194305300Y-127155400D01*
G75*
G02*
X194217600Y-127067700I0J87700D01*
G01*
G37*
G36*
G01*
X194717600Y-127067700D02*
X194717600Y-125717300D01*
G75*
G02*
X194805300Y-125629600I87700J0D01*
G01*
X194980700Y-125629600D01*
G75*
G02*
X195068400Y-125717300I0J-87700D01*
G01*
X195068400Y-127067700D01*
G75*
G02*
X194980700Y-127155400I-87700J0D01*
G01*
X194805300Y-127155400D01*
G75*
G02*
X194717600Y-127067700I0J87700D01*
G01*
G37*
G36*
G01*
X195217600Y-127067700D02*
X195217600Y-125717300D01*
G75*
G02*
X195305300Y-125629600I87700J0D01*
G01*
X195480700Y-125629600D01*
G75*
G02*
X195568400Y-125717300I0J-87700D01*
G01*
X195568400Y-127067700D01*
G75*
G02*
X195480700Y-127155400I-87700J0D01*
G01*
X195305300Y-127155400D01*
G75*
G02*
X195217600Y-127067700I0J87700D01*
G01*
G37*
G36*
G01*
X195717600Y-127067700D02*
X195717600Y-125717300D01*
G75*
G02*
X195805300Y-125629600I87700J0D01*
G01*
X195980700Y-125629600D01*
G75*
G02*
X196068400Y-125717300I0J-87700D01*
G01*
X196068400Y-127067700D01*
G75*
G02*
X195980700Y-127155400I-87700J0D01*
G01*
X195805300Y-127155400D01*
G75*
G02*
X195717600Y-127067700I0J87700D01*
G01*
G37*
G36*
G01*
X196217600Y-127067700D02*
X196217600Y-125717300D01*
G75*
G02*
X196305300Y-125629600I87700J0D01*
G01*
X196480700Y-125629600D01*
G75*
G02*
X196568400Y-125717300I0J-87700D01*
G01*
X196568400Y-127067700D01*
G75*
G02*
X196480700Y-127155400I-87700J0D01*
G01*
X196305300Y-127155400D01*
G75*
G02*
X196217600Y-127067700I0J87700D01*
G01*
G37*
G36*
G01*
X196717600Y-127067700D02*
X196717600Y-125717300D01*
G75*
G02*
X196805300Y-125629600I87700J0D01*
G01*
X196980700Y-125629600D01*
G75*
G02*
X197068400Y-125717300I0J-87700D01*
G01*
X197068400Y-127067700D01*
G75*
G02*
X196980700Y-127155400I-87700J0D01*
G01*
X196805300Y-127155400D01*
G75*
G02*
X196717600Y-127067700I0J87700D01*
G01*
G37*
G36*
G01*
X197217600Y-127067700D02*
X197217600Y-125717300D01*
G75*
G02*
X197305300Y-125629600I87700J0D01*
G01*
X197480700Y-125629600D01*
G75*
G02*
X197568400Y-125717300I0J-87700D01*
G01*
X197568400Y-127067700D01*
G75*
G02*
X197480700Y-127155400I-87700J0D01*
G01*
X197305300Y-127155400D01*
G75*
G02*
X197217600Y-127067700I0J87700D01*
G01*
G37*
G36*
G01*
X197717600Y-127067700D02*
X197717600Y-125717300D01*
G75*
G02*
X197805300Y-125629600I87700J0D01*
G01*
X197980700Y-125629600D01*
G75*
G02*
X198068400Y-125717300I0J-87700D01*
G01*
X198068400Y-127067700D01*
G75*
G02*
X197980700Y-127155400I-87700J0D01*
G01*
X197805300Y-127155400D01*
G75*
G02*
X197717600Y-127067700I0J87700D01*
G01*
G37*
G36*
G01*
X198542600Y-125067700D02*
X198542600Y-124892300D01*
G75*
G02*
X198630300Y-124804600I87700J0D01*
G01*
X199980700Y-124804600D01*
G75*
G02*
X200068400Y-124892300I0J-87700D01*
G01*
X200068400Y-125067700D01*
G75*
G02*
X199980700Y-125155400I-87700J0D01*
G01*
X198630300Y-125155400D01*
G75*
G02*
X198542600Y-125067700I0J87700D01*
G01*
G37*
G36*
G01*
X198542600Y-124567700D02*
X198542600Y-124392300D01*
G75*
G02*
X198630300Y-124304600I87700J0D01*
G01*
X199980700Y-124304600D01*
G75*
G02*
X200068400Y-124392300I0J-87700D01*
G01*
X200068400Y-124567700D01*
G75*
G02*
X199980700Y-124655400I-87700J0D01*
G01*
X198630300Y-124655400D01*
G75*
G02*
X198542600Y-124567700I0J87700D01*
G01*
G37*
G36*
G01*
X198542600Y-124067700D02*
X198542600Y-123892300D01*
G75*
G02*
X198630300Y-123804600I87700J0D01*
G01*
X199980700Y-123804600D01*
G75*
G02*
X200068400Y-123892300I0J-87700D01*
G01*
X200068400Y-124067700D01*
G75*
G02*
X199980700Y-124155400I-87700J0D01*
G01*
X198630300Y-124155400D01*
G75*
G02*
X198542600Y-124067700I0J87700D01*
G01*
G37*
G36*
G01*
X198542600Y-123567700D02*
X198542600Y-123392300D01*
G75*
G02*
X198630300Y-123304600I87700J0D01*
G01*
X199980700Y-123304600D01*
G75*
G02*
X200068400Y-123392300I0J-87700D01*
G01*
X200068400Y-123567700D01*
G75*
G02*
X199980700Y-123655400I-87700J0D01*
G01*
X198630300Y-123655400D01*
G75*
G02*
X198542600Y-123567700I0J87700D01*
G01*
G37*
G36*
G01*
X198542600Y-123067700D02*
X198542600Y-122892300D01*
G75*
G02*
X198630300Y-122804600I87700J0D01*
G01*
X199980700Y-122804600D01*
G75*
G02*
X200068400Y-122892300I0J-87700D01*
G01*
X200068400Y-123067700D01*
G75*
G02*
X199980700Y-123155400I-87700J0D01*
G01*
X198630300Y-123155400D01*
G75*
G02*
X198542600Y-123067700I0J87700D01*
G01*
G37*
G36*
G01*
X198542600Y-122567700D02*
X198542600Y-122392300D01*
G75*
G02*
X198630300Y-122304600I87700J0D01*
G01*
X199980700Y-122304600D01*
G75*
G02*
X200068400Y-122392300I0J-87700D01*
G01*
X200068400Y-122567700D01*
G75*
G02*
X199980700Y-122655400I-87700J0D01*
G01*
X198630300Y-122655400D01*
G75*
G02*
X198542600Y-122567700I0J87700D01*
G01*
G37*
G36*
G01*
X198542600Y-122067700D02*
X198542600Y-121892300D01*
G75*
G02*
X198630300Y-121804600I87700J0D01*
G01*
X199980700Y-121804600D01*
G75*
G02*
X200068400Y-121892300I0J-87700D01*
G01*
X200068400Y-122067700D01*
G75*
G02*
X199980700Y-122155400I-87700J0D01*
G01*
X198630300Y-122155400D01*
G75*
G02*
X198542600Y-122067700I0J87700D01*
G01*
G37*
G36*
G01*
X198542600Y-121567700D02*
X198542600Y-121392300D01*
G75*
G02*
X198630300Y-121304600I87700J0D01*
G01*
X199980700Y-121304600D01*
G75*
G02*
X200068400Y-121392300I0J-87700D01*
G01*
X200068400Y-121567700D01*
G75*
G02*
X199980700Y-121655400I-87700J0D01*
G01*
X198630300Y-121655400D01*
G75*
G02*
X198542600Y-121567700I0J87700D01*
G01*
G37*
G36*
G01*
X198542600Y-121067700D02*
X198542600Y-120892300D01*
G75*
G02*
X198630300Y-120804600I87700J0D01*
G01*
X199980700Y-120804600D01*
G75*
G02*
X200068400Y-120892300I0J-87700D01*
G01*
X200068400Y-121067700D01*
G75*
G02*
X199980700Y-121155400I-87700J0D01*
G01*
X198630300Y-121155400D01*
G75*
G02*
X198542600Y-121067700I0J87700D01*
G01*
G37*
G36*
G01*
X198542600Y-120567700D02*
X198542600Y-120392300D01*
G75*
G02*
X198630300Y-120304600I87700J0D01*
G01*
X199980700Y-120304600D01*
G75*
G02*
X200068400Y-120392300I0J-87700D01*
G01*
X200068400Y-120567700D01*
G75*
G02*
X199980700Y-120655400I-87700J0D01*
G01*
X198630300Y-120655400D01*
G75*
G02*
X198542600Y-120567700I0J87700D01*
G01*
G37*
G36*
G01*
X198542600Y-120067700D02*
X198542600Y-119892300D01*
G75*
G02*
X198630300Y-119804600I87700J0D01*
G01*
X199980700Y-119804600D01*
G75*
G02*
X200068400Y-119892300I0J-87700D01*
G01*
X200068400Y-120067700D01*
G75*
G02*
X199980700Y-120155400I-87700J0D01*
G01*
X198630300Y-120155400D01*
G75*
G02*
X198542600Y-120067700I0J87700D01*
G01*
G37*
G36*
G01*
X198542600Y-119567700D02*
X198542600Y-119392300D01*
G75*
G02*
X198630300Y-119304600I87700J0D01*
G01*
X199980700Y-119304600D01*
G75*
G02*
X200068400Y-119392300I0J-87700D01*
G01*
X200068400Y-119567700D01*
G75*
G02*
X199980700Y-119655400I-87700J0D01*
G01*
X198630300Y-119655400D01*
G75*
G02*
X198542600Y-119567700I0J87700D01*
G01*
G37*
G36*
G01*
X197717600Y-118742700D02*
X197717600Y-117392300D01*
G75*
G02*
X197805300Y-117304600I87700J0D01*
G01*
X197980700Y-117304600D01*
G75*
G02*
X198068400Y-117392300I0J-87700D01*
G01*
X198068400Y-118742700D01*
G75*
G02*
X197980700Y-118830400I-87700J0D01*
G01*
X197805300Y-118830400D01*
G75*
G02*
X197717600Y-118742700I0J87700D01*
G01*
G37*
G36*
G01*
X197217600Y-118742700D02*
X197217600Y-117392300D01*
G75*
G02*
X197305300Y-117304600I87700J0D01*
G01*
X197480700Y-117304600D01*
G75*
G02*
X197568400Y-117392300I0J-87700D01*
G01*
X197568400Y-118742700D01*
G75*
G02*
X197480700Y-118830400I-87700J0D01*
G01*
X197305300Y-118830400D01*
G75*
G02*
X197217600Y-118742700I0J87700D01*
G01*
G37*
G36*
G01*
X196717600Y-118742700D02*
X196717600Y-117392300D01*
G75*
G02*
X196805300Y-117304600I87700J0D01*
G01*
X196980700Y-117304600D01*
G75*
G02*
X197068400Y-117392300I0J-87700D01*
G01*
X197068400Y-118742700D01*
G75*
G02*
X196980700Y-118830400I-87700J0D01*
G01*
X196805300Y-118830400D01*
G75*
G02*
X196717600Y-118742700I0J87700D01*
G01*
G37*
G36*
G01*
X196217600Y-118742700D02*
X196217600Y-117392300D01*
G75*
G02*
X196305300Y-117304600I87700J0D01*
G01*
X196480700Y-117304600D01*
G75*
G02*
X196568400Y-117392300I0J-87700D01*
G01*
X196568400Y-118742700D01*
G75*
G02*
X196480700Y-118830400I-87700J0D01*
G01*
X196305300Y-118830400D01*
G75*
G02*
X196217600Y-118742700I0J87700D01*
G01*
G37*
G36*
G01*
X195717600Y-118742700D02*
X195717600Y-117392300D01*
G75*
G02*
X195805300Y-117304600I87700J0D01*
G01*
X195980700Y-117304600D01*
G75*
G02*
X196068400Y-117392300I0J-87700D01*
G01*
X196068400Y-118742700D01*
G75*
G02*
X195980700Y-118830400I-87700J0D01*
G01*
X195805300Y-118830400D01*
G75*
G02*
X195717600Y-118742700I0J87700D01*
G01*
G37*
G36*
G01*
X195217600Y-118742700D02*
X195217600Y-117392300D01*
G75*
G02*
X195305300Y-117304600I87700J0D01*
G01*
X195480700Y-117304600D01*
G75*
G02*
X195568400Y-117392300I0J-87700D01*
G01*
X195568400Y-118742700D01*
G75*
G02*
X195480700Y-118830400I-87700J0D01*
G01*
X195305300Y-118830400D01*
G75*
G02*
X195217600Y-118742700I0J87700D01*
G01*
G37*
G36*
G01*
X194717600Y-118742700D02*
X194717600Y-117392300D01*
G75*
G02*
X194805300Y-117304600I87700J0D01*
G01*
X194980700Y-117304600D01*
G75*
G02*
X195068400Y-117392300I0J-87700D01*
G01*
X195068400Y-118742700D01*
G75*
G02*
X194980700Y-118830400I-87700J0D01*
G01*
X194805300Y-118830400D01*
G75*
G02*
X194717600Y-118742700I0J87700D01*
G01*
G37*
G36*
G01*
X194217600Y-118742700D02*
X194217600Y-117392300D01*
G75*
G02*
X194305300Y-117304600I87700J0D01*
G01*
X194480700Y-117304600D01*
G75*
G02*
X194568400Y-117392300I0J-87700D01*
G01*
X194568400Y-118742700D01*
G75*
G02*
X194480700Y-118830400I-87700J0D01*
G01*
X194305300Y-118830400D01*
G75*
G02*
X194217600Y-118742700I0J87700D01*
G01*
G37*
G36*
G01*
X193717600Y-118742700D02*
X193717600Y-117392300D01*
G75*
G02*
X193805300Y-117304600I87700J0D01*
G01*
X193980700Y-117304600D01*
G75*
G02*
X194068400Y-117392300I0J-87700D01*
G01*
X194068400Y-118742700D01*
G75*
G02*
X193980700Y-118830400I-87700J0D01*
G01*
X193805300Y-118830400D01*
G75*
G02*
X193717600Y-118742700I0J87700D01*
G01*
G37*
G36*
G01*
X193217600Y-118742700D02*
X193217600Y-117392300D01*
G75*
G02*
X193305300Y-117304600I87700J0D01*
G01*
X193480700Y-117304600D01*
G75*
G02*
X193568400Y-117392300I0J-87700D01*
G01*
X193568400Y-118742700D01*
G75*
G02*
X193480700Y-118830400I-87700J0D01*
G01*
X193305300Y-118830400D01*
G75*
G02*
X193217600Y-118742700I0J87700D01*
G01*
G37*
G36*
G01*
X192717600Y-118742700D02*
X192717600Y-117392300D01*
G75*
G02*
X192805300Y-117304600I87700J0D01*
G01*
X192980700Y-117304600D01*
G75*
G02*
X193068400Y-117392300I0J-87700D01*
G01*
X193068400Y-118742700D01*
G75*
G02*
X192980700Y-118830400I-87700J0D01*
G01*
X192805300Y-118830400D01*
G75*
G02*
X192717600Y-118742700I0J87700D01*
G01*
G37*
G36*
G01*
X192217600Y-118742700D02*
X192217600Y-117392300D01*
G75*
G02*
X192305300Y-117304600I87700J0D01*
G01*
X192480700Y-117304600D01*
G75*
G02*
X192568400Y-117392300I0J-87700D01*
G01*
X192568400Y-118742700D01*
G75*
G02*
X192480700Y-118830400I-87700J0D01*
G01*
X192305300Y-118830400D01*
G75*
G02*
X192217600Y-118742700I0J87700D01*
G01*
G37*
X195143000Y-122230000D03*
G36*
G01*
X261052400Y-112163512D02*
X261052400Y-113446488D01*
G75*
G02*
X260793488Y-113705400I-258912J0D01*
G01*
X259835512Y-113705400D01*
G75*
G02*
X259576600Y-113446488I0J258912D01*
G01*
X259576600Y-112163512D01*
G75*
G02*
X259835512Y-111904600I258912J0D01*
G01*
X260793488Y-111904600D01*
G75*
G02*
X261052400Y-112163512I0J-258912D01*
G01*
G37*
G36*
G01*
X258077400Y-112163512D02*
X258077400Y-113446488D01*
G75*
G02*
X257818488Y-113705400I-258912J0D01*
G01*
X256860512Y-113705400D01*
G75*
G02*
X256601600Y-113446488I0J258912D01*
G01*
X256601600Y-112163512D01*
G75*
G02*
X256860512Y-111904600I258912J0D01*
G01*
X257818488Y-111904600D01*
G75*
G02*
X258077400Y-112163512I0J-258912D01*
G01*
G37*
G36*
G01*
X264913400Y-108548512D02*
X264913400Y-109831488D01*
G75*
G02*
X264654488Y-110090400I-258912J0D01*
G01*
X263696512Y-110090400D01*
G75*
G02*
X263437600Y-109831488I0J258912D01*
G01*
X263437600Y-108548512D01*
G75*
G02*
X263696512Y-108289600I258912J0D01*
G01*
X264654488Y-108289600D01*
G75*
G02*
X264913400Y-108548512I0J-258912D01*
G01*
G37*
G36*
G01*
X267888400Y-108548512D02*
X267888400Y-109831488D01*
G75*
G02*
X267629488Y-110090400I-258912J0D01*
G01*
X266671512Y-110090400D01*
G75*
G02*
X266412600Y-109831488I0J258912D01*
G01*
X266412600Y-108548512D01*
G75*
G02*
X266671512Y-108289600I258912J0D01*
G01*
X267629488Y-108289600D01*
G75*
G02*
X267888400Y-108548512I0J-258912D01*
G01*
G37*
G36*
G01*
X247381400Y-123438512D02*
X247381400Y-124721488D01*
G75*
G02*
X247122488Y-124980400I-258912J0D01*
G01*
X246164512Y-124980400D01*
G75*
G02*
X245905600Y-124721488I0J258912D01*
G01*
X245905600Y-123438512D01*
G75*
G02*
X246164512Y-123179600I258912J0D01*
G01*
X247122488Y-123179600D01*
G75*
G02*
X247381400Y-123438512I0J-258912D01*
G01*
G37*
G36*
G01*
X244406400Y-123438512D02*
X244406400Y-124721488D01*
G75*
G02*
X244147488Y-124980400I-258912J0D01*
G01*
X243189512Y-124980400D01*
G75*
G02*
X242930600Y-124721488I0J258912D01*
G01*
X242930600Y-123438512D01*
G75*
G02*
X243189512Y-123179600I258912J0D01*
G01*
X244147488Y-123179600D01*
G75*
G02*
X244406400Y-123438512I0J-258912D01*
G01*
G37*
G36*
G01*
X263437600Y-113469488D02*
X263437600Y-112186512D01*
G75*
G02*
X263696512Y-111927600I258912J0D01*
G01*
X264654488Y-111927600D01*
G75*
G02*
X264913400Y-112186512I0J-258912D01*
G01*
X264913400Y-113469488D01*
G75*
G02*
X264654488Y-113728400I-258912J0D01*
G01*
X263696512Y-113728400D01*
G75*
G02*
X263437600Y-113469488I0J258912D01*
G01*
G37*
G36*
G01*
X266412600Y-113469488D02*
X266412600Y-112186512D01*
G75*
G02*
X266671512Y-111927600I258912J0D01*
G01*
X267629488Y-111927600D01*
G75*
G02*
X267888400Y-112186512I0J-258912D01*
G01*
X267888400Y-113469488D01*
G75*
G02*
X267629488Y-113728400I-258912J0D01*
G01*
X266671512Y-113728400D01*
G75*
G02*
X266412600Y-113469488I0J258912D01*
G01*
G37*
G36*
G01*
X230905600Y-124721488D02*
X230905600Y-123438512D01*
G75*
G02*
X231164512Y-123179600I258912J0D01*
G01*
X232122488Y-123179600D01*
G75*
G02*
X232381400Y-123438512I0J-258912D01*
G01*
X232381400Y-124721488D01*
G75*
G02*
X232122488Y-124980400I-258912J0D01*
G01*
X231164512Y-124980400D01*
G75*
G02*
X230905600Y-124721488I0J258912D01*
G01*
G37*
G36*
G01*
X227930600Y-124721488D02*
X227930600Y-123438512D01*
G75*
G02*
X228189512Y-123179600I258912J0D01*
G01*
X229147488Y-123179600D01*
G75*
G02*
X229406400Y-123438512I0J-258912D01*
G01*
X229406400Y-124721488D01*
G75*
G02*
X229147488Y-124980400I-258912J0D01*
G01*
X228189512Y-124980400D01*
G75*
G02*
X227930600Y-124721488I0J258912D01*
G01*
G37*
G36*
G01*
X251242400Y-130613512D02*
X251242400Y-131896488D01*
G75*
G02*
X250983488Y-132155400I-258912J0D01*
G01*
X250025512Y-132155400D01*
G75*
G02*
X249766600Y-131896488I0J258912D01*
G01*
X249766600Y-130613512D01*
G75*
G02*
X250025512Y-130354600I258912J0D01*
G01*
X250983488Y-130354600D01*
G75*
G02*
X251242400Y-130613512I0J-258912D01*
G01*
G37*
G36*
G01*
X254217400Y-130613512D02*
X254217400Y-131896488D01*
G75*
G02*
X253958488Y-132155400I-258912J0D01*
G01*
X253000512Y-132155400D01*
G75*
G02*
X252741600Y-131896488I0J258912D01*
G01*
X252741600Y-130613512D01*
G75*
G02*
X253000512Y-130354600I258912J0D01*
G01*
X253958488Y-130354600D01*
G75*
G02*
X254217400Y-130613512I0J-258912D01*
G01*
G37*
G36*
G01*
X259576600Y-131896488D02*
X259576600Y-130613512D01*
G75*
G02*
X259835512Y-130354600I258912J0D01*
G01*
X260793488Y-130354600D01*
G75*
G02*
X261052400Y-130613512I0J-258912D01*
G01*
X261052400Y-131896488D01*
G75*
G02*
X260793488Y-132155400I-258912J0D01*
G01*
X259835512Y-132155400D01*
G75*
G02*
X259576600Y-131896488I0J258912D01*
G01*
G37*
G36*
G01*
X256601600Y-131896488D02*
X256601600Y-130613512D01*
G75*
G02*
X256860512Y-130354600I258912J0D01*
G01*
X257818488Y-130354600D01*
G75*
G02*
X258077400Y-130613512I0J-258912D01*
G01*
X258077400Y-131896488D01*
G75*
G02*
X257818488Y-132155400I-258912J0D01*
G01*
X256860512Y-132155400D01*
G75*
G02*
X256601600Y-131896488I0J258912D01*
G01*
G37*
G36*
G01*
X266412600Y-128211488D02*
X266412600Y-126928512D01*
G75*
G02*
X266671512Y-126669600I258912J0D01*
G01*
X267629488Y-126669600D01*
G75*
G02*
X267888400Y-126928512I0J-258912D01*
G01*
X267888400Y-128211488D01*
G75*
G02*
X267629488Y-128470400I-258912J0D01*
G01*
X266671512Y-128470400D01*
G75*
G02*
X266412600Y-128211488I0J258912D01*
G01*
G37*
G36*
G01*
X263437600Y-128211488D02*
X263437600Y-126928512D01*
G75*
G02*
X263696512Y-126669600I258912J0D01*
G01*
X264654488Y-126669600D01*
G75*
G02*
X264913400Y-126928512I0J-258912D01*
G01*
X264913400Y-128211488D01*
G75*
G02*
X264654488Y-128470400I-258912J0D01*
G01*
X263696512Y-128470400D01*
G75*
G02*
X263437600Y-128211488I0J258912D01*
G01*
G37*
G36*
G01*
X232381400Y-115921512D02*
X232381400Y-117204488D01*
G75*
G02*
X232122488Y-117463400I-258912J0D01*
G01*
X231164512Y-117463400D01*
G75*
G02*
X230905600Y-117204488I0J258912D01*
G01*
X230905600Y-115921512D01*
G75*
G02*
X231164512Y-115662600I258912J0D01*
G01*
X232122488Y-115662600D01*
G75*
G02*
X232381400Y-115921512I0J-258912D01*
G01*
G37*
G36*
G01*
X229406400Y-115921512D02*
X229406400Y-117204488D01*
G75*
G02*
X229147488Y-117463400I-258912J0D01*
G01*
X228189512Y-117463400D01*
G75*
G02*
X227930600Y-117204488I0J258912D01*
G01*
X227930600Y-115921512D01*
G75*
G02*
X228189512Y-115662600I258912J0D01*
G01*
X229147488Y-115662600D01*
G75*
G02*
X229406400Y-115921512I0J-258912D01*
G01*
G37*
G36*
G01*
X245905600Y-120963488D02*
X245905600Y-119680512D01*
G75*
G02*
X246164512Y-119421600I258912J0D01*
G01*
X247122488Y-119421600D01*
G75*
G02*
X247381400Y-119680512I0J-258912D01*
G01*
X247381400Y-120963488D01*
G75*
G02*
X247122488Y-121222400I-258912J0D01*
G01*
X246164512Y-121222400D01*
G75*
G02*
X245905600Y-120963488I0J258912D01*
G01*
G37*
G36*
G01*
X242930600Y-120963488D02*
X242930600Y-119680512D01*
G75*
G02*
X243189512Y-119421600I258912J0D01*
G01*
X244147488Y-119421600D01*
G75*
G02*
X244406400Y-119680512I0J-258912D01*
G01*
X244406400Y-120963488D01*
G75*
G02*
X244147488Y-121222400I-258912J0D01*
G01*
X243189512Y-121222400D01*
G75*
G02*
X242930600Y-120963488I0J258912D01*
G01*
G37*
G36*
G01*
X200674400Y-112263512D02*
X200674400Y-113546488D01*
G75*
G02*
X200415488Y-113805400I-258912J0D01*
G01*
X199457512Y-113805400D01*
G75*
G02*
X199198600Y-113546488I0J258912D01*
G01*
X199198600Y-112263512D01*
G75*
G02*
X199457512Y-112004600I258912J0D01*
G01*
X200415488Y-112004600D01*
G75*
G02*
X200674400Y-112263512I0J-258912D01*
G01*
G37*
G36*
G01*
X197699400Y-112263512D02*
X197699400Y-113546488D01*
G75*
G02*
X197440488Y-113805400I-258912J0D01*
G01*
X196482512Y-113805400D01*
G75*
G02*
X196223600Y-113546488I0J258912D01*
G01*
X196223600Y-112263512D01*
G75*
G02*
X196482512Y-112004600I258912J0D01*
G01*
X197440488Y-112004600D01*
G75*
G02*
X197699400Y-112263512I0J-258912D01*
G01*
G37*
G36*
G01*
X186821400Y-123538512D02*
X186821400Y-124821488D01*
G75*
G02*
X186562488Y-125080400I-258912J0D01*
G01*
X185604512Y-125080400D01*
G75*
G02*
X185345600Y-124821488I0J258912D01*
G01*
X185345600Y-123538512D01*
G75*
G02*
X185604512Y-123279600I258912J0D01*
G01*
X186562488Y-123279600D01*
G75*
G02*
X186821400Y-123538512I0J-258912D01*
G01*
G37*
G36*
G01*
X183846400Y-123538512D02*
X183846400Y-124821488D01*
G75*
G02*
X183587488Y-125080400I-258912J0D01*
G01*
X182629512Y-125080400D01*
G75*
G02*
X182370600Y-124821488I0J258912D01*
G01*
X182370600Y-123538512D01*
G75*
G02*
X182629512Y-123279600I258912J0D01*
G01*
X183587488Y-123279600D01*
G75*
G02*
X183846400Y-123538512I0J-258912D01*
G01*
G37*
G36*
G01*
X170685600Y-124821488D02*
X170685600Y-123538512D01*
G75*
G02*
X170944512Y-123279600I258912J0D01*
G01*
X171902488Y-123279600D01*
G75*
G02*
X172161400Y-123538512I0J-258912D01*
G01*
X172161400Y-124821488D01*
G75*
G02*
X171902488Y-125080400I-258912J0D01*
G01*
X170944512Y-125080400D01*
G75*
G02*
X170685600Y-124821488I0J258912D01*
G01*
G37*
G36*
G01*
X167710600Y-124821488D02*
X167710600Y-123538512D01*
G75*
G02*
X167969512Y-123279600I258912J0D01*
G01*
X168927488Y-123279600D01*
G75*
G02*
X169186400Y-123538512I0J-258912D01*
G01*
X169186400Y-124821488D01*
G75*
G02*
X168927488Y-125080400I-258912J0D01*
G01*
X167969512Y-125080400D01*
G75*
G02*
X167710600Y-124821488I0J258912D01*
G01*
G37*
G36*
G01*
X203160600Y-124821488D02*
X203160600Y-123538512D01*
G75*
G02*
X203419512Y-123279600I258912J0D01*
G01*
X204377488Y-123279600D01*
G75*
G02*
X204636400Y-123538512I0J-258912D01*
G01*
X204636400Y-124821488D01*
G75*
G02*
X204377488Y-125080400I-258912J0D01*
G01*
X203419512Y-125080400D01*
G75*
G02*
X203160600Y-124821488I0J258912D01*
G01*
G37*
G36*
G01*
X206135600Y-124821488D02*
X206135600Y-123538512D01*
G75*
G02*
X206394512Y-123279600I258912J0D01*
G01*
X207352488Y-123279600D01*
G75*
G02*
X207611400Y-123538512I0J-258912D01*
G01*
X207611400Y-124821488D01*
G75*
G02*
X207352488Y-125080400I-258912J0D01*
G01*
X206394512Y-125080400D01*
G75*
G02*
X206135600Y-124821488I0J258912D01*
G01*
G37*
G36*
G01*
X206135600Y-128386488D02*
X206135600Y-127103512D01*
G75*
G02*
X206394512Y-126844600I258912J0D01*
G01*
X207352488Y-126844600D01*
G75*
G02*
X207611400Y-127103512I0J-258912D01*
G01*
X207611400Y-128386488D01*
G75*
G02*
X207352488Y-128645400I-258912J0D01*
G01*
X206394512Y-128645400D01*
G75*
G02*
X206135600Y-128386488I0J258912D01*
G01*
G37*
G36*
G01*
X203160600Y-128386488D02*
X203160600Y-127103512D01*
G75*
G02*
X203419512Y-126844600I258912J0D01*
G01*
X204377488Y-126844600D01*
G75*
G02*
X204636400Y-127103512I0J-258912D01*
G01*
X204636400Y-128386488D01*
G75*
G02*
X204377488Y-128645400I-258912J0D01*
G01*
X203419512Y-128645400D01*
G75*
G02*
X203160600Y-128386488I0J258912D01*
G01*
G37*
G36*
G01*
X169186400Y-116021512D02*
X169186400Y-117304488D01*
G75*
G02*
X168927488Y-117563400I-258912J0D01*
G01*
X167969512Y-117563400D01*
G75*
G02*
X167710600Y-117304488I0J258912D01*
G01*
X167710600Y-116021512D01*
G75*
G02*
X167969512Y-115762600I258912J0D01*
G01*
X168927488Y-115762600D01*
G75*
G02*
X169186400Y-116021512I0J-258912D01*
G01*
G37*
G36*
G01*
X172161400Y-116021512D02*
X172161400Y-117304488D01*
G75*
G02*
X171902488Y-117563400I-258912J0D01*
G01*
X170944512Y-117563400D01*
G75*
G02*
X170685600Y-117304488I0J258912D01*
G01*
X170685600Y-116021512D01*
G75*
G02*
X170944512Y-115762600I258912J0D01*
G01*
X171902488Y-115762600D01*
G75*
G02*
X172161400Y-116021512I0J-258912D01*
G01*
G37*
G36*
G01*
X185345600Y-121061488D02*
X185345600Y-119778512D01*
G75*
G02*
X185604512Y-119519600I258912J0D01*
G01*
X186562488Y-119519600D01*
G75*
G02*
X186821400Y-119778512I0J-258912D01*
G01*
X186821400Y-121061488D01*
G75*
G02*
X186562488Y-121320400I-258912J0D01*
G01*
X185604512Y-121320400D01*
G75*
G02*
X185345600Y-121061488I0J258912D01*
G01*
G37*
G36*
G01*
X182370600Y-121061488D02*
X182370600Y-119778512D01*
G75*
G02*
X182629512Y-119519600I258912J0D01*
G01*
X183587488Y-119519600D01*
G75*
G02*
X183846400Y-119778512I0J-258912D01*
G01*
X183846400Y-121061488D01*
G75*
G02*
X183587488Y-121320400I-258912J0D01*
G01*
X182629512Y-121320400D01*
G75*
G02*
X182370600Y-121061488I0J258912D01*
G01*
G37*
G36*
G01*
X272282400Y-119550512D02*
X272282400Y-120833488D01*
G75*
G02*
X272023488Y-121092400I-258912J0D01*
G01*
X271065512Y-121092400D01*
G75*
G02*
X270806600Y-120833488I0J258912D01*
G01*
X270806600Y-119550512D01*
G75*
G02*
X271065512Y-119291600I258912J0D01*
G01*
X272023488Y-119291600D01*
G75*
G02*
X272282400Y-119550512I0J-258912D01*
G01*
G37*
G36*
G01*
X275257400Y-119550512D02*
X275257400Y-120833488D01*
G75*
G02*
X274998488Y-121092400I-258912J0D01*
G01*
X274040512Y-121092400D01*
G75*
G02*
X273781600Y-120833488I0J258912D01*
G01*
X273781600Y-119550512D01*
G75*
G02*
X274040512Y-119291600I258912J0D01*
G01*
X274998488Y-119291600D01*
G75*
G02*
X275257400Y-119550512I0J-258912D01*
G01*
G37*
G36*
G01*
X275239400Y-115817512D02*
X275239400Y-117100488D01*
G75*
G02*
X274980488Y-117359400I-258912J0D01*
G01*
X274022512Y-117359400D01*
G75*
G02*
X273763600Y-117100488I0J258912D01*
G01*
X273763600Y-115817512D01*
G75*
G02*
X274022512Y-115558600I258912J0D01*
G01*
X274980488Y-115558600D01*
G75*
G02*
X275239400Y-115817512I0J-258912D01*
G01*
G37*
G36*
G01*
X272264400Y-115817512D02*
X272264400Y-117100488D01*
G75*
G02*
X272005488Y-117359400I-258912J0D01*
G01*
X271047512Y-117359400D01*
G75*
G02*
X270788600Y-117100488I0J258912D01*
G01*
X270788600Y-115817512D01*
G75*
G02*
X271047512Y-115558600I258912J0D01*
G01*
X272005488Y-115558600D01*
G75*
G02*
X272264400Y-115817512I0J-258912D01*
G01*
G37*
G36*
G01*
X211940400Y-119593512D02*
X211940400Y-120876488D01*
G75*
G02*
X211681488Y-121135400I-258912J0D01*
G01*
X210723512Y-121135400D01*
G75*
G02*
X210464600Y-120876488I0J258912D01*
G01*
X210464600Y-119593512D01*
G75*
G02*
X210723512Y-119334600I258912J0D01*
G01*
X211681488Y-119334600D01*
G75*
G02*
X211940400Y-119593512I0J-258912D01*
G01*
G37*
G36*
G01*
X214915400Y-119593512D02*
X214915400Y-120876488D01*
G75*
G02*
X214656488Y-121135400I-258912J0D01*
G01*
X213698512Y-121135400D01*
G75*
G02*
X213439600Y-120876488I0J258912D01*
G01*
X213439600Y-119593512D01*
G75*
G02*
X213698512Y-119334600I258912J0D01*
G01*
X214656488Y-119334600D01*
G75*
G02*
X214915400Y-119593512I0J-258912D01*
G01*
G37*
G36*
G01*
X214915400Y-115849512D02*
X214915400Y-117132488D01*
G75*
G02*
X214656488Y-117391400I-258912J0D01*
G01*
X213698512Y-117391400D01*
G75*
G02*
X213439600Y-117132488I0J258912D01*
G01*
X213439600Y-115849512D01*
G75*
G02*
X213698512Y-115590600I258912J0D01*
G01*
X214656488Y-115590600D01*
G75*
G02*
X214915400Y-115849512I0J-258912D01*
G01*
G37*
G36*
G01*
X211940400Y-115849512D02*
X211940400Y-117132488D01*
G75*
G02*
X211681488Y-117391400I-258912J0D01*
G01*
X210723512Y-117391400D01*
G75*
G02*
X210464600Y-117132488I0J258912D01*
G01*
X210464600Y-115849512D01*
G75*
G02*
X210723512Y-115590600I258912J0D01*
G01*
X211681488Y-115590600D01*
G75*
G02*
X211940400Y-115849512I0J-258912D01*
G01*
G37*
D13*
X270682000Y-125750000D03*
X272682000Y-124800000D03*
X272682000Y-126700000D03*
X278100000Y-126700000D03*
X278100000Y-124800000D03*
X276100000Y-125750000D03*
X210340000Y-125722000D03*
X212340000Y-124772000D03*
X212340000Y-126672000D03*
X217750000Y-126672000D03*
X217750000Y-124772000D03*
X215750000Y-125722000D03*
G36*
G01*
X267888400Y-130613512D02*
X267888400Y-131896488D01*
G75*
G02*
X267629488Y-132155400I-258912J0D01*
G01*
X266671512Y-132155400D01*
G75*
G02*
X266412600Y-131896488I0J258912D01*
G01*
X266412600Y-130613512D01*
G75*
G02*
X266671512Y-130354600I258912J0D01*
G01*
X267629488Y-130354600D01*
G75*
G02*
X267888400Y-130613512I0J-258912D01*
G01*
G37*
G36*
G01*
X264913400Y-130613512D02*
X264913400Y-131896488D01*
G75*
G02*
X264654488Y-132155400I-258912J0D01*
G01*
X263696512Y-132155400D01*
G75*
G02*
X263437600Y-131896488I0J258912D01*
G01*
X263437600Y-130613512D01*
G75*
G02*
X263696512Y-130354600I258912J0D01*
G01*
X264654488Y-130354600D01*
G75*
G02*
X264913400Y-130613512I0J-258912D01*
G01*
G37*
G36*
G01*
X266412600Y-120840488D02*
X266412600Y-119557512D01*
G75*
G02*
X266671512Y-119298600I258912J0D01*
G01*
X267629488Y-119298600D01*
G75*
G02*
X267888400Y-119557512I0J-258912D01*
G01*
X267888400Y-120840488D01*
G75*
G02*
X267629488Y-121099400I-258912J0D01*
G01*
X266671512Y-121099400D01*
G75*
G02*
X266412600Y-120840488I0J258912D01*
G01*
G37*
G36*
G01*
X263437600Y-120840488D02*
X263437600Y-119557512D01*
G75*
G02*
X263696512Y-119298600I258912J0D01*
G01*
X264654488Y-119298600D01*
G75*
G02*
X264913400Y-119557512I0J-258912D01*
G01*
X264913400Y-120840488D01*
G75*
G02*
X264654488Y-121099400I-258912J0D01*
G01*
X263696512Y-121099400D01*
G75*
G02*
X263437600Y-120840488I0J258912D01*
G01*
G37*
G36*
G01*
X206135600Y-120826488D02*
X206135600Y-119543512D01*
G75*
G02*
X206394512Y-119284600I258912J0D01*
G01*
X207352488Y-119284600D01*
G75*
G02*
X207611400Y-119543512I0J-258912D01*
G01*
X207611400Y-120826488D01*
G75*
G02*
X207352488Y-121085400I-258912J0D01*
G01*
X206394512Y-121085400D01*
G75*
G02*
X206135600Y-120826488I0J258912D01*
G01*
G37*
G36*
G01*
X203160600Y-120826488D02*
X203160600Y-119543512D01*
G75*
G02*
X203419512Y-119284600I258912J0D01*
G01*
X204377488Y-119284600D01*
G75*
G02*
X204636400Y-119543512I0J-258912D01*
G01*
X204636400Y-120826488D01*
G75*
G02*
X204377488Y-121085400I-258912J0D01*
G01*
X203419512Y-121085400D01*
G75*
G02*
X203160600Y-120826488I0J258912D01*
G01*
G37*
G36*
G01*
X238405600Y-113446488D02*
X238405600Y-112163512D01*
G75*
G02*
X238664512Y-111904600I258912J0D01*
G01*
X239622488Y-111904600D01*
G75*
G02*
X239881400Y-112163512I0J-258912D01*
G01*
X239881400Y-113446488D01*
G75*
G02*
X239622488Y-113705400I-258912J0D01*
G01*
X238664512Y-113705400D01*
G75*
G02*
X238405600Y-113446488I0J258912D01*
G01*
G37*
G36*
G01*
X235430600Y-113446488D02*
X235430600Y-112163512D01*
G75*
G02*
X235689512Y-111904600I258912J0D01*
G01*
X236647488Y-111904600D01*
G75*
G02*
X236906400Y-112163512I0J-258912D01*
G01*
X236906400Y-113446488D01*
G75*
G02*
X236647488Y-113705400I-258912J0D01*
G01*
X235689512Y-113705400D01*
G75*
G02*
X235430600Y-113446488I0J258912D01*
G01*
G37*
G36*
G01*
X239881400Y-123438512D02*
X239881400Y-124721488D01*
G75*
G02*
X239622488Y-124980400I-258912J0D01*
G01*
X238664512Y-124980400D01*
G75*
G02*
X238405600Y-124721488I0J258912D01*
G01*
X238405600Y-123438512D01*
G75*
G02*
X238664512Y-123179600I258912J0D01*
G01*
X239622488Y-123179600D01*
G75*
G02*
X239881400Y-123438512I0J-258912D01*
G01*
G37*
G36*
G01*
X236906400Y-123438512D02*
X236906400Y-124721488D01*
G75*
G02*
X236647488Y-124980400I-258912J0D01*
G01*
X235689512Y-124980400D01*
G75*
G02*
X235430600Y-124721488I0J258912D01*
G01*
X235430600Y-123438512D01*
G75*
G02*
X235689512Y-123179600I258912J0D01*
G01*
X236647488Y-123179600D01*
G75*
G02*
X236906400Y-123438512I0J-258912D01*
G01*
G37*
G36*
G01*
X229406400Y-119680512D02*
X229406400Y-120963488D01*
G75*
G02*
X229147488Y-121222400I-258912J0D01*
G01*
X228189512Y-121222400D01*
G75*
G02*
X227930600Y-120963488I0J258912D01*
G01*
X227930600Y-119680512D01*
G75*
G02*
X228189512Y-119421600I258912J0D01*
G01*
X229147488Y-119421600D01*
G75*
G02*
X229406400Y-119680512I0J-258912D01*
G01*
G37*
G36*
G01*
X232381400Y-119680512D02*
X232381400Y-120963488D01*
G75*
G02*
X232122488Y-121222400I-258912J0D01*
G01*
X231164512Y-121222400D01*
G75*
G02*
X230905600Y-120963488I0J258912D01*
G01*
X230905600Y-119680512D01*
G75*
G02*
X231164512Y-119421600I258912J0D01*
G01*
X232122488Y-119421600D01*
G75*
G02*
X232381400Y-119680512I0J-258912D01*
G01*
G37*
G36*
G01*
X247381400Y-112163512D02*
X247381400Y-113446488D01*
G75*
G02*
X247122488Y-113705400I-258912J0D01*
G01*
X246164512Y-113705400D01*
G75*
G02*
X245905600Y-113446488I0J258912D01*
G01*
X245905600Y-112163512D01*
G75*
G02*
X246164512Y-111904600I258912J0D01*
G01*
X247122488Y-111904600D01*
G75*
G02*
X247381400Y-112163512I0J-258912D01*
G01*
G37*
G36*
G01*
X244406400Y-112163512D02*
X244406400Y-113446488D01*
G75*
G02*
X244147488Y-113705400I-258912J0D01*
G01*
X243189512Y-113705400D01*
G75*
G02*
X242930600Y-113446488I0J258912D01*
G01*
X242930600Y-112163512D01*
G75*
G02*
X243189512Y-111904600I258912J0D01*
G01*
X244147488Y-111904600D01*
G75*
G02*
X244406400Y-112163512I0J-258912D01*
G01*
G37*
G36*
G01*
X229406400Y-112163512D02*
X229406400Y-113446488D01*
G75*
G02*
X229147488Y-113705400I-258912J0D01*
G01*
X228189512Y-113705400D01*
G75*
G02*
X227930600Y-113446488I0J258912D01*
G01*
X227930600Y-112163512D01*
G75*
G02*
X228189512Y-111904600I258912J0D01*
G01*
X229147488Y-111904600D01*
G75*
G02*
X229406400Y-112163512I0J-258912D01*
G01*
G37*
G36*
G01*
X232381400Y-112163512D02*
X232381400Y-113446488D01*
G75*
G02*
X232122488Y-113705400I-258912J0D01*
G01*
X231164512Y-113705400D01*
G75*
G02*
X230905600Y-113446488I0J258912D01*
G01*
X230905600Y-112163512D01*
G75*
G02*
X231164512Y-111904600I258912J0D01*
G01*
X232122488Y-111904600D01*
G75*
G02*
X232381400Y-112163512I0J-258912D01*
G01*
G37*
G36*
G01*
X245905600Y-117204488D02*
X245905600Y-115921512D01*
G75*
G02*
X246164512Y-115662600I258912J0D01*
G01*
X247122488Y-115662600D01*
G75*
G02*
X247381400Y-115921512I0J-258912D01*
G01*
X247381400Y-117204488D01*
G75*
G02*
X247122488Y-117463400I-258912J0D01*
G01*
X246164512Y-117463400D01*
G75*
G02*
X245905600Y-117204488I0J258912D01*
G01*
G37*
G36*
G01*
X242930600Y-117204488D02*
X242930600Y-115921512D01*
G75*
G02*
X243189512Y-115662600I258912J0D01*
G01*
X244147488Y-115662600D01*
G75*
G02*
X244406400Y-115921512I0J-258912D01*
G01*
X244406400Y-117204488D01*
G75*
G02*
X244147488Y-117463400I-258912J0D01*
G01*
X243189512Y-117463400D01*
G75*
G02*
X242930600Y-117204488I0J258912D01*
G01*
G37*
G36*
G01*
X214915400Y-130513512D02*
X214915400Y-131796488D01*
G75*
G02*
X214656488Y-132055400I-258912J0D01*
G01*
X213698512Y-132055400D01*
G75*
G02*
X213439600Y-131796488I0J258912D01*
G01*
X213439600Y-130513512D01*
G75*
G02*
X213698512Y-130254600I258912J0D01*
G01*
X214656488Y-130254600D01*
G75*
G02*
X214915400Y-130513512I0J-258912D01*
G01*
G37*
G36*
G01*
X211940400Y-130513512D02*
X211940400Y-131796488D01*
G75*
G02*
X211681488Y-132055400I-258912J0D01*
G01*
X210723512Y-132055400D01*
G75*
G02*
X210464600Y-131796488I0J258912D01*
G01*
X210464600Y-130513512D01*
G75*
G02*
X210723512Y-130254600I258912J0D01*
G01*
X211681488Y-130254600D01*
G75*
G02*
X211940400Y-130513512I0J-258912D01*
G01*
G37*
G36*
G01*
X203160600Y-117046488D02*
X203160600Y-115763512D01*
G75*
G02*
X203419512Y-115504600I258912J0D01*
G01*
X204377488Y-115504600D01*
G75*
G02*
X204636400Y-115763512I0J-258912D01*
G01*
X204636400Y-117046488D01*
G75*
G02*
X204377488Y-117305400I-258912J0D01*
G01*
X203419512Y-117305400D01*
G75*
G02*
X203160600Y-117046488I0J258912D01*
G01*
G37*
G36*
G01*
X206135600Y-117046488D02*
X206135600Y-115763512D01*
G75*
G02*
X206394512Y-115504600I258912J0D01*
G01*
X207352488Y-115504600D01*
G75*
G02*
X207611400Y-115763512I0J-258912D01*
G01*
X207611400Y-117046488D01*
G75*
G02*
X207352488Y-117305400I-258912J0D01*
G01*
X206394512Y-117305400D01*
G75*
G02*
X206135600Y-117046488I0J258912D01*
G01*
G37*
G36*
G01*
X177935600Y-113546488D02*
X177935600Y-112263512D01*
G75*
G02*
X178194512Y-112004600I258912J0D01*
G01*
X179152488Y-112004600D01*
G75*
G02*
X179411400Y-112263512I0J-258912D01*
G01*
X179411400Y-113546488D01*
G75*
G02*
X179152488Y-113805400I-258912J0D01*
G01*
X178194512Y-113805400D01*
G75*
G02*
X177935600Y-113546488I0J258912D01*
G01*
G37*
G36*
G01*
X174960600Y-113546488D02*
X174960600Y-112263512D01*
G75*
G02*
X175219512Y-112004600I258912J0D01*
G01*
X176177488Y-112004600D01*
G75*
G02*
X176436400Y-112263512I0J-258912D01*
G01*
X176436400Y-113546488D01*
G75*
G02*
X176177488Y-113805400I-258912J0D01*
G01*
X175219512Y-113805400D01*
G75*
G02*
X174960600Y-113546488I0J258912D01*
G01*
G37*
G36*
G01*
X179411400Y-123538512D02*
X179411400Y-124821488D01*
G75*
G02*
X179152488Y-125080400I-258912J0D01*
G01*
X178194512Y-125080400D01*
G75*
G02*
X177935600Y-124821488I0J258912D01*
G01*
X177935600Y-123538512D01*
G75*
G02*
X178194512Y-123279600I258912J0D01*
G01*
X179152488Y-123279600D01*
G75*
G02*
X179411400Y-123538512I0J-258912D01*
G01*
G37*
G36*
G01*
X176436400Y-123538512D02*
X176436400Y-124821488D01*
G75*
G02*
X176177488Y-125080400I-258912J0D01*
G01*
X175219512Y-125080400D01*
G75*
G02*
X174960600Y-124821488I0J258912D01*
G01*
X174960600Y-123538512D01*
G75*
G02*
X175219512Y-123279600I258912J0D01*
G01*
X176177488Y-123279600D01*
G75*
G02*
X176436400Y-123538512I0J-258912D01*
G01*
G37*
G36*
G01*
X172161400Y-119780512D02*
X172161400Y-121063488D01*
G75*
G02*
X171902488Y-121322400I-258912J0D01*
G01*
X170944512Y-121322400D01*
G75*
G02*
X170685600Y-121063488I0J258912D01*
G01*
X170685600Y-119780512D01*
G75*
G02*
X170944512Y-119521600I258912J0D01*
G01*
X171902488Y-119521600D01*
G75*
G02*
X172161400Y-119780512I0J-258912D01*
G01*
G37*
G36*
G01*
X169186400Y-119780512D02*
X169186400Y-121063488D01*
G75*
G02*
X168927488Y-121322400I-258912J0D01*
G01*
X167969512Y-121322400D01*
G75*
G02*
X167710600Y-121063488I0J258912D01*
G01*
X167710600Y-119780512D01*
G75*
G02*
X167969512Y-119521600I258912J0D01*
G01*
X168927488Y-119521600D01*
G75*
G02*
X169186400Y-119780512I0J-258912D01*
G01*
G37*
G36*
G01*
X183846400Y-112263512D02*
X183846400Y-113546488D01*
G75*
G02*
X183587488Y-113805400I-258912J0D01*
G01*
X182629512Y-113805400D01*
G75*
G02*
X182370600Y-113546488I0J258912D01*
G01*
X182370600Y-112263512D01*
G75*
G02*
X182629512Y-112004600I258912J0D01*
G01*
X183587488Y-112004600D01*
G75*
G02*
X183846400Y-112263512I0J-258912D01*
G01*
G37*
G36*
G01*
X186821400Y-112263512D02*
X186821400Y-113546488D01*
G75*
G02*
X186562488Y-113805400I-258912J0D01*
G01*
X185604512Y-113805400D01*
G75*
G02*
X185345600Y-113546488I0J258912D01*
G01*
X185345600Y-112263512D01*
G75*
G02*
X185604512Y-112004600I258912J0D01*
G01*
X186562488Y-112004600D01*
G75*
G02*
X186821400Y-112263512I0J-258912D01*
G01*
G37*
G36*
G01*
X172161400Y-112263512D02*
X172161400Y-113546488D01*
G75*
G02*
X171902488Y-113805400I-258912J0D01*
G01*
X170944512Y-113805400D01*
G75*
G02*
X170685600Y-113546488I0J258912D01*
G01*
X170685600Y-112263512D01*
G75*
G02*
X170944512Y-112004600I258912J0D01*
G01*
X171902488Y-112004600D01*
G75*
G02*
X172161400Y-112263512I0J-258912D01*
G01*
G37*
G36*
G01*
X169186400Y-112263512D02*
X169186400Y-113546488D01*
G75*
G02*
X168927488Y-113805400I-258912J0D01*
G01*
X167969512Y-113805400D01*
G75*
G02*
X167710600Y-113546488I0J258912D01*
G01*
X167710600Y-112263512D01*
G75*
G02*
X167969512Y-112004600I258912J0D01*
G01*
X168927488Y-112004600D01*
G75*
G02*
X169186400Y-112263512I0J-258912D01*
G01*
G37*
G36*
G01*
X182370600Y-117304488D02*
X182370600Y-116021512D01*
G75*
G02*
X182629512Y-115762600I258912J0D01*
G01*
X183587488Y-115762600D01*
G75*
G02*
X183846400Y-116021512I0J-258912D01*
G01*
X183846400Y-117304488D01*
G75*
G02*
X183587488Y-117563400I-258912J0D01*
G01*
X182629512Y-117563400D01*
G75*
G02*
X182370600Y-117304488I0J258912D01*
G01*
G37*
G36*
G01*
X185345600Y-117304488D02*
X185345600Y-116021512D01*
G75*
G02*
X185604512Y-115762600I258912J0D01*
G01*
X186562488Y-115762600D01*
G75*
G02*
X186821400Y-116021512I0J-258912D01*
G01*
X186821400Y-117304488D01*
G75*
G02*
X186562488Y-117563400I-258912J0D01*
G01*
X185604512Y-117563400D01*
G75*
G02*
X185345600Y-117304488I0J258912D01*
G01*
G37*
G36*
G01*
X239024600Y-116699700D02*
X239024600Y-116374300D01*
G75*
G02*
X239187300Y-116211600I162700J0D01*
G01*
X240862700Y-116211600D01*
G75*
G02*
X241025400Y-116374300I0J-162700D01*
G01*
X241025400Y-116699700D01*
G75*
G02*
X240862700Y-116862400I-162700J0D01*
G01*
X239187300Y-116862400D01*
G75*
G02*
X239024600Y-116699700I0J162700D01*
G01*
G37*
G36*
G01*
X239024600Y-117969700D02*
X239024600Y-117644300D01*
G75*
G02*
X239187300Y-117481600I162700J0D01*
G01*
X240862700Y-117481600D01*
G75*
G02*
X241025400Y-117644300I0J-162700D01*
G01*
X241025400Y-117969700D01*
G75*
G02*
X240862700Y-118132400I-162700J0D01*
G01*
X239187300Y-118132400D01*
G75*
G02*
X239024600Y-117969700I0J162700D01*
G01*
G37*
G36*
G01*
X239024600Y-119239700D02*
X239024600Y-118914300D01*
G75*
G02*
X239187300Y-118751600I162700J0D01*
G01*
X240862700Y-118751600D01*
G75*
G02*
X241025400Y-118914300I0J-162700D01*
G01*
X241025400Y-119239700D01*
G75*
G02*
X240862700Y-119402400I-162700J0D01*
G01*
X239187300Y-119402400D01*
G75*
G02*
X239024600Y-119239700I0J162700D01*
G01*
G37*
G36*
G01*
X239024600Y-120509700D02*
X239024600Y-120184300D01*
G75*
G02*
X239187300Y-120021600I162700J0D01*
G01*
X240862700Y-120021600D01*
G75*
G02*
X241025400Y-120184300I0J-162700D01*
G01*
X241025400Y-120509700D01*
G75*
G02*
X240862700Y-120672400I-162700J0D01*
G01*
X239187300Y-120672400D01*
G75*
G02*
X239024600Y-120509700I0J162700D01*
G01*
G37*
G36*
G01*
X234074600Y-120509700D02*
X234074600Y-120184300D01*
G75*
G02*
X234237300Y-120021600I162700J0D01*
G01*
X235912700Y-120021600D01*
G75*
G02*
X236075400Y-120184300I0J-162700D01*
G01*
X236075400Y-120509700D01*
G75*
G02*
X235912700Y-120672400I-162700J0D01*
G01*
X234237300Y-120672400D01*
G75*
G02*
X234074600Y-120509700I0J162700D01*
G01*
G37*
G36*
G01*
X234074600Y-119239700D02*
X234074600Y-118914300D01*
G75*
G02*
X234237300Y-118751600I162700J0D01*
G01*
X235912700Y-118751600D01*
G75*
G02*
X236075400Y-118914300I0J-162700D01*
G01*
X236075400Y-119239700D01*
G75*
G02*
X235912700Y-119402400I-162700J0D01*
G01*
X234237300Y-119402400D01*
G75*
G02*
X234074600Y-119239700I0J162700D01*
G01*
G37*
G36*
G01*
X234074600Y-117969700D02*
X234074600Y-117644300D01*
G75*
G02*
X234237300Y-117481600I162700J0D01*
G01*
X235912700Y-117481600D01*
G75*
G02*
X236075400Y-117644300I0J-162700D01*
G01*
X236075400Y-117969700D01*
G75*
G02*
X235912700Y-118132400I-162700J0D01*
G01*
X234237300Y-118132400D01*
G75*
G02*
X234074600Y-117969700I0J162700D01*
G01*
G37*
G36*
G01*
X234074600Y-116699700D02*
X234074600Y-116374300D01*
G75*
G02*
X234237300Y-116211600I162700J0D01*
G01*
X235912700Y-116211600D01*
G75*
G02*
X236075400Y-116374300I0J-162700D01*
G01*
X236075400Y-116699700D01*
G75*
G02*
X235912700Y-116862400I-162700J0D01*
G01*
X234237300Y-116862400D01*
G75*
G02*
X234074600Y-116699700I0J162700D01*
G01*
G37*
G36*
G01*
X173714600Y-116799700D02*
X173714600Y-116474300D01*
G75*
G02*
X173877300Y-116311600I162700J0D01*
G01*
X175552700Y-116311600D01*
G75*
G02*
X175715400Y-116474300I0J-162700D01*
G01*
X175715400Y-116799700D01*
G75*
G02*
X175552700Y-116962400I-162700J0D01*
G01*
X173877300Y-116962400D01*
G75*
G02*
X173714600Y-116799700I0J162700D01*
G01*
G37*
G36*
G01*
X173714600Y-118069700D02*
X173714600Y-117744300D01*
G75*
G02*
X173877300Y-117581600I162700J0D01*
G01*
X175552700Y-117581600D01*
G75*
G02*
X175715400Y-117744300I0J-162700D01*
G01*
X175715400Y-118069700D01*
G75*
G02*
X175552700Y-118232400I-162700J0D01*
G01*
X173877300Y-118232400D01*
G75*
G02*
X173714600Y-118069700I0J162700D01*
G01*
G37*
G36*
G01*
X173714600Y-119339700D02*
X173714600Y-119014300D01*
G75*
G02*
X173877300Y-118851600I162700J0D01*
G01*
X175552700Y-118851600D01*
G75*
G02*
X175715400Y-119014300I0J-162700D01*
G01*
X175715400Y-119339700D01*
G75*
G02*
X175552700Y-119502400I-162700J0D01*
G01*
X173877300Y-119502400D01*
G75*
G02*
X173714600Y-119339700I0J162700D01*
G01*
G37*
G36*
G01*
X173714600Y-120609700D02*
X173714600Y-120284300D01*
G75*
G02*
X173877300Y-120121600I162700J0D01*
G01*
X175552700Y-120121600D01*
G75*
G02*
X175715400Y-120284300I0J-162700D01*
G01*
X175715400Y-120609700D01*
G75*
G02*
X175552700Y-120772400I-162700J0D01*
G01*
X173877300Y-120772400D01*
G75*
G02*
X173714600Y-120609700I0J162700D01*
G01*
G37*
G36*
G01*
X178664600Y-120609700D02*
X178664600Y-120284300D01*
G75*
G02*
X178827300Y-120121600I162700J0D01*
G01*
X180502700Y-120121600D01*
G75*
G02*
X180665400Y-120284300I0J-162700D01*
G01*
X180665400Y-120609700D01*
G75*
G02*
X180502700Y-120772400I-162700J0D01*
G01*
X178827300Y-120772400D01*
G75*
G02*
X178664600Y-120609700I0J162700D01*
G01*
G37*
G36*
G01*
X178664600Y-119339700D02*
X178664600Y-119014300D01*
G75*
G02*
X178827300Y-118851600I162700J0D01*
G01*
X180502700Y-118851600D01*
G75*
G02*
X180665400Y-119014300I0J-162700D01*
G01*
X180665400Y-119339700D01*
G75*
G02*
X180502700Y-119502400I-162700J0D01*
G01*
X178827300Y-119502400D01*
G75*
G02*
X178664600Y-119339700I0J162700D01*
G01*
G37*
G36*
G01*
X178664600Y-118069700D02*
X178664600Y-117744300D01*
G75*
G02*
X178827300Y-117581600I162700J0D01*
G01*
X180502700Y-117581600D01*
G75*
G02*
X180665400Y-117744300I0J-162700D01*
G01*
X180665400Y-118069700D01*
G75*
G02*
X180502700Y-118232400I-162700J0D01*
G01*
X178827300Y-118232400D01*
G75*
G02*
X178664600Y-118069700I0J162700D01*
G01*
G37*
G36*
G01*
X178664600Y-116799700D02*
X178664600Y-116474300D01*
G75*
G02*
X178827300Y-116311600I162700J0D01*
G01*
X180502700Y-116311600D01*
G75*
G02*
X180665400Y-116474300I0J-162700D01*
G01*
X180665400Y-116799700D01*
G75*
G02*
X180502700Y-116962400I-162700J0D01*
G01*
X178827300Y-116962400D01*
G75*
G02*
X178664600Y-116799700I0J162700D01*
G01*
G37*
D14*
X243543500Y-128735000D03*
X231668500Y-128735000D03*
X171510500Y-128835000D03*
X183385500Y-128835000D03*
D15*
X191052000Y-137558000D03*
X191052000Y-135018000D03*
X193592000Y-137558000D03*
X193592000Y-135018000D03*
X196132000Y-137558000D03*
D10*
X196132000Y-135018000D03*
X241040000Y-138360000D03*
D15*
X241040000Y-135820000D03*
X243580000Y-138360000D03*
X243580000Y-135820000D03*
X246120000Y-138360000D03*
X246120000Y-135820000D03*
X248660000Y-138360000D03*
X248660000Y-135820000D03*
X251200000Y-138360000D03*
X251200000Y-135820000D03*
X253740000Y-138360000D03*
X253740000Y-135820000D03*
X256280000Y-138360000D03*
X256280000Y-135820000D03*
X258820000Y-138360000D03*
X258820000Y-135820000D03*
X261360000Y-138360000D03*
X261360000Y-135820000D03*
X263900000Y-138360000D03*
X263900000Y-135820000D03*
D16*
X162366000Y-125640000D03*
X271840000Y-103796000D03*
M02*
